<?xml version="1.0" encoding="utf-8"?>
<!-- Generator: Adobe Illustrator 27.2.0, SVG Export Plug-In . SVG Version: 6.00 Build 0)  -->
<svg version="1.1" id="Camada_1" xmlns="http://www.w3.org/2000/svg" xmlns:xlink="http://www.w3.org/1999/xlink" x="0px" y="0px"
	 viewBox="0 0 1920 1080" style="enable-background:new 0 0 1920 1080;" xml:space="preserve">
<style type="text/css">
	.st0{fill:#F3EEE2;}
	.st1{fill:#F7BD4B;}
	.st2{fill:#C29DE0;}
	.st3{fill:#BC9ECB;}
	.st4{fill:none;}
	.st5{clip-path:url(#SVGID_00000070820253787947112200000014406258403068624522_);}
	.st6{fill:#87A6D2;}
	.st7{fill:#7CAA92;}
	.st8{fill:#FFFFFF;}
</style>
<rect x="0" y="0" class="st0" width="1920" height="1080"/>
<g>
	<polygon class="st2" points="844.33,375.25 657.38,421.58 657.38,567.39 844.27,518.41 	"/>
	<polygon class="st3" points="882.69,648.39 844.33,375.25 844.27,518.41 	"/>
	<polygon class="st4" points="657.38,567.39 844.27,518.41 882.69,648.39 	"/>
	<polygon class="st3" points="1111.86,306.58 1111.9,452.06 961.18,488.62 921.54,354.8 	"/>
	<polygon class="st3" points="961.27,766.32 1035.1,747.04 1035.46,884.79 1035.48,894.04 961.17,913.89 	"/>
	<polygon class="st4" points="1111.89,393.94 1332.49,475.8 1351.55,542.09 1161.01,590.24 1275.36,983.22 1202.81,1002.64 
		961.17,913.89 1035.48,894.04 1035.1,747.04 961.18,488.62 1111.9,452.06 	"/>
	<polygon class="st4" points="921.54,354.8 1111.86,306.58 1094.53,244.43 640.05,359.43 640.05,499.02 657.38,567.39 
		657.38,421.58 844.33,375.25 844.27,518.41 961.17,913.89 961.27,766.32 1035.1,747.04 	"/>
</g>
<g>
	<defs>
		<rect id="SVGID_1_" x="62.5" y="736.08" width="897.5" height="343.92"/>
	</defs>
	<clipPath id="SVGID_00000099663681449942091530000006150910779250380731_">
		<use xlink:href="#SVGID_1_"  style="overflow:visible;"/>
	</clipPath>
	<g style="clip-path:url(#SVGID_00000099663681449942091530000006150910779250380731_);">
		<g>
			<path class="st0" d="M376.56,440.04l21.9-60.78h13.82l22.56,60.78h-8.41l-20.4-55.45l4,2h-9.82l4.25-2l-19.73,55.45H376.56z
				 M389.63,421.89l2.75-7.33h26.23l2.75,7.33H389.63z"/>
			<path class="st0" d="M463.9,441.54c-3.83,0-7.15-0.67-9.95-2c-2.8-1.33-5.12-3.12-6.95-5.37c-1.83-2.25-3.21-4.73-4.12-7.45
				c-0.92-2.72-1.37-5.44-1.37-8.16v-1.5c0-2.83,0.46-5.61,1.37-8.33c0.92-2.72,2.3-5.17,4.16-7.37c1.86-2.19,4.18-3.95,6.95-5.29
				c2.77-1.33,6.02-2,9.74-2c3.72,0,7.06,0.69,10.03,2.08c2.97,1.39,5.36,3.34,7.16,5.87c1.8,2.53,2.82,5.51,3.04,8.95h-7.66
				c-0.39-2.77-1.67-5.09-3.83-6.95c-2.16-1.86-5.08-2.79-8.74-2.79c-3.16,0-5.8,0.72-7.91,2.16c-2.11,1.44-3.69,3.41-4.75,5.91
				c-1.05,2.5-1.58,5.33-1.58,8.49c0,3.05,0.53,5.84,1.58,8.37c1.05,2.53,2.65,4.52,4.79,5.99c2.14,1.47,4.81,2.21,8.03,2.21
				c2.5,0,4.66-0.44,6.49-1.33c1.83-0.89,3.3-2.08,4.41-3.58c1.11-1.5,1.78-3.19,2-5.08h7.66c-0.17,3.5-1.18,6.52-3.04,9.08
				c-1.86,2.55-4.3,4.54-7.33,5.95C471.07,440.83,467.67,441.54,463.9,441.54z"/>
			<path class="st0" d="M495.28,440.04v-44.46h6.33v18.32h-0.33c0-6.49,1.43-11.25,4.29-14.28c2.86-3.02,7.15-4.54,12.86-4.54h1.5
				v7.16h-2.83c-4.44,0-7.85,1.18-10.24,3.54c-2.39,2.36-3.58,5.76-3.58,10.2v24.06H495.28z"/>
			<path class="st0" d="M548.32,441.54c-3.89,0-7.24-0.67-10.07-2c-2.83-1.33-5.13-3.09-6.91-5.29c-1.78-2.19-3.09-4.65-3.95-7.37
				c-0.86-2.72-1.29-5.5-1.29-8.33v-1.5c0-2.89,0.43-5.69,1.29-8.41c0.86-2.72,2.18-5.18,3.95-7.37c1.78-2.19,4.04-3.94,6.79-5.25
				c2.75-1.3,5.98-1.96,9.7-1.96c4.83,0,8.81,1.04,11.95,3.12c3.13,2.08,5.47,4.76,6.99,8.03c1.53,3.28,2.29,6.77,2.29,10.49v3.58
				h-39.46v-5.99h33.64l-1.83,3.25c0-3.16-0.5-5.9-1.5-8.2c-1-2.3-2.5-4.09-4.5-5.37c-2-1.28-4.52-1.92-7.58-1.92
				c-3.16,0-5.79,0.72-7.87,2.16c-2.08,1.44-3.64,3.41-4.66,5.91c-1.03,2.5-1.54,5.38-1.54,8.66c0,3.16,0.51,6.01,1.54,8.53
				c1.03,2.53,2.62,4.52,4.79,5.99c2.16,1.47,4.91,2.21,8.24,2.21c3.5,0,6.34-0.78,8.53-2.33c2.19-1.55,3.51-3.36,3.95-5.41h7.49
				c-0.61,3.05-1.83,5.69-3.66,7.91c-1.83,2.22-4.14,3.91-6.91,5.08C554.95,440.96,551.81,441.54,548.32,441.54z"/>
			<path class="st0" d="M598.94,441.54c-3.16,0-6.08-0.58-8.74-1.75c-2.66-1.17-4.98-2.8-6.95-4.91c-1.97-2.11-3.5-4.55-4.58-7.33
				c-1.08-2.77-1.62-5.77-1.62-8.99v-1.5c0-3.16,0.53-6.13,1.58-8.91c1.05-2.77,2.54-5.22,4.45-7.33c1.91-2.11,4.19-3.76,6.83-4.95
				c2.64-1.19,5.56-1.79,8.78-1.79c3.38,0,6.47,0.71,9.24,2.12c2.77,1.42,5.05,3.62,6.83,6.62c1.78,3,2.77,6.88,3,11.66l-3.33-5.33
				v-29.89h7.99v60.78h-6.33v-19.73h2.33c-0.22,5.05-1.28,9.15-3.16,12.28c-1.89,3.14-4.26,5.41-7.12,6.83
				C605.28,440.83,602.21,441.54,598.94,441.54z M600.02,434.55c2.72,0,5.19-0.61,7.41-1.83c2.22-1.22,4-2.98,5.33-5.29
				c1.33-2.3,2-5.01,2-8.12v-3.83c0-3.05-0.68-5.65-2.04-7.78c-1.36-2.14-3.16-3.77-5.41-4.91c-2.25-1.14-4.7-1.71-7.37-1.71
				c-2.94,0-5.54,0.69-7.78,2.08c-2.25,1.39-4,3.33-5.25,5.83c-1.25,2.5-1.87,5.44-1.87,8.83c0,3.39,0.64,6.34,1.91,8.87
				c1.28,2.53,3.05,4.47,5.33,5.83C594.55,433.87,597.13,434.55,600.02,434.55z"/>
			<path class="st0" d="M633.07,401.91v-6.33h14.82v6.33H633.07z M642.15,388.42c-1.78,0-3.09-0.47-3.95-1.42
				c-0.86-0.94-1.29-2.14-1.29-3.58c0-1.44,0.43-2.64,1.29-3.58c0.86-0.94,2.18-1.42,3.95-1.42c1.78,0,3.09,0.47,3.95,1.42
				c0.86,0.94,1.29,2.14,1.29,3.58c0,1.44-0.43,2.64-1.29,3.58C645.24,387.95,643.92,388.42,642.15,388.42z M639.9,440.04v-44.46
				h7.99v44.46H639.9z"/>
			<path class="st0" d="M656.88,401.58v-5.99h30.64v5.99H656.88z M680.7,440.54c-3.33,0-6.2-0.47-8.62-1.42
				c-2.41-0.94-4.27-2.57-5.58-4.87c-1.3-2.3-1.96-5.42-1.96-9.37V382.1h7.66v43.79c0,2.39,0.65,4.23,1.96,5.54
				c1.3,1.3,3.15,1.96,5.54,1.96h7.83v7.16H680.7z"/>
			<path class="st0" d="M711.17,441.21c-3.33,0-6.2-0.57-8.62-1.71c-2.41-1.14-4.27-2.79-5.58-4.95c-1.31-2.16-1.96-4.77-1.96-7.83
				c0-3.16,0.71-5.8,2.12-7.91c1.42-2.11,3.48-3.71,6.2-4.79c2.72-1.08,5.99-1.62,9.82-1.62h12.07v5.99h-12.41
				c-3.22,0-5.69,0.78-7.41,2.33c-1.72,1.55-2.58,3.55-2.58,5.99c0,2.44,0.86,4.41,2.58,5.91c1.72,1.5,4.19,2.25,7.41,2.25
				c1.89,0,3.69-0.35,5.41-1.04c1.72-0.69,3.15-1.86,4.29-3.5c1.14-1.64,1.76-3.9,1.87-6.79l2.16,3.16
				c-0.28,3.16-1.04,5.81-2.29,7.95c-1.25,2.14-2.97,3.76-5.16,4.87C716.93,440.65,714.28,441.21,711.17,441.21z M725.74,440.04
				v-13.32h-1.33v-15.4c0-3.05-0.79-5.36-2.37-6.91c-1.58-1.55-3.9-2.33-6.95-2.33c-1.72,0-3.5,0.03-5.33,0.08
				c-1.83,0.06-3.58,0.11-5.25,0.17c-1.67,0.06-3.11,0.14-4.33,0.25v-6.99c1.22-0.11,2.51-0.21,3.87-0.29
				c1.36-0.08,2.76-0.14,4.2-0.17c1.44-0.03,2.83-0.04,4.16-0.04c4.55,0,8.27,0.54,11.16,1.62c2.89,1.08,5.02,2.85,6.41,5.29
				c1.39,2.44,2.08,5.74,2.08,9.91v28.14H725.74z"/>
			<path class="st0" d="M746.72,440.04v-44.46h6.33v19.07h-1c0-4.33,0.57-8.01,1.71-11.03c1.14-3.02,2.84-5.34,5.12-6.95
				c2.28-1.61,5.16-2.41,8.66-2.41h0.33c3.5,0,6.4,0.81,8.7,2.41c2.3,1.61,4.01,3.93,5.12,6.95c1.11,3.03,1.67,6.7,1.67,11.03h-2.33
				c0-4.33,0.58-8.01,1.75-11.03c1.17-3.02,2.9-5.34,5.2-6.95c2.3-1.61,5.2-2.41,8.7-2.41h0.33c3.5,0,6.41,0.81,8.74,2.41
				c2.33,1.61,4.07,3.93,5.2,6.95c1.14,3.03,1.71,6.7,1.71,11.03v25.39h-7.99V412.9c0-3.61-0.89-6.4-2.66-8.37
				c-1.78-1.97-4.25-2.96-7.41-2.96c-3.28,0-5.91,1.04-7.91,3.12c-2,2.08-3,4.98-3,8.7v26.64h-7.99V412.9c0-3.61-0.89-6.4-2.66-8.37
				c-1.78-1.97-4.25-2.96-7.41-2.96c-3.28,0-5.91,1.04-7.91,3.12c-2,2.08-3,4.98-3,8.7v26.64H746.72z"/>
			<path class="st0" d="M847.79,441.54c-3.89,0-7.3-0.67-10.24-2c-2.94-1.33-5.43-3.09-7.45-5.29c-2.03-2.19-3.55-4.65-4.58-7.37
				c-1.03-2.72-1.54-5.5-1.54-8.33v-1.5c0-2.83,0.53-5.62,1.58-8.37c1.05-2.75,2.61-5.22,4.66-7.41c2.05-2.19,4.55-3.94,7.49-5.25
				c2.94-1.3,6.3-1.96,10.07-1.96c3.77,0,7.13,0.65,10.07,1.96c2.94,1.3,5.44,3.05,7.49,5.25c2.05,2.19,3.61,4.66,4.66,7.41
				c1.05,2.75,1.58,5.54,1.58,8.37v1.5c0,2.83-0.51,5.61-1.54,8.33c-1.03,2.72-2.55,5.18-4.58,7.37c-2.03,2.19-4.51,3.95-7.45,5.29
				C855.09,440.88,851.68,441.54,847.79,441.54z M847.79,434.38c3.33,0,6.17-0.74,8.53-2.21c2.36-1.47,4.16-3.46,5.41-5.95
				c1.25-2.5,1.87-5.3,1.87-8.41c0-3.16-0.64-5.99-1.92-8.49c-1.28-2.5-3.09-4.47-5.45-5.91c-2.36-1.44-5.18-2.16-8.45-2.16
				c-3.22,0-6.02,0.72-8.41,2.16c-2.39,1.44-4.22,3.41-5.5,5.91c-1.28,2.5-1.91,5.33-1.91,8.49c0,3.11,0.62,5.91,1.87,8.41
				c1.25,2.5,3.05,4.48,5.41,5.95C841.62,433.65,844.46,434.38,847.79,434.38z"/>
			<path class="st0" d="M898.16,441.38c-5.83,0-10.34-1.25-13.53-3.75c-3.19-2.5-4.84-5.91-4.95-10.24h7.49
				c0.11,1.72,0.98,3.34,2.62,4.87c1.64,1.53,4.43,2.29,8.37,2.29c3.55,0,6.27-0.71,8.16-2.12c1.89-1.42,2.83-3.15,2.83-5.2
				c0-1.83-0.69-3.26-2.08-4.29c-1.39-1.03-3.64-1.71-6.74-2.04l-4.83-0.5c-4.22-0.44-7.66-1.71-10.32-3.79
				c-2.66-2.08-4-5.01-4-8.78c0-2.83,0.72-5.26,2.17-7.28c1.44-2.03,3.44-3.58,5.99-4.66c2.55-1.08,5.5-1.62,8.83-1.62
				c5,0,9.05,1.11,12.16,3.33c3.11,2.22,4.72,5.52,4.83,9.91h-7.49c-0.06-1.78-0.87-3.29-2.46-4.54s-3.93-1.87-7.04-1.87
				c-3.11,0-5.47,0.64-7.08,1.92c-1.61,1.28-2.41,2.89-2.41,4.83c0,1.67,0.57,3,1.71,4c1.14,1,3.01,1.64,5.62,1.92l4.83,0.5
				c4.77,0.5,8.6,1.82,11.49,3.95c2.89,2.14,4.33,5.15,4.33,9.03c0,2.78-0.79,5.23-2.37,7.37c-1.58,2.14-3.76,3.8-6.54,5
				C904.96,440.78,901.77,441.38,898.16,441.38z"/>
			<path class="st0" d="M981.25,456.7v-29.89l3.16-6.33c-0.17,4.83-1.14,8.8-2.91,11.91c-1.78,3.11-4.07,5.41-6.87,6.91
				c-2.8,1.5-5.87,2.25-9.2,2.25c-3.16,0-6.06-0.61-8.7-1.83c-2.64-1.22-4.91-2.91-6.83-5.08c-1.92-2.16-3.4-4.65-4.45-7.45
				c-1.05-2.8-1.58-5.79-1.58-8.95v-1.5c0-3.16,0.53-6.1,1.58-8.83c1.05-2.72,2.55-5.12,4.5-7.2c1.94-2.08,4.25-3.71,6.91-4.87
				c2.66-1.17,5.63-1.75,8.91-1.75c3.77,0,7.09,0.81,9.95,2.41c2.86,1.61,5.12,3.94,6.79,6.99c1.67,3.05,2.58,6.77,2.75,11.16h-2.33
				v-19.07h6.33v61.11H981.25z M966.85,434.22c2.72,0,5.19-0.61,7.41-1.83c2.22-1.22,4-2.98,5.33-5.29c1.33-2.3,2-5.01,2-8.12v-3.83
				c0-3.05-0.68-5.65-2.04-7.78c-1.36-2.14-3.16-3.77-5.41-4.91c-2.25-1.14-4.68-1.71-7.29-1.71c-3,0-5.62,0.69-7.87,2.08
				c-2.25,1.39-4,3.34-5.25,5.87c-1.25,2.53-1.87,5.45-1.87,8.78c0,3.33,0.64,6.26,1.91,8.78c1.28,2.53,3.05,4.48,5.33,5.87
				C961.38,433.52,963.96,434.22,966.85,434.22z"/>
			<path class="st0" d="M1019.97,441.38c-5.27,0-9.33-1.72-12.16-5.16c-2.83-3.44-4.25-8.41-4.25-14.9V395.5h7.99v27.39
				c0,3.5,0.94,6.23,2.83,8.2c1.89,1.97,4.44,2.96,7.66,2.96c3.33,0,6.05-1.07,8.16-3.21c2.11-2.14,3.16-5.06,3.16-8.78V395.5h7.99
				v44.54h-6.33v-19.07h1c0,4.39-0.58,8.09-1.75,11.12c-1.17,3.03-2.9,5.33-5.2,6.91c-2.3,1.58-5.23,2.37-8.78,2.37H1019.97z"/>
			<path class="st0" d="M1075.75,441.54c-3.89,0-7.24-0.67-10.07-2c-2.83-1.33-5.13-3.09-6.91-5.29c-1.78-2.19-3.09-4.65-3.95-7.37
				c-0.86-2.72-1.29-5.5-1.29-8.33v-1.5c0-2.89,0.43-5.69,1.29-8.41c0.86-2.72,2.18-5.18,3.95-7.37c1.78-2.19,4.04-3.94,6.79-5.25
				c2.75-1.3,5.98-1.96,9.7-1.96c4.83,0,8.81,1.04,11.95,3.12c3.13,2.08,5.47,4.76,6.99,8.03c1.53,3.28,2.29,6.77,2.29,10.49v3.58
				h-39.46v-5.99h33.64l-1.83,3.25c0-3.16-0.5-5.9-1.5-8.2c-1-2.3-2.5-4.09-4.5-5.37c-2-1.28-4.52-1.92-7.58-1.92
				c-3.16,0-5.79,0.72-7.87,2.16c-2.08,1.44-3.64,3.41-4.66,5.91c-1.03,2.5-1.54,5.38-1.54,8.66c0,3.16,0.51,6.01,1.54,8.53
				c1.03,2.53,2.62,4.52,4.79,5.99c2.16,1.47,4.91,2.21,8.24,2.21c3.5,0,6.34-0.78,8.53-2.33c2.19-1.55,3.51-3.36,3.95-5.41h7.49
				c-0.61,3.05-1.83,5.69-3.66,7.91c-1.83,2.22-4.14,3.91-6.91,5.08C1082.38,440.96,1079.25,441.54,1075.75,441.54z"/>
			<path class="st0" d="M1145.68,441.54c-3.89,0-7.24-0.67-10.07-2c-2.83-1.33-5.13-3.09-6.91-5.29c-1.78-2.19-3.09-4.65-3.95-7.37
				c-0.86-2.72-1.29-5.5-1.29-8.33v-1.5c0-2.89,0.43-5.69,1.29-8.41c0.86-2.72,2.18-5.18,3.95-7.37c1.78-2.19,4.04-3.94,6.79-5.25
				c2.75-1.3,5.98-1.96,9.7-1.96c4.83,0,8.81,1.04,11.95,3.12c3.13,2.08,5.47,4.76,6.99,8.03c1.53,3.28,2.29,6.77,2.29,10.49v3.58
				h-39.46v-5.99h33.64l-1.83,3.25c0-3.16-0.5-5.9-1.5-8.2c-1-2.3-2.5-4.09-4.5-5.37c-2-1.28-4.52-1.92-7.58-1.92
				c-3.16,0-5.79,0.72-7.87,2.16c-2.08,1.44-3.64,3.41-4.66,5.91c-1.03,2.5-1.54,5.38-1.54,8.66c0,3.16,0.51,6.01,1.54,8.53
				c1.03,2.53,2.62,4.52,4.79,5.99c2.16,1.47,4.91,2.21,8.24,2.21c3.5,0,6.34-0.78,8.53-2.33c2.19-1.55,3.51-3.36,3.95-5.41h7.49
				c-0.61,3.05-1.83,5.69-3.66,7.91c-1.83,2.22-4.14,3.91-6.91,5.08C1152.32,440.96,1149.18,441.54,1145.68,441.54z"/>
			<path class="st0" d="M1192.31,441.38c-5.83,0-10.34-1.25-13.53-3.75c-3.19-2.5-4.84-5.91-4.95-10.24h7.49
				c0.11,1.72,0.98,3.34,2.62,4.87c1.64,1.53,4.43,2.29,8.37,2.29c3.55,0,6.27-0.71,8.16-2.12c1.89-1.42,2.83-3.15,2.83-5.2
				c0-1.83-0.69-3.26-2.08-4.29c-1.39-1.03-3.64-1.71-6.74-2.04l-4.83-0.5c-4.22-0.44-7.66-1.71-10.32-3.79
				c-2.66-2.08-4-5.01-4-8.78c0-2.83,0.72-5.26,2.17-7.28c1.44-2.03,3.44-3.58,5.99-4.66c2.55-1.08,5.5-1.62,8.83-1.62
				c5,0,9.05,1.11,12.16,3.33c3.11,2.22,4.72,5.52,4.83,9.91h-7.49c-0.06-1.78-0.87-3.29-2.46-4.54s-3.93-1.87-7.04-1.87
				c-3.11,0-5.47,0.64-7.08,1.92c-1.61,1.28-2.41,2.89-2.41,4.83c0,1.67,0.57,3,1.71,4c1.14,1,3.01,1.64,5.62,1.92l4.83,0.5
				c4.77,0.5,8.6,1.82,11.49,3.95c2.89,2.14,4.33,5.15,4.33,9.03c0,2.78-0.79,5.23-2.37,7.37c-1.58,2.14-3.76,3.8-6.54,5
				C1199.11,440.78,1195.92,441.38,1192.31,441.38z"/>
			<path class="st0" d="M1222.37,456.7v-61.11h6.33v19.23l-1.5-0.17c0.28-4.77,1.29-8.67,3.04-11.7c1.75-3.02,4.04-5.26,6.87-6.7
				c2.83-1.44,5.91-2.16,9.24-2.16c3.22,0,6.15,0.61,8.78,1.83c2.64,1.22,4.9,2.89,6.79,5c1.89,2.11,3.33,4.55,4.33,7.33
				c1,2.78,1.5,5.72,1.5,8.83v1.5c0,3.11-0.53,6.05-1.58,8.83c-1.06,2.78-2.54,5.22-4.45,7.33c-1.92,2.11-4.19,3.78-6.83,5
				c-2.64,1.22-5.54,1.83-8.7,1.83c-3.16,0-6.19-0.69-9.07-2.08c-2.89-1.39-5.27-3.63-7.16-6.74c-1.89-3.11-2.97-7.19-3.25-12.24
				l3.66,6.66v29.56H1222.37z M1244.93,434.55c3,0,5.61-0.71,7.83-2.12c2.22-1.42,3.94-3.39,5.16-5.91c1.22-2.52,1.83-5.42,1.83-8.7
				c0-3.33-0.61-6.24-1.83-8.74c-1.22-2.5-2.94-4.45-5.16-5.87c-2.22-1.42-4.83-2.12-7.83-2.12c-2.66,0-5.13,0.6-7.41,1.79
				c-2.28,1.19-4.09,2.91-5.45,5.16c-1.36,2.25-2.04,4.95-2.04,8.12v3.83c0,3.05,0.69,5.66,2.08,7.83c1.39,2.16,3.22,3.83,5.5,5
				C1239.88,433.97,1242.32,434.55,1244.93,434.55z"/>
			<path class="st0" d="M1292.05,441.21c-3.33,0-6.2-0.57-8.62-1.71c-2.41-1.14-4.27-2.79-5.58-4.95c-1.31-2.16-1.96-4.77-1.96-7.83
				c0-3.16,0.71-5.8,2.12-7.91c1.42-2.11,3.48-3.71,6.2-4.79c2.72-1.08,5.99-1.62,9.82-1.62h12.07v5.99h-12.41
				c-3.22,0-5.69,0.78-7.41,2.33c-1.72,1.55-2.58,3.55-2.58,5.99c0,2.44,0.86,4.41,2.58,5.91c1.72,1.5,4.19,2.25,7.41,2.25
				c1.89,0,3.69-0.35,5.41-1.04c1.72-0.69,3.15-1.86,4.29-3.5c1.14-1.64,1.76-3.9,1.87-6.79l2.16,3.16
				c-0.28,3.16-1.04,5.81-2.29,7.95c-1.25,2.14-2.97,3.76-5.16,4.87C1297.81,440.65,1295.16,441.21,1292.05,441.21z M1306.62,440.04
				v-13.32h-1.33v-15.4c0-3.05-0.79-5.36-2.37-6.91c-1.58-1.55-3.9-2.33-6.95-2.33c-1.72,0-3.5,0.03-5.33,0.08
				c-1.83,0.06-3.58,0.11-5.25,0.17c-1.67,0.06-3.11,0.14-4.33,0.25v-6.99c1.22-0.11,2.51-0.21,3.87-0.29
				c1.36-0.08,2.76-0.14,4.2-0.17c1.44-0.03,2.83-0.04,4.16-0.04c4.55,0,8.27,0.54,11.16,1.62c2.89,1.08,5.02,2.85,6.41,5.29
				c1.39,2.44,2.08,5.74,2.08,9.91v28.14H1306.62z"/>
			<path class="st0" d="M1346.67,441.54c-3.83,0-7.15-0.67-9.95-2c-2.8-1.33-5.12-3.12-6.95-5.37c-1.83-2.25-3.21-4.73-4.12-7.45
				c-0.92-2.72-1.37-5.44-1.37-8.16v-1.5c0-2.83,0.46-5.61,1.37-8.33c0.92-2.72,2.3-5.17,4.16-7.37c1.86-2.19,4.18-3.95,6.95-5.29
				c2.77-1.33,6.02-2,9.74-2c3.72,0,7.06,0.69,10.03,2.08c2.97,1.39,5.36,3.34,7.16,5.87c1.8,2.53,2.82,5.51,3.04,8.95h-7.66
				c-0.39-2.77-1.67-5.09-3.83-6.95c-2.16-1.86-5.08-2.79-8.74-2.79c-3.16,0-5.8,0.72-7.91,2.16c-2.11,1.44-3.69,3.41-4.75,5.91
				c-1.05,2.5-1.58,5.33-1.58,8.49c0,3.05,0.53,5.84,1.58,8.37c1.05,2.53,2.65,4.52,4.79,5.99c2.14,1.47,4.81,2.21,8.03,2.21
				c2.5,0,4.66-0.44,6.49-1.33c1.83-0.89,3.3-2.08,4.41-3.58c1.11-1.5,1.78-3.19,2-5.08h7.66c-0.17,3.5-1.18,6.52-3.04,9.08
				c-1.86,2.55-4.3,4.54-7.33,5.95C1353.84,440.83,1350.44,441.54,1346.67,441.54z M1346,460.19c-1.06,0-2.07-0.07-3.04-0.21
				c-0.97-0.14-1.85-0.32-2.62-0.54v-5.33c0.78,0.22,1.68,0.4,2.71,0.54c1.03,0.14,2.01,0.21,2.96,0.21c1.78,0,3.08-0.29,3.91-0.87
				c0.83-0.58,1.25-1.32,1.25-2.21c0-0.89-0.35-1.6-1.04-2.12c-0.69-0.53-1.85-0.79-3.46-0.79h-3.16v-9.66h4.83v7.91l-3.41-3.08
				h1.33c3.16,0,5.72,0.65,7.66,1.96c1.94,1.3,2.91,3.18,2.91,5.62c0,2.39-0.96,4.41-2.87,6.08S1349.39,460.19,1346,460.19z"/>
			<path class="st0" d="M1398.54,441.54c-3.89,0-7.3-0.67-10.24-2c-2.94-1.33-5.43-3.09-7.45-5.29c-2.03-2.19-3.55-4.65-4.58-7.37
				c-1.03-2.72-1.54-5.5-1.54-8.33v-1.5c0-2.83,0.53-5.62,1.58-8.37c1.05-2.75,2.61-5.22,4.66-7.41c2.05-2.19,4.55-3.94,7.49-5.25
				c2.94-1.3,6.3-1.96,10.07-1.96c3.77,0,7.13,0.65,10.07,1.96c2.94,1.3,5.44,3.05,7.49,5.25c2.05,2.19,3.61,4.66,4.66,7.41
				c1.05,2.75,1.58,5.54,1.58,8.37v1.5c0,2.83-0.51,5.61-1.54,8.33c-1.03,2.72-2.55,5.18-4.58,7.37c-2.03,2.19-4.51,3.95-7.45,5.29
				C1405.83,440.88,1402.42,441.54,1398.54,441.54z M1398.54,434.38c3.33,0,6.17-0.74,8.53-2.21c2.36-1.47,4.16-3.46,5.41-5.95
				c1.25-2.5,1.87-5.3,1.87-8.41c0-3.16-0.64-5.99-1.92-8.49c-1.28-2.5-3.09-4.47-5.45-5.91c-2.36-1.44-5.18-2.16-8.45-2.16
				c-3.22,0-6.02,0.72-8.41,2.16c-2.39,1.44-4.22,3.41-5.5,5.91c-1.28,2.5-1.91,5.33-1.91,8.49c0,3.11,0.62,5.91,1.87,8.41
				c1.25,2.5,3.05,4.48,5.41,5.95C1392.36,433.65,1395.21,434.38,1398.54,434.38z"/>
			<path class="st0" d="M1448.91,441.38c-5.83,0-10.34-1.25-13.53-3.75c-3.19-2.5-4.84-5.91-4.95-10.24h7.49
				c0.11,1.72,0.98,3.34,2.62,4.87c1.64,1.53,4.43,2.29,8.37,2.29c3.55,0,6.27-0.71,8.16-2.12c1.89-1.42,2.83-3.15,2.83-5.2
				c0-1.83-0.69-3.26-2.08-4.29c-1.39-1.03-3.64-1.71-6.74-2.04l-4.83-0.5c-4.22-0.44-7.66-1.71-10.32-3.79
				c-2.66-2.08-4-5.01-4-8.78c0-2.83,0.72-5.26,2.17-7.28c1.44-2.03,3.44-3.58,5.99-4.66c2.55-1.08,5.5-1.62,8.83-1.62
				c5,0,9.05,1.11,12.16,3.33c3.11,2.22,4.72,5.52,4.83,9.91h-7.49c-0.06-1.78-0.87-3.29-2.46-4.54s-3.93-1.87-7.04-1.87
				c-3.11,0-5.47,0.64-7.08,1.92c-1.61,1.28-2.41,2.89-2.41,4.83c0,1.67,0.57,3,1.71,4c1.14,1,3.01,1.64,5.62,1.92l4.83,0.5
				c4.77,0.5,8.6,1.82,11.49,3.95c2.89,2.14,4.33,5.15,4.33,9.03c0,2.78-0.79,5.23-2.37,7.37c-1.58,2.14-3.76,3.8-6.54,5
				C1455.71,440.78,1452.51,441.38,1448.91,441.38z"/>
			<path class="st0" d="M396.46,552.39c-5.83,0-10.34-1.25-13.53-3.75c-3.19-2.5-4.84-5.91-4.95-10.24h7.49
				c0.11,1.72,0.98,3.34,2.62,4.87c1.64,1.53,4.43,2.29,8.37,2.29c3.55,0,6.27-0.71,8.16-2.12c1.89-1.42,2.83-3.15,2.83-5.2
				c0-1.83-0.69-3.26-2.08-4.29c-1.39-1.03-3.64-1.71-6.74-2.04l-4.83-0.5c-4.22-0.44-7.66-1.71-10.32-3.79
				c-2.66-2.08-4-5.01-4-8.78c0-2.83,0.72-5.26,2.17-7.28c1.44-2.03,3.44-3.58,5.99-4.66c2.55-1.08,5.5-1.62,8.83-1.62
				c5,0,9.05,1.11,12.16,3.33c3.11,2.22,4.72,5.52,4.83,9.91h-7.49c-0.06-1.78-0.87-3.29-2.46-4.54c-1.58-1.25-3.93-1.87-7.04-1.87
				c-3.11,0-5.47,0.64-7.08,1.91c-1.61,1.28-2.41,2.89-2.41,4.83c0,1.67,0.57,3,1.71,4c1.14,1,3.01,1.64,5.62,1.91l4.83,0.5
				c4.77,0.5,8.6,1.82,11.49,3.95c2.89,2.14,4.33,5.15,4.33,9.03c0,2.78-0.79,5.23-2.37,7.37c-1.58,2.14-3.76,3.8-6.54,5
				C403.26,551.79,400.06,552.39,396.46,552.39z"/>
			<path class="st0" d="M438.83,552.22c-3.33,0-6.2-0.57-8.62-1.71s-4.27-2.79-5.58-4.95c-1.31-2.16-1.96-4.77-1.96-7.83
				c0-3.16,0.71-5.8,2.12-7.91c1.42-2.11,3.48-3.71,6.2-4.79c2.72-1.08,5.99-1.62,9.82-1.62h12.07v5.99H440.5
				c-3.22,0-5.69,0.78-7.41,2.33c-1.72,1.55-2.58,3.55-2.58,5.99c0,2.44,0.86,4.41,2.58,5.91c1.72,1.5,4.19,2.25,7.41,2.25
				c1.89,0,3.69-0.35,5.41-1.04c1.72-0.69,3.15-1.86,4.29-3.5c1.14-1.64,1.76-3.9,1.87-6.79l2.16,3.16
				c-0.28,3.16-1.04,5.81-2.29,7.95c-1.25,2.14-2.97,3.76-5.16,4.87C444.59,551.66,441.94,552.22,438.83,552.22z M453.4,551.05
				v-13.32h-1.33v-15.4c0-3.05-0.79-5.36-2.37-6.91c-1.58-1.55-3.9-2.33-6.95-2.33c-1.72,0-3.5,0.03-5.33,0.08
				c-1.83,0.06-3.58,0.11-5.25,0.17c-1.67,0.06-3.11,0.14-4.33,0.25v-6.99c1.22-0.11,2.51-0.21,3.87-0.29
				c1.36-0.08,2.76-0.14,4.2-0.17c1.44-0.03,2.83-0.04,4.16-0.04c4.55,0,8.27,0.54,11.16,1.62c2.89,1.08,5.02,2.85,6.41,5.29
				c1.39,2.44,2.08,5.74,2.08,9.91v28.14H453.4z M447.74,497.69c-1.39,0-2.58-0.21-3.58-0.62c-1-0.42-1.92-0.9-2.75-1.46
				c-0.83-0.55-1.67-1.04-2.5-1.46s-1.78-0.62-2.83-0.62c-1.17,0-2.23,0.29-3.21,0.87c-0.97,0.58-1.85,1.37-2.62,2.37l-1.33-5.33
				c0.83-1.05,1.87-1.94,3.12-2.66c1.25-0.72,2.68-1.08,4.29-1.08c1.39,0,2.58,0.21,3.58,0.62c1,0.42,1.92,0.9,2.75,1.46
				c0.83,0.56,1.67,1.04,2.5,1.46c0.83,0.42,1.78,0.62,2.83,0.62c1.17,0,2.25-0.29,3.25-0.87c1-0.58,1.89-1.37,2.66-2.37l1.33,5.33
				c-0.83,1.06-1.89,1.94-3.16,2.66C450.8,497.33,449.35,497.69,447.74,497.69z"/>
			<path class="st0" d="M494.87,552.55c-3.89,0-7.3-0.67-10.24-2c-2.94-1.33-5.43-3.09-7.45-5.29c-2.03-2.19-3.55-4.65-4.58-7.37
				c-1.03-2.72-1.54-5.49-1.54-8.33v-1.5c0-2.83,0.53-5.62,1.58-8.37c1.05-2.75,2.61-5.22,4.66-7.41c2.05-2.19,4.55-3.94,7.49-5.25
				c2.94-1.3,6.3-1.96,10.07-1.96c3.77,0,7.13,0.65,10.07,1.96c2.94,1.3,5.44,3.05,7.49,5.25c2.05,2.19,3.61,4.66,4.66,7.41
				c1.05,2.75,1.58,5.54,1.58,8.37v1.5c0,2.83-0.51,5.61-1.54,8.33c-1.03,2.72-2.55,5.18-4.58,7.37c-2.03,2.19-4.51,3.95-7.45,5.29
				C502.16,551.89,498.75,552.55,494.87,552.55z M494.87,545.39c3.33,0,6.17-0.74,8.53-2.21c2.36-1.47,4.16-3.46,5.41-5.95
				c1.25-2.5,1.87-5.3,1.87-8.41c0-3.16-0.64-5.99-1.92-8.49c-1.28-2.5-3.09-4.47-5.45-5.91c-2.36-1.44-5.18-2.16-8.45-2.16
				c-3.22,0-6.02,0.72-8.41,2.16c-2.39,1.44-4.22,3.41-5.5,5.91c-1.28,2.5-1.91,5.33-1.91,8.49c0,3.11,0.62,5.91,1.87,8.41
				c1.25,2.5,3.05,4.48,5.41,5.95C488.69,544.66,491.54,545.39,494.87,545.39z"/>
			<path class="st0" d="M570.13,552.55c-3.89,0-7.3-0.67-10.24-2c-2.94-1.33-5.43-3.09-7.45-5.29c-2.03-2.19-3.55-4.65-4.58-7.37
				c-1.03-2.72-1.54-5.49-1.54-8.33v-1.5c0-2.83,0.53-5.62,1.58-8.37c1.05-2.75,2.61-5.22,4.66-7.41c2.05-2.19,4.55-3.94,7.49-5.25
				c2.94-1.3,6.3-1.96,10.07-1.96c3.77,0,7.13,0.65,10.07,1.96c2.94,1.3,5.44,3.05,7.49,5.25c2.05,2.19,3.61,4.66,4.66,7.41
				c1.05,2.75,1.58,5.54,1.58,8.37v1.5c0,2.83-0.51,5.61-1.54,8.33c-1.03,2.72-2.55,5.18-4.58,7.37c-2.03,2.19-4.51,3.95-7.45,5.29
				C577.43,551.89,574.02,552.55,570.13,552.55z M570.13,545.39c3.33,0,6.17-0.74,8.53-2.21c2.36-1.47,4.16-3.46,5.41-5.95
				c1.25-2.5,1.87-5.3,1.87-8.41c0-3.16-0.64-5.99-1.92-8.49c-1.28-2.5-3.09-4.47-5.45-5.91c-2.36-1.44-5.18-2.16-8.45-2.16
				c-3.22,0-6.02,0.72-8.41,2.16c-2.39,1.44-4.22,3.41-5.5,5.91c-1.28,2.5-1.91,5.33-1.91,8.49c0,3.11,0.62,5.91,1.87,8.41
				c1.25,2.5,3.05,4.48,5.41,5.95C563.96,544.66,566.8,545.39,570.13,545.39z"/>
			<path class="st0" d="M605.93,551.05v-44.46h6.33v18.32h-0.33c0-6.49,1.43-11.25,4.29-14.28c2.86-3.02,7.15-4.54,12.86-4.54h1.5
				v7.16h-2.83c-4.44,0-7.85,1.18-10.24,3.54c-2.39,2.36-3.58,5.76-3.58,10.2v24.06H605.93z"/>
			<path class="st0" d="M656.88,568.37c-2.05,0-4.12-0.08-6.2-0.25s-4.07-0.39-5.95-0.67v-6.74c2,0.28,4.09,0.51,6.29,0.71
				c2.19,0.19,4.26,0.29,6.2,0.29c4.05,0,7.29-0.54,9.7-1.62c2.41-1.08,4.16-2.78,5.25-5.08c1.08-2.3,1.62-5.26,1.62-8.87v-8.49
				l2.66-6.33c-0.17,4.5-1.11,8.23-2.83,11.2c-1.72,2.97-3.95,5.19-6.7,6.66c-2.75,1.47-5.79,2.21-9.12,2.21
				c-3.11,0-5.95-0.6-8.53-1.79c-2.58-1.19-4.8-2.84-6.66-4.95c-1.86-2.11-3.3-4.54-4.33-7.29c-1.03-2.75-1.54-5.65-1.54-8.7v-1.5
				c0-3.11,0.53-6.01,1.58-8.7c1.05-2.69,2.53-5.04,4.41-7.04c1.89-2,4.15-3.55,6.79-4.66c2.64-1.11,5.54-1.67,8.7-1.67
				c3.72,0,6.99,0.79,9.82,2.37s5.06,3.89,6.7,6.91c1.64,3.03,2.54,6.73,2.71,11.11l-2.33,0.08v-18.98h6.33v39.21
				c0,5.33-0.82,9.64-2.46,12.95c-1.64,3.3-4.25,5.73-7.83,7.28C667.58,567.59,662.82,568.37,656.88,568.37z M659.3,544.06
				c2.66,0,5.09-0.58,7.29-1.75c2.19-1.17,3.94-2.84,5.25-5.04c1.3-2.19,1.96-4.81,1.96-7.87v-3.83c0-3-0.68-5.52-2.04-7.58
				c-1.36-2.05-3.12-3.61-5.29-4.66c-2.16-1.05-4.52-1.58-7.08-1.58c-2.89,0-5.44,0.67-7.66,2c-2.22,1.33-3.94,3.21-5.16,5.62
				c-1.22,2.41-1.83,5.26-1.83,8.53c0,3.28,0.62,6.13,1.87,8.58c1.25,2.44,2.97,4.32,5.16,5.62
				C653.96,543.41,656.47,544.06,659.3,544.06z"/>
			<path class="st0" d="M708.59,552.22c-3.33,0-6.2-0.57-8.62-1.71s-4.27-2.79-5.58-4.95c-1.31-2.16-1.96-4.77-1.96-7.83
				c0-3.16,0.71-5.8,2.12-7.91c1.42-2.11,3.48-3.71,6.2-4.79c2.72-1.08,5.99-1.62,9.82-1.62h12.07v5.99h-12.41
				c-3.22,0-5.69,0.78-7.41,2.33c-1.72,1.55-2.58,3.55-2.58,5.99c0,2.44,0.86,4.41,2.58,5.91c1.72,1.5,4.19,2.25,7.41,2.25
				c1.89,0,3.69-0.35,5.41-1.04c1.72-0.69,3.15-1.86,4.29-3.5c1.14-1.64,1.76-3.9,1.87-6.79l2.16,3.16
				c-0.28,3.16-1.04,5.81-2.29,7.95c-1.25,2.14-2.97,3.76-5.16,4.87C714.34,551.66,711.69,552.22,708.59,552.22z M723.16,551.05
				v-13.32h-1.33v-15.4c0-3.05-0.79-5.36-2.37-6.91c-1.58-1.55-3.9-2.33-6.95-2.33c-1.72,0-3.5,0.03-5.33,0.08
				c-1.83,0.06-3.58,0.11-5.25,0.17c-1.67,0.06-3.11,0.14-4.33,0.25v-6.99c1.22-0.11,2.51-0.21,3.87-0.29
				c1.36-0.08,2.76-0.14,4.2-0.17c1.44-0.03,2.83-0.04,4.16-0.04c4.55,0,8.27,0.54,11.16,1.62c2.89,1.08,5.02,2.85,6.41,5.29
				c1.39,2.44,2.08,5.74,2.08,9.91v28.14H723.16z"/>
			<path class="st0" d="M744.14,551.05v-44.46h6.33v19.07h-1c0-4.38,0.6-8.09,1.79-11.11c1.19-3.02,3.01-5.33,5.45-6.91
				c2.44-1.58,5.52-2.37,9.24-2.37h0.33c5.61,0,9.75,1.75,12.45,5.25c2.69,3.5,4.04,8.55,4.04,15.15v25.39h-7.99V524
				c0-3.44-0.97-6.2-2.91-8.28c-1.94-2.08-4.61-3.12-7.99-3.12c-3.5,0-6.33,1.08-8.49,3.25c-2.16,2.16-3.25,5.05-3.25,8.66v26.56
				H744.14z"/>
			<path class="st0" d="M792.76,512.92v-6.33h14.82v6.33H792.76z M801.83,499.43c-1.78,0-3.09-0.47-3.95-1.42
				c-0.86-0.94-1.29-2.14-1.29-3.58c0-1.44,0.43-2.64,1.29-3.58c0.86-0.94,2.18-1.42,3.95-1.42c1.78,0,3.09,0.47,3.95,1.42
				c0.86,0.94,1.29,2.14,1.29,3.58c0,1.44-0.43,2.64-1.29,3.58C804.93,498.96,803.61,499.43,801.83,499.43z M799.59,551.05v-44.46
				h7.99v44.46H799.59z"/>
			<path class="st0" d="M837.64,552.39c-5.83,0-10.34-1.25-13.53-3.75c-3.19-2.5-4.84-5.91-4.95-10.24h7.49
				c0.11,1.72,0.98,3.34,2.62,4.87c1.64,1.53,4.43,2.29,8.37,2.29c3.55,0,6.27-0.71,8.16-2.12c1.89-1.42,2.83-3.15,2.83-5.2
				c0-1.83-0.69-3.26-2.08-4.29c-1.39-1.03-3.64-1.71-6.74-2.04l-4.83-0.5c-4.22-0.44-7.66-1.71-10.32-3.79
				c-2.66-2.08-4-5.01-4-8.78c0-2.83,0.72-5.26,2.17-7.28c1.44-2.03,3.44-3.58,5.99-4.66c2.55-1.08,5.5-1.62,8.83-1.62
				c5,0,9.05,1.11,12.16,3.33c3.11,2.22,4.72,5.52,4.83,9.91h-7.49c-0.06-1.78-0.87-3.29-2.46-4.54c-1.58-1.25-3.93-1.87-7.04-1.87
				c-3.11,0-5.47,0.64-7.08,1.91c-1.61,1.28-2.41,2.89-2.41,4.83c0,1.67,0.57,3,1.71,4c1.14,1,3.01,1.64,5.62,1.91l4.83,0.5
				c4.77,0.5,8.6,1.82,11.49,3.95c2.89,2.14,4.33,5.15,4.33,9.03c0,2.78-0.79,5.23-2.37,7.37c-1.58,2.14-3.76,3.8-6.54,5
				C844.43,551.79,841.24,552.39,837.64,552.39z"/>
			<path class="st0" d="M867.69,551.05v-44.46h6.33v19.07h-1c0-4.33,0.57-8.01,1.71-11.03c1.14-3.02,2.84-5.34,5.12-6.95
				c2.28-1.61,5.16-2.41,8.66-2.41h0.33c3.5,0,6.4,0.81,8.7,2.41c2.3,1.61,4.01,3.93,5.12,6.95c1.11,3.03,1.67,6.7,1.67,11.03h-2.33
				c0-4.33,0.58-8.01,1.75-11.03c1.17-3.02,2.9-5.34,5.2-6.95c2.3-1.61,5.2-2.41,8.7-2.41h0.33c3.5,0,6.41,0.81,8.74,2.41
				c2.33,1.61,4.07,3.93,5.2,6.95c1.14,3.03,1.71,6.7,1.71,11.03v25.39h-7.99v-27.14c0-3.61-0.89-6.4-2.66-8.37
				c-1.78-1.97-4.25-2.96-7.41-2.96c-3.28,0-5.91,1.04-7.91,3.12c-2,2.08-3,4.98-3,8.7v26.64h-7.99v-27.14
				c0-3.61-0.89-6.4-2.66-8.37c-1.78-1.97-4.25-2.96-7.41-2.96c-3.28,0-5.91,1.04-7.91,3.12c-2,2.08-3,4.98-3,8.7v26.64H867.69z"/>
			<path class="st0" d="M968.76,552.55c-3.89,0-7.3-0.67-10.24-2c-2.94-1.33-5.43-3.09-7.45-5.29c-2.03-2.19-3.55-4.65-4.58-7.37
				c-1.03-2.72-1.54-5.49-1.54-8.33v-1.5c0-2.83,0.53-5.62,1.58-8.37c1.05-2.75,2.61-5.22,4.66-7.41c2.05-2.19,4.55-3.94,7.49-5.25
				c2.94-1.3,6.3-1.96,10.07-1.96c3.77,0,7.13,0.65,10.07,1.96c2.94,1.3,5.44,3.05,7.49,5.25c2.05,2.19,3.61,4.66,4.66,7.41
				c1.05,2.75,1.58,5.54,1.58,8.37v1.5c0,2.83-0.51,5.61-1.54,8.33c-1.03,2.72-2.55,5.18-4.58,7.37c-2.03,2.19-4.51,3.95-7.45,5.29
				C976.06,551.89,972.65,552.55,968.76,552.55z M968.76,545.39c3.33,0,6.17-0.74,8.53-2.21c2.36-1.47,4.16-3.46,5.41-5.95
				c1.25-2.5,1.87-5.3,1.87-8.41c0-3.16-0.64-5.99-1.92-8.49c-1.28-2.5-3.09-4.47-5.45-5.91c-2.36-1.44-5.18-2.16-8.45-2.16
				c-3.22,0-6.02,0.72-8.41,2.16c-2.39,1.44-4.22,3.41-5.5,5.91c-1.28,2.5-1.91,5.33-1.91,8.49c0,3.11,0.62,5.91,1.87,8.41
				c1.25,2.5,3.05,4.48,5.41,5.95C962.59,544.66,965.43,545.39,968.76,545.39z"/>
			<path class="st0" d="M1019.13,552.39c-5.83,0-10.34-1.25-13.53-3.75c-3.19-2.5-4.84-5.91-4.95-10.24h7.49
				c0.11,1.72,0.98,3.34,2.62,4.87c1.64,1.53,4.43,2.29,8.37,2.29c3.55,0,6.27-0.71,8.16-2.12c1.89-1.42,2.83-3.15,2.83-5.2
				c0-1.83-0.69-3.26-2.08-4.29c-1.39-1.03-3.64-1.71-6.74-2.04l-4.83-0.5c-4.22-0.44-7.66-1.71-10.32-3.79
				c-2.66-2.08-4-5.01-4-8.78c0-2.83,0.72-5.26,2.17-7.28c1.44-2.03,3.44-3.58,5.99-4.66c2.55-1.08,5.5-1.62,8.83-1.62
				c5,0,9.05,1.11,12.16,3.33c3.11,2.22,4.72,5.52,4.83,9.91h-7.49c-0.06-1.78-0.87-3.29-2.46-4.54c-1.58-1.25-3.93-1.87-7.04-1.87
				c-3.11,0-5.47,0.64-7.08,1.91c-1.61,1.28-2.41,2.89-2.41,4.83c0,1.67,0.57,3,1.71,4c1.14,1,3.01,1.64,5.62,1.91l4.83,0.5
				c4.77,0.5,8.6,1.82,11.49,3.95c2.89,2.14,4.33,5.15,4.33,9.03c0,2.78-0.79,5.23-2.37,7.37c-1.58,2.14-3.76,3.8-6.54,5
				C1025.93,551.79,1022.74,552.39,1019.13,552.39z"/>
			<path class="st0" d="M1077.66,551.05l-15.15-44.46h8.33l14.82,44.46H1077.66z M1079.66,551.05v-6.33h9.66v6.33H1079.66z
				 M1083.49,551.05l12.9-44.46h7.83l-13.15,44.46H1083.49z"/>
			<path class="st0" d="M1110.05,512.92v-6.33h14.82v6.33H1110.05z M1119.13,499.43c-1.78,0-3.09-0.47-3.95-1.42
				c-0.86-0.94-1.29-2.14-1.29-3.58c0-1.44,0.43-2.64,1.29-3.58c0.86-0.94,2.18-1.42,3.95-1.42c1.78,0,3.09,0.47,3.95,1.42
				c0.86,0.94,1.29,2.14,1.29,3.58c0,1.44-0.43,2.64-1.29,3.58C1122.22,498.96,1120.9,499.43,1119.13,499.43z M1116.88,551.05
				v-44.46h7.99v44.46H1116.88z"/>
			<path class="st0" d="M1149.85,551.05l-15.15-44.46h8.33l14.82,44.46H1149.85z M1151.85,551.05v-6.33h9.66v6.33H1151.85z
				 M1155.68,551.05l12.9-44.46h7.83l-13.15,44.46H1155.68z"/>
			<path class="st0" d="M1207.38,552.55c-3.89,0-7.3-0.67-10.24-2c-2.94-1.33-5.43-3.09-7.45-5.29c-2.03-2.19-3.55-4.65-4.58-7.37
				c-1.03-2.72-1.54-5.49-1.54-8.33v-1.5c0-2.83,0.53-5.62,1.58-8.37c1.05-2.75,2.61-5.22,4.66-7.41c2.05-2.19,4.55-3.94,7.49-5.25
				c2.94-1.3,6.3-1.96,10.07-1.96c3.77,0,7.13,0.65,10.07,1.96c2.94,1.3,5.44,3.05,7.49,5.25c2.05,2.19,3.61,4.66,4.66,7.41
				c1.05,2.75,1.58,5.54,1.58,8.37v1.5c0,2.83-0.51,5.61-1.54,8.33c-1.03,2.72-2.55,5.18-4.58,7.37c-2.03,2.19-4.51,3.95-7.45,5.29
				C1214.68,551.89,1211.26,552.55,1207.38,552.55z M1207.38,545.39c3.33,0,6.17-0.74,8.53-2.21c2.36-1.47,4.16-3.46,5.41-5.95
				c1.25-2.5,1.87-5.3,1.87-8.41c0-3.16-0.64-5.99-1.92-8.49c-1.28-2.5-3.09-4.47-5.45-5.91c-2.36-1.44-5.18-2.16-8.45-2.16
				c-3.22,0-6.02,0.72-8.41,2.16c-2.39,1.44-4.22,3.41-5.5,5.91c-1.28,2.5-1.91,5.33-1.91,8.49c0,3.11,0.62,5.91,1.87,8.41
				c1.25,2.5,3.05,4.48,5.41,5.95C1201.2,544.66,1204.05,545.39,1207.38,545.39z"/>
			<path class="st0" d="M1257.75,552.39c-5.83,0-10.34-1.25-13.53-3.75c-3.19-2.5-4.84-5.91-4.95-10.24h7.49
				c0.11,1.72,0.98,3.34,2.62,4.87c1.64,1.53,4.43,2.29,8.37,2.29c3.55,0,6.27-0.71,8.16-2.12c1.89-1.42,2.83-3.15,2.83-5.2
				c0-1.83-0.69-3.26-2.08-4.29c-1.39-1.03-3.64-1.71-6.74-2.04l-4.83-0.5c-4.22-0.44-7.66-1.71-10.32-3.79
				c-2.66-2.08-4-5.01-4-8.78c0-2.83,0.72-5.26,2.17-7.28c1.44-2.03,3.44-3.58,5.99-4.66c2.55-1.08,5.5-1.62,8.83-1.62
				c5,0,9.05,1.11,12.16,3.33c3.11,2.22,4.72,5.52,4.83,9.91h-7.49c-0.06-1.78-0.87-3.29-2.46-4.54c-1.58-1.25-3.93-1.87-7.04-1.87
				c-3.11,0-5.47,0.64-7.08,1.91c-1.61,1.28-2.41,2.89-2.41,4.83c0,1.67,0.57,3,1.71,4c1.14,1,3.01,1.64,5.62,1.91l4.83,0.5
				c4.77,0.5,8.6,1.82,11.49,3.95c2.89,2.14,4.33,5.15,4.33,9.03c0,2.78-0.79,5.23-2.37,7.37c-1.58,2.14-3.76,3.8-6.54,5
				C1264.55,551.79,1261.36,552.39,1257.75,552.39z"/>
			<path class="st0" d="M415.94,678.72v-29.89l3.16-6.33c-0.17,4.83-1.14,8.8-2.91,11.91c-1.78,3.11-4.07,5.41-6.87,6.91
				c-2.8,1.5-5.87,2.25-9.2,2.25c-3.16,0-6.06-0.61-8.7-1.83c-2.64-1.22-4.91-2.91-6.83-5.08c-1.92-2.16-3.4-4.65-4.45-7.45
				c-1.05-2.8-1.58-5.79-1.58-8.95v-1.5c0-3.16,0.53-6.11,1.58-8.83c1.05-2.72,2.55-5.12,4.5-7.2c1.94-2.08,4.25-3.7,6.91-4.87
				c2.66-1.17,5.63-1.75,8.91-1.75c3.77,0,7.09,0.81,9.95,2.41c2.86,1.61,5.12,3.94,6.79,6.99c1.67,3.05,2.58,6.77,2.75,11.16h-2.33
				V617.6h6.33v61.11H415.94z M401.54,656.24c2.72,0,5.19-0.61,7.41-1.83c2.22-1.22,4-2.98,5.33-5.29c1.33-2.3,2-5.01,2-8.12v-3.83
				c0-3.05-0.68-5.65-2.04-7.78c-1.36-2.14-3.16-3.77-5.41-4.91c-2.25-1.14-4.68-1.71-7.29-1.71c-3,0-5.62,0.69-7.87,2.08
				c-2.25,1.39-4,3.34-5.25,5.87c-1.25,2.53-1.87,5.45-1.87,8.78c0,3.33,0.64,6.26,1.91,8.78c1.28,2.53,3.05,4.48,5.33,5.87
				C396.07,655.54,398.65,656.24,401.54,656.24z"/>
			<path class="st0" d="M454.65,663.4c-5.27,0-9.33-1.72-12.16-5.16c-2.83-3.44-4.25-8.41-4.25-14.9v-25.81h7.99v27.39
				c0,3.5,0.94,6.23,2.83,8.2c1.89,1.97,4.44,2.96,7.66,2.96c3.33,0,6.05-1.07,8.16-3.21c2.11-2.14,3.16-5.06,3.16-8.78v-26.56h7.99
				v44.54h-6.33V643h1c0,4.39-0.58,8.09-1.75,11.11c-1.17,3.03-2.9,5.33-5.2,6.91c-2.3,1.58-5.23,2.37-8.78,2.37H454.65z"/>
			<path class="st0" d="M510.44,663.56c-3.89,0-7.24-0.67-10.07-2c-2.83-1.33-5.13-3.09-6.91-5.29c-1.78-2.19-3.09-4.65-3.95-7.37
				c-0.86-2.72-1.29-5.49-1.29-8.33v-1.5c0-2.89,0.43-5.69,1.29-8.41c0.86-2.72,2.18-5.17,3.95-7.37c1.78-2.19,4.04-3.94,6.79-5.25
				c2.75-1.3,5.98-1.96,9.7-1.96c4.83,0,8.81,1.04,11.95,3.12c3.13,2.08,5.47,4.76,6.99,8.03c1.53,3.28,2.29,6.77,2.29,10.49v3.58
				H491.7v-5.99h33.64l-1.83,3.25c0-3.16-0.5-5.9-1.5-8.2c-1-2.3-2.5-4.09-4.5-5.37c-2-1.28-4.52-1.91-7.58-1.91
				c-3.16,0-5.79,0.72-7.87,2.16c-2.08,1.44-3.64,3.41-4.66,5.91c-1.03,2.5-1.54,5.38-1.54,8.66c0,3.16,0.51,6.01,1.54,8.53
				c1.03,2.53,2.62,4.52,4.79,5.99c2.16,1.47,4.91,2.21,8.24,2.21c3.5,0,6.34-0.78,8.53-2.33c2.19-1.55,3.51-3.36,3.95-5.41h7.49
				c-0.61,3.05-1.83,5.69-3.66,7.91c-1.83,2.22-4.14,3.91-6.91,5.08C517.07,662.98,513.93,663.56,510.44,663.56z"/>
			<path class="st0" d="M561.47,678.72V617.6h6.33v19.23l-1.5-0.17c0.28-4.77,1.29-8.67,3.04-11.7c1.75-3.02,4.04-5.26,6.87-6.7
				c2.83-1.44,5.91-2.16,9.24-2.16c3.22,0,6.15,0.61,8.78,1.83c2.64,1.22,4.9,2.89,6.79,5c1.89,2.11,3.33,4.55,4.33,7.33
				c1,2.78,1.5,5.72,1.5,8.83v1.5c0,3.11-0.53,6.05-1.58,8.83c-1.06,2.78-2.54,5.22-4.45,7.33c-1.92,2.11-4.19,3.78-6.83,5
				c-2.64,1.22-5.54,1.83-8.7,1.83c-3.16,0-6.19-0.69-9.07-2.08c-2.89-1.39-5.27-3.63-7.16-6.74c-1.89-3.11-2.97-7.19-3.25-12.24
				l3.66,6.66v29.56H561.47z M584.04,656.57c3,0,5.61-0.71,7.83-2.12c2.22-1.42,3.94-3.38,5.16-5.91c1.22-2.53,1.83-5.42,1.83-8.7
				c0-3.33-0.61-6.24-1.83-8.74c-1.22-2.5-2.94-4.45-5.16-5.87c-2.22-1.42-4.83-2.12-7.83-2.12c-2.66,0-5.13,0.6-7.41,1.79
				c-2.28,1.19-4.09,2.91-5.45,5.16c-1.36,2.25-2.04,4.95-2.04,8.12V642c0,3.05,0.69,5.66,2.08,7.83c1.39,2.16,3.22,3.83,5.5,5
				C578.98,655.99,581.43,656.57,584.04,656.57z"/>
			<path class="st0" d="M618.84,662.06V617.6h6.33v18.32h-0.33c0-6.49,1.43-11.25,4.29-14.28c2.86-3.02,7.15-4.54,12.86-4.54h1.5
				v7.16h-2.83c-4.44,0-7.85,1.18-10.24,3.54c-2.39,2.36-3.58,5.76-3.58,10.2v24.06H618.84z"/>
			<path class="st0" d="M673.45,663.56c-3.89,0-7.3-0.67-10.24-2c-2.94-1.33-5.43-3.09-7.45-5.29c-2.03-2.19-3.55-4.65-4.58-7.37
				c-1.03-2.72-1.54-5.49-1.54-8.33v-1.5c0-2.83,0.53-5.62,1.58-8.37c1.05-2.75,2.61-5.22,4.66-7.41c2.05-2.19,4.55-3.94,7.49-5.25
				c2.94-1.3,6.3-1.96,10.07-1.96c3.77,0,7.13,0.65,10.07,1.96c2.94,1.3,5.44,3.05,7.49,5.25c2.05,2.19,3.61,4.66,4.66,7.41
				c1.05,2.75,1.58,5.54,1.58,8.37v1.5c0,2.83-0.51,5.61-1.54,8.33c-1.03,2.72-2.55,5.18-4.58,7.37c-2.03,2.19-4.51,3.95-7.45,5.29
				C680.75,662.9,677.34,663.56,673.45,663.56z M673.45,656.4c3.33,0,6.17-0.73,8.53-2.21c2.36-1.47,4.16-3.46,5.41-5.95
				c1.25-2.5,1.87-5.3,1.87-8.41c0-3.16-0.64-5.99-1.92-8.49c-1.28-2.5-3.09-4.47-5.45-5.91c-2.36-1.44-5.18-2.16-8.45-2.16
				c-3.22,0-6.02,0.72-8.41,2.16c-2.39,1.44-4.22,3.41-5.5,5.91c-1.28,2.5-1.91,5.33-1.91,8.49c0,3.11,0.62,5.91,1.87,8.41
				c1.25,2.5,3.05,4.48,5.41,5.95C667.28,655.67,670.12,656.4,673.45,656.4z"/>
			<path class="st0" d="M709.25,662.06V617.6h6.33v19.07h-1c0-4.33,0.57-8.01,1.71-11.03c1.14-3.02,2.84-5.34,5.12-6.95
				c2.28-1.61,5.16-2.41,8.66-2.41h0.33c3.5,0,6.4,0.81,8.7,2.41c2.3,1.61,4.01,3.93,5.12,6.95c1.11,3.03,1.67,6.7,1.67,11.03h-2.33
				c0-4.33,0.58-8.01,1.75-11.03c1.17-3.02,2.9-5.34,5.2-6.95c2.3-1.61,5.2-2.41,8.7-2.41h0.33c3.5,0,6.41,0.81,8.74,2.41
				c2.33,1.61,4.07,3.93,5.2,6.95c1.14,3.03,1.71,6.7,1.71,11.03v25.39h-7.99v-27.14c0-3.61-0.89-6.4-2.66-8.37
				c-1.78-1.97-4.25-2.96-7.41-2.96c-3.28,0-5.91,1.04-7.91,3.12c-2,2.08-3,4.98-3,8.7v26.64h-7.99v-27.14
				c0-3.61-0.89-6.4-2.66-8.37c-1.78-1.97-4.25-2.96-7.41-2.96c-3.28,0-5.91,1.04-7.91,3.12c-2,2.08-3,4.98-3,8.7v26.64H709.25z"/>
			<path class="st0" d="M810.33,663.56c-3.89,0-7.3-0.67-10.24-2c-2.94-1.33-5.43-3.09-7.45-5.29c-2.03-2.19-3.55-4.65-4.58-7.37
				c-1.03-2.72-1.54-5.49-1.54-8.33v-1.5c0-2.83,0.53-5.62,1.58-8.37c1.05-2.75,2.61-5.22,4.66-7.41c2.05-2.19,4.55-3.94,7.49-5.25
				c2.94-1.3,6.3-1.96,10.07-1.96c3.77,0,7.13,0.65,10.07,1.96c2.94,1.3,5.44,3.05,7.49,5.25c2.05,2.19,3.61,4.66,4.66,7.41
				c1.05,2.75,1.58,5.54,1.58,8.37v1.5c0,2.83-0.51,5.61-1.54,8.33c-1.03,2.72-2.55,5.18-4.58,7.37c-2.03,2.19-4.51,3.95-7.45,5.29
				C817.62,662.9,814.21,663.56,810.33,663.56z M810.33,656.4c3.33,0,6.17-0.73,8.53-2.21c2.36-1.47,4.16-3.46,5.41-5.95
				c1.25-2.5,1.87-5.3,1.87-8.41c0-3.16-0.64-5.99-1.92-8.49c-1.28-2.5-3.09-4.47-5.45-5.91c-2.36-1.44-5.18-2.16-8.45-2.16
				c-3.22,0-6.02,0.72-8.41,2.16c-2.39,1.44-4.22,3.41-5.5,5.91c-1.28,2.5-1.91,5.33-1.91,8.49c0,3.11,0.62,5.91,1.87,8.41
				c1.25,2.5,3.05,4.48,5.41,5.95C804.15,655.67,807,656.4,810.33,656.4z"/>
			<path class="st0" d="M855.62,662.06l-15.15-44.46h8.33l14.82,44.46H855.62z M857.62,662.06v-6.33h9.66v6.33H857.62z
				 M861.45,662.06l12.9-44.46h7.83l-13.15,44.46H861.45z"/>
			<path class="st0" d="M911.57,663.56c-3.89,0-7.24-0.67-10.07-2c-2.83-1.33-5.13-3.09-6.91-5.29c-1.78-2.19-3.09-4.65-3.95-7.37
				c-0.86-2.72-1.29-5.49-1.29-8.33v-1.5c0-2.89,0.43-5.69,1.29-8.41c0.86-2.72,2.18-5.17,3.95-7.37c1.78-2.19,4.04-3.94,6.79-5.25
				c2.75-1.3,5.98-1.96,9.7-1.96c4.83,0,8.81,1.04,11.95,3.12c3.13,2.08,5.47,4.76,6.99,8.03c1.53,3.28,2.29,6.77,2.29,10.49v3.58
				h-39.46v-5.99h33.64l-1.83,3.25c0-3.16-0.5-5.9-1.5-8.2c-1-2.3-2.5-4.09-4.5-5.37c-2-1.28-4.52-1.91-7.58-1.91
				c-3.16,0-5.79,0.72-7.87,2.16c-2.08,1.44-3.64,3.41-4.66,5.91c-1.03,2.5-1.54,5.38-1.54,8.66c0,3.16,0.51,6.01,1.54,8.53
				c1.03,2.53,2.62,4.52,4.79,5.99c2.16,1.47,4.91,2.21,8.24,2.21c3.5,0,6.34-0.78,8.53-2.33c2.19-1.55,3.51-3.36,3.95-5.41h7.49
				c-0.61,3.05-1.83,5.69-3.66,7.91c-1.83,2.22-4.14,3.91-6.91,5.08C918.2,662.98,915.06,663.56,911.57,663.56z"/>
			<path class="st0" d="M943.62,662.06V617.6h6.33v19.07h-1c0-4.33,0.57-8.01,1.71-11.03c1.14-3.02,2.84-5.34,5.12-6.95
				c2.28-1.61,5.16-2.41,8.66-2.41h0.33c3.5,0,6.4,0.81,8.7,2.41c2.3,1.61,4.01,3.93,5.12,6.95c1.11,3.03,1.67,6.7,1.67,11.03h-2.33
				c0-4.33,0.58-8.01,1.75-11.03c1.17-3.02,2.9-5.34,5.2-6.95c2.3-1.61,5.2-2.41,8.7-2.41h0.33c3.5,0,6.41,0.81,8.74,2.41
				c2.33,1.61,4.07,3.93,5.2,6.95c1.14,3.03,1.71,6.7,1.71,11.03v25.39h-7.99v-27.14c0-3.61-0.89-6.4-2.66-8.37
				c-1.78-1.97-4.25-2.96-7.41-2.96c-3.28,0-5.91,1.04-7.91,3.12c-2,2.08-3,4.98-3,8.7v26.64h-7.99v-27.14
				c0-3.61-0.89-6.4-2.66-8.37c-1.78-1.97-4.25-2.96-7.41-2.96c-3.28,0-5.91,1.04-7.91,3.12c-2,2.08-3,4.98-3,8.7v26.64H943.62z"/>
			<path class="st0" d="M1055.52,663.23c-3.33,0-6.2-0.57-8.62-1.71c-2.41-1.14-4.27-2.79-5.58-4.95c-1.31-2.16-1.96-4.77-1.96-7.83
				c0-3.16,0.71-5.8,2.12-7.91c1.42-2.11,3.48-3.7,6.2-4.79c2.72-1.08,5.99-1.62,9.82-1.62h12.07v5.99h-12.41
				c-3.22,0-5.69,0.78-7.41,2.33c-1.72,1.55-2.58,3.55-2.58,5.99c0,2.44,0.86,4.41,2.58,5.91c1.72,1.5,4.19,2.25,7.41,2.25
				c1.89,0,3.69-0.35,5.41-1.04c1.72-0.69,3.15-1.86,4.29-3.5c1.14-1.64,1.76-3.9,1.87-6.79l2.16,3.16
				c-0.28,3.16-1.04,5.81-2.29,7.95c-1.25,2.14-2.97,3.76-5.16,4.87C1061.28,662.67,1058.63,663.23,1055.52,663.23z M1070.09,662.06
				v-13.32h-1.33v-15.4c0-3.05-0.79-5.36-2.37-6.91c-1.58-1.55-3.9-2.33-6.95-2.33c-1.72,0-3.5,0.03-5.33,0.08
				c-1.83,0.06-3.58,0.11-5.25,0.17c-1.67,0.06-3.11,0.14-4.33,0.25v-6.99c1.22-0.11,2.51-0.21,3.87-0.29
				c1.36-0.08,2.76-0.14,4.2-0.17c1.44-0.03,2.83-0.04,4.16-0.04c4.55,0,8.27,0.54,11.16,1.62c2.89,1.08,5.02,2.84,6.41,5.29
				c1.39,2.44,2.08,5.74,2.08,9.91v28.14H1070.09z"/>
			<path class="st0" d="M1110.05,678.72V617.6h6.33v19.23l-1.5-0.17c0.28-4.77,1.29-8.67,3.04-11.7c1.75-3.02,4.04-5.26,6.87-6.7
				c2.83-1.44,5.91-2.16,9.24-2.16c3.22,0,6.15,0.61,8.78,1.83c2.64,1.22,4.9,2.89,6.79,5c1.89,2.11,3.33,4.55,4.33,7.33
				c1,2.78,1.5,5.72,1.5,8.83v1.5c0,3.11-0.53,6.05-1.58,8.83c-1.06,2.78-2.54,5.22-4.45,7.33c-1.92,2.11-4.19,3.78-6.83,5
				c-2.64,1.22-5.54,1.83-8.7,1.83c-3.16,0-6.19-0.69-9.07-2.08c-2.89-1.39-5.27-3.63-7.16-6.74c-1.89-3.11-2.97-7.19-3.25-12.24
				l3.66,6.66v29.56H1110.05z M1132.61,656.57c3,0,5.61-0.71,7.83-2.12c2.22-1.42,3.94-3.38,5.16-5.91c1.22-2.53,1.83-5.42,1.83-8.7
				c0-3.33-0.61-6.24-1.83-8.74c-1.22-2.5-2.94-4.45-5.16-5.87c-2.22-1.42-4.83-2.12-7.83-2.12c-2.66,0-5.13,0.6-7.41,1.79
				c-2.28,1.19-4.09,2.91-5.45,5.16c-1.36,2.25-2.04,4.95-2.04,8.12V642c0,3.05,0.69,5.66,2.08,7.83c1.39,2.16,3.22,3.83,5.5,5
				C1127.56,655.99,1130,656.57,1132.61,656.57z"/>
			<path class="st0" d="M1179.74,663.23c-3.33,0-6.2-0.57-8.62-1.71c-2.41-1.14-4.27-2.79-5.58-4.95c-1.31-2.16-1.96-4.77-1.96-7.83
				c0-3.16,0.71-5.8,2.12-7.91c1.42-2.11,3.48-3.7,6.2-4.79c2.72-1.08,5.99-1.62,9.82-1.62h12.07v5.99h-12.41
				c-3.22,0-5.69,0.78-7.41,2.33c-1.72,1.55-2.58,3.55-2.58,5.99c0,2.44,0.86,4.41,2.58,5.91c1.72,1.5,4.19,2.25,7.41,2.25
				c1.89,0,3.69-0.35,5.41-1.04c1.72-0.69,3.15-1.86,4.29-3.5c1.14-1.64,1.76-3.9,1.87-6.79l2.16,3.16
				c-0.28,3.16-1.04,5.81-2.29,7.95c-1.25,2.14-2.97,3.76-5.16,4.87C1185.49,662.67,1182.84,663.23,1179.74,663.23z M1194.31,662.06
				v-13.32h-1.33v-15.4c0-3.05-0.79-5.36-2.37-6.91c-1.58-1.55-3.9-2.33-6.95-2.33c-1.72,0-3.5,0.03-5.33,0.08
				c-1.83,0.06-3.58,0.11-5.25,0.17c-1.67,0.06-3.11,0.14-4.33,0.25v-6.99c1.22-0.11,2.51-0.21,3.87-0.29
				c1.36-0.08,2.76-0.14,4.2-0.17c1.44-0.03,2.83-0.04,4.16-0.04c4.55,0,8.27,0.54,11.16,1.62c2.89,1.08,5.02,2.84,6.41,5.29
				c1.39,2.44,2.08,5.74,2.08,9.91v28.14H1194.31z"/>
			<path class="st0" d="M1215.29,662.06V617.6h6.33v18.32h-0.33c0-6.49,1.43-11.25,4.29-14.28c2.86-3.02,7.15-4.54,12.86-4.54h1.5
				v7.16h-2.83c-4.44,0-7.85,1.18-10.24,3.54c-2.39,2.36-3.58,5.76-3.58,10.2v24.06H1215.29z"/>
			<path class="st0" d="M1242.93,623.6v-5.99h30.64v5.99H1242.93z M1266.74,662.56c-3.33,0-6.2-0.47-8.62-1.42
				c-2.41-0.94-4.27-2.57-5.58-4.87c-1.3-2.3-1.96-5.42-1.96-9.37v-42.79h7.66v43.79c0,2.39,0.65,4.23,1.96,5.54
				c1.3,1.3,3.15,1.96,5.54,1.96h7.83v7.16H1266.74z"/>
			<path class="st0" d="M1280.23,623.93v-6.33h14.82v6.33H1280.23z M1289.3,610.44c-1.78,0-3.09-0.47-3.95-1.42
				c-0.86-0.94-1.29-2.14-1.29-3.58c0-1.44,0.43-2.64,1.29-3.58c0.86-0.94,2.18-1.42,3.95-1.42c1.78,0,3.09,0.47,3.95,1.42
				c0.86,0.94,1.29,2.14,1.29,3.58c0,1.44-0.43,2.64-1.29,3.58C1292.4,609.97,1291.08,610.44,1289.3,610.44z M1287.05,662.06V617.6
				h7.99v44.46H1287.05z"/>
			<path class="st0" d="M1304.87,607.61v-6.33h14.15v6.33H1304.87z M1311.03,662.06v-60.78h7.99v60.78H1311.03z"/>
			<path class="st0" d="M1334.34,662.06v-60.78h7.99v36.3h-2c0-4.38,0.57-8.17,1.71-11.36c1.14-3.19,2.9-5.65,5.29-7.37
				c2.39-1.72,5.44-2.58,9.16-2.58h0.33c5.33,0,9.35,1.76,12.07,5.29c2.72,3.53,4.08,8.56,4.08,15.11v25.39h-7.99v-27.06
				c0-3.61-1.01-6.41-3.04-8.41c-2.03-2-4.65-3-7.87-3c-3.55,0-6.4,1.18-8.53,3.54c-2.14,2.36-3.21,5.45-3.21,9.28v25.64H1334.34z"
				/>
			<path class="st0" d="M1399.95,663.23c-3.33,0-6.2-0.57-8.62-1.71c-2.41-1.14-4.27-2.79-5.58-4.95c-1.31-2.16-1.96-4.77-1.96-7.83
				c0-3.16,0.71-5.8,2.12-7.91c1.42-2.11,3.48-3.7,6.2-4.79c2.72-1.08,5.99-1.62,9.82-1.62h12.07v5.99h-12.41
				c-3.22,0-5.69,0.78-7.41,2.33c-1.72,1.55-2.58,3.55-2.58,5.99c0,2.44,0.86,4.41,2.58,5.91c1.72,1.5,4.19,2.25,7.41,2.25
				c1.89,0,3.69-0.35,5.41-1.04c1.72-0.69,3.15-1.86,4.29-3.5c1.14-1.64,1.76-3.9,1.87-6.79l2.16,3.16
				c-0.28,3.16-1.04,5.81-2.29,7.95c-1.25,2.14-2.97,3.76-5.16,4.87C1405.71,662.67,1403.06,663.23,1399.95,663.23z M1414.52,662.06
				v-13.32h-1.33v-15.4c0-3.05-0.79-5.36-2.37-6.91c-1.58-1.55-3.9-2.33-6.95-2.33c-1.72,0-3.5,0.03-5.33,0.08
				c-1.83,0.06-3.58,0.11-5.25,0.17c-1.67,0.06-3.11,0.14-4.33,0.25v-6.99c1.22-0.11,2.51-0.21,3.87-0.29
				c1.36-0.08,2.76-0.14,4.2-0.17c1.44-0.03,2.83-0.04,4.16-0.04c4.55,0,8.27,0.54,11.16,1.62c2.89,1.08,5.02,2.84,6.41,5.29
				c1.39,2.44,2.08,5.74,2.08,9.91v28.14H1414.52z"/>
			<path class="st0" d="M1436.42,675.14l-6.41-2.41l7.74-21.48l6.58,2.5L1436.42,675.14z"/>
			<path class="st0" d="M394.21,774.24c-3.33,0-6.2-0.57-8.62-1.71s-4.27-2.79-5.58-4.95c-1.31-2.16-1.96-4.77-1.96-7.83
				c0-3.16,0.71-5.8,2.12-7.91c1.42-2.11,3.48-3.7,6.2-4.79c2.72-1.08,5.99-1.62,9.82-1.62h12.07v5.99h-12.41
				c-3.22,0-5.69,0.78-7.41,2.33c-1.72,1.55-2.58,3.55-2.58,5.99c0,2.44,0.86,4.41,2.58,5.91c1.72,1.5,4.19,2.25,7.41,2.25
				c1.89,0,3.69-0.35,5.41-1.04c1.72-0.69,3.15-1.86,4.29-3.5c1.14-1.64,1.76-3.9,1.87-6.79l2.16,3.16
				c-0.28,3.16-1.04,5.81-2.29,7.95c-1.25,2.14-2.97,3.76-5.16,4.87C399.97,773.68,397.32,774.24,394.21,774.24z M408.78,773.07
				v-13.32h-1.33v-15.4c0-3.05-0.79-5.36-2.37-6.91c-1.58-1.55-3.9-2.33-6.95-2.33c-1.72,0-3.5,0.03-5.33,0.08
				c-1.83,0.06-3.58,0.11-5.25,0.17c-1.67,0.06-3.11,0.14-4.33,0.25v-6.99c1.22-0.11,2.51-0.21,3.87-0.29
				c1.36-0.08,2.76-0.14,4.2-0.17c1.44-0.03,2.83-0.04,4.16-0.04c4.55,0,8.27,0.54,11.16,1.62c2.89,1.08,5.02,2.84,6.41,5.29
				c1.39,2.44,2.08,5.74,2.08,9.91v28.14H408.78z"/>
			<path class="st0" d="M467.81,774.57c-3.83,0-7.15-0.67-9.95-2c-2.8-1.33-5.12-3.12-6.95-5.37c-1.83-2.25-3.21-4.73-4.12-7.45
				c-0.92-2.72-1.37-5.44-1.37-8.16v-1.5c0-2.83,0.46-5.61,1.37-8.33c0.92-2.72,2.3-5.18,4.16-7.37c1.86-2.19,4.18-3.95,6.95-5.29
				c2.77-1.33,6.02-2,9.74-2c3.72,0,7.06,0.69,10.03,2.08c2.97,1.39,5.36,3.34,7.16,5.87c1.8,2.53,2.82,5.51,3.04,8.95h-7.66
				c-0.39-2.77-1.67-5.09-3.83-6.95c-2.16-1.86-5.08-2.79-8.74-2.79c-3.16,0-5.8,0.72-7.91,2.17c-2.11,1.44-3.69,3.41-4.75,5.91
				c-1.05,2.5-1.58,5.33-1.58,8.49c0,3.05,0.53,5.84,1.58,8.37c1.05,2.53,2.65,4.52,4.79,5.99c2.14,1.47,4.81,2.21,8.03,2.21
				c2.5,0,4.66-0.44,6.49-1.33c1.83-0.89,3.3-2.08,4.41-3.58c1.11-1.5,1.78-3.19,2-5.08h7.66c-0.17,3.5-1.18,6.52-3.04,9.07
				c-1.86,2.55-4.3,4.54-7.33,5.95C474.98,773.87,471.58,774.57,467.81,774.57z"/>
			<path class="st0" d="M519.68,774.57c-3.89,0-7.3-0.67-10.24-2c-2.94-1.33-5.43-3.09-7.45-5.29c-2.03-2.19-3.55-4.65-4.58-7.37
				c-1.03-2.72-1.54-5.5-1.54-8.33v-1.5c0-2.83,0.53-5.62,1.58-8.37c1.05-2.75,2.61-5.22,4.66-7.41c2.05-2.19,4.55-3.94,7.49-5.25
				c2.94-1.3,6.3-1.96,10.07-1.96c3.77,0,7.13,0.65,10.07,1.96c2.94,1.3,5.44,3.05,7.49,5.25c2.05,2.19,3.61,4.66,4.66,7.41
				c1.05,2.75,1.58,5.54,1.58,8.37v1.5c0,2.83-0.51,5.61-1.54,8.33c-1.03,2.72-2.55,5.18-4.58,7.37c-2.03,2.19-4.51,3.95-7.45,5.29
				C526.97,773.91,523.56,774.57,519.68,774.57z M519.68,767.41c3.33,0,6.17-0.73,8.53-2.21c2.36-1.47,4.16-3.46,5.41-5.95
				c1.25-2.5,1.87-5.3,1.87-8.41c0-3.16-0.64-5.99-1.92-8.49c-1.28-2.5-3.09-4.47-5.45-5.91c-2.36-1.44-5.18-2.17-8.45-2.17
				c-3.22,0-6.02,0.72-8.41,2.17c-2.39,1.44-4.22,3.41-5.5,5.91c-1.28,2.5-1.91,5.33-1.91,8.49c0,3.11,0.62,5.91,1.87,8.41
				c1.25,2.5,3.05,4.48,5.41,5.95C513.5,766.68,516.35,767.41,519.68,767.41z"/>
			<path class="st0" d="M549.82,718.62v-6.33h14.15v6.33H549.82z M555.98,773.07V712.3h7.99v60.78H555.98z"/>
			<path class="st0" d="M591.61,774.24c-3.33,0-6.2-0.57-8.62-1.71s-4.27-2.79-5.58-4.95c-1.31-2.16-1.96-4.77-1.96-7.83
				c0-3.16,0.71-5.8,2.12-7.91c1.42-2.11,3.48-3.7,6.2-4.79c2.72-1.08,5.99-1.62,9.82-1.62h12.07v5.99h-12.41
				c-3.22,0-5.69,0.78-7.41,2.33c-1.72,1.55-2.58,3.55-2.58,5.99c0,2.44,0.86,4.41,2.58,5.91c1.72,1.5,4.19,2.25,7.41,2.25
				c1.89,0,3.69-0.35,5.41-1.04c1.72-0.69,3.15-1.86,4.29-3.5c1.14-1.64,1.76-3.9,1.87-6.79l2.16,3.16
				c-0.28,3.16-1.04,5.81-2.29,7.95c-1.25,2.14-2.97,3.76-5.16,4.87C597.37,773.68,594.72,774.24,591.61,774.24z M606.18,773.07
				v-13.32h-1.33v-15.4c0-3.05-0.79-5.36-2.37-6.91c-1.58-1.55-3.9-2.33-6.95-2.33c-1.72,0-3.5,0.03-5.33,0.08
				c-1.83,0.06-3.58,0.11-5.25,0.17c-1.67,0.06-3.11,0.14-4.33,0.25v-6.99c1.22-0.11,2.51-0.21,3.87-0.29
				c1.36-0.08,2.76-0.14,4.2-0.17c1.44-0.03,2.83-0.04,4.16-0.04c4.55,0,8.27,0.54,11.16,1.62c2.89,1.08,5.02,2.84,6.41,5.29
				c1.39,2.44,2.08,5.74,2.08,9.91v28.14H606.18z"/>
			<path class="st0" d="M650.64,774.57c-3.66,0-6.92-0.81-9.78-2.41c-2.86-1.61-5.12-3.95-6.79-7.04
				c-1.67-3.08-2.58-6.79-2.75-11.11h2.16v19.07h-6.33V712.3h7.99v29.56l-2.83,6.08c0.22-4.83,1.19-8.77,2.91-11.82
				c1.72-3.05,3.98-5.31,6.79-6.79c2.8-1.47,5.9-2.21,9.28-2.21c3.16,0,6.05,0.6,8.66,1.79c2.61,1.19,4.86,2.83,6.74,4.91
				c1.89,2.08,3.33,4.5,4.33,7.24s1.5,5.7,1.5,8.87v1.5c0,3.16-0.51,6.13-1.54,8.91c-1.03,2.78-2.51,5.23-4.45,7.37
				c-1.94,2.14-4.26,3.82-6.95,5.04C656.9,773.96,653.91,774.57,650.64,774.57z M649.72,767.58c3,0,5.61-0.72,7.83-2.16
				c2.22-1.44,3.94-3.43,5.16-5.95c1.22-2.52,1.83-5.45,1.83-8.78c0-3.33-0.62-6.24-1.87-8.74c-1.25-2.5-2.98-4.43-5.2-5.79
				c-2.22-1.36-4.8-2.04-7.74-2.04c-2.66,0-5.13,0.6-7.41,1.79c-2.28,1.19-4.09,2.91-5.45,5.16c-1.36,2.25-2.04,4.95-2.04,8.12v3.83
				c0,3.05,0.69,5.66,2.08,7.83c1.39,2.16,3.22,3.83,5.5,5C644.67,767,647.11,767.58,649.72,767.58z"/>
			<path class="st0" d="M705.01,774.57c-3.89,0-7.3-0.67-10.24-2c-2.94-1.33-5.43-3.09-7.45-5.29c-2.03-2.19-3.55-4.65-4.58-7.37
				c-1.03-2.72-1.54-5.5-1.54-8.33v-1.5c0-2.83,0.53-5.62,1.58-8.37c1.05-2.75,2.61-5.22,4.66-7.41c2.05-2.19,4.55-3.94,7.49-5.25
				c2.94-1.3,6.3-1.96,10.07-1.96c3.77,0,7.13,0.65,10.07,1.96c2.94,1.3,5.44,3.05,7.49,5.25c2.05,2.19,3.61,4.66,4.66,7.41
				c1.05,2.75,1.58,5.54,1.58,8.37v1.5c0,2.83-0.51,5.61-1.54,8.33c-1.03,2.72-2.55,5.18-4.58,7.37c-2.03,2.19-4.51,3.95-7.45,5.29
				C712.3,773.91,708.89,774.57,705.01,774.57z M705.01,767.41c3.33,0,6.17-0.73,8.53-2.21c2.36-1.47,4.16-3.46,5.41-5.95
				c1.25-2.5,1.87-5.3,1.87-8.41c0-3.16-0.64-5.99-1.92-8.49c-1.28-2.5-3.09-4.47-5.45-5.91c-2.36-1.44-5.18-2.17-8.45-2.17
				c-3.22,0-6.02,0.72-8.41,2.17c-2.39,1.44-4.22,3.41-5.5,5.91c-1.28,2.5-1.91,5.33-1.91,8.49c0,3.11,0.62,5.91,1.87,8.41
				c1.25,2.5,3.05,4.48,5.41,5.95C698.83,766.68,701.68,767.41,705.01,767.41z"/>
			<path class="st0" d="M740.81,773.07v-44.46h6.33v18.32h-0.33c0-6.49,1.43-11.25,4.29-14.28c2.86-3.02,7.15-4.54,12.86-4.54h1.5
				v7.16h-2.83c-4.44,0-7.85,1.18-10.24,3.54c-2.39,2.36-3.58,5.76-3.58,10.2v24.06H740.81z"/>
			<path class="st0" d="M787.26,774.24c-3.33,0-6.2-0.57-8.62-1.71s-4.27-2.79-5.58-4.95c-1.31-2.16-1.96-4.77-1.96-7.83
				c0-3.16,0.71-5.8,2.12-7.91c1.42-2.11,3.48-3.7,6.2-4.79c2.72-1.08,5.99-1.62,9.82-1.62h12.07v5.99h-12.41
				c-3.22,0-5.69,0.78-7.41,2.33c-1.72,1.55-2.58,3.55-2.58,5.99c0,2.44,0.86,4.41,2.58,5.91c1.72,1.5,4.19,2.25,7.41,2.25
				c1.89,0,3.69-0.35,5.41-1.04c1.72-0.69,3.15-1.86,4.29-3.5c1.14-1.64,1.76-3.9,1.87-6.79l2.16,3.16
				c-0.28,3.16-1.04,5.81-2.29,7.95c-1.25,2.14-2.97,3.76-5.16,4.87C793.02,773.68,790.37,774.24,787.26,774.24z M801.83,773.07
				v-13.32h-1.33v-15.4c0-3.05-0.79-5.36-2.37-6.91c-1.58-1.55-3.9-2.33-6.95-2.33c-1.72,0-3.5,0.03-5.33,0.08
				c-1.83,0.06-3.58,0.11-5.25,0.17c-1.67,0.06-3.11,0.14-4.33,0.25v-6.99c1.22-0.11,2.51-0.21,3.87-0.29
				c1.36-0.08,2.76-0.14,4.2-0.17c1.44-0.03,2.83-0.04,4.16-0.04c4.55,0,8.27,0.54,11.16,1.62c2.89,1.08,5.02,2.84,6.41,5.29
				c1.39,2.44,2.08,5.74,2.08,9.91v28.14H801.83z"/>
			<path class="st0" d="M841.88,774.57c-3.83,0-7.15-0.67-9.95-2c-2.8-1.33-5.12-3.12-6.95-5.37c-1.83-2.25-3.21-4.73-4.12-7.45
				c-0.92-2.72-1.37-5.44-1.37-8.16v-1.5c0-2.83,0.46-5.61,1.37-8.33c0.92-2.72,2.3-5.18,4.16-7.37c1.86-2.19,4.18-3.95,6.95-5.29
				c2.77-1.33,6.02-2,9.74-2c3.72,0,7.06,0.69,10.03,2.08c2.97,1.39,5.36,3.34,7.16,5.87c1.8,2.53,2.82,5.51,3.04,8.95h-7.66
				c-0.39-2.77-1.67-5.09-3.83-6.95c-2.16-1.86-5.08-2.79-8.74-2.79c-3.16,0-5.8,0.72-7.91,2.17c-2.11,1.44-3.69,3.41-4.75,5.91
				c-1.05,2.5-1.58,5.33-1.58,8.49c0,3.05,0.53,5.84,1.58,8.37c1.05,2.53,2.65,4.52,4.79,5.99c2.14,1.47,4.81,2.21,8.03,2.21
				c2.5,0,4.66-0.44,6.49-1.33c1.83-0.89,3.3-2.08,4.41-3.58c1.11-1.5,1.78-3.19,2-5.08h7.66c-0.17,3.5-1.18,6.52-3.04,9.07
				c-1.86,2.55-4.3,4.54-7.33,5.95C849.05,773.87,845.65,774.57,841.88,774.57z M841.21,793.22c-1.06,0-2.07-0.07-3.04-0.21
				c-0.97-0.14-1.85-0.32-2.62-0.54v-5.33c0.78,0.22,1.68,0.4,2.71,0.54c1.03,0.14,2.01,0.21,2.96,0.21c1.78,0,3.08-0.29,3.91-0.87
				s1.25-1.32,1.25-2.21c0-0.89-0.35-1.6-1.04-2.12c-0.69-0.53-1.85-0.79-3.46-0.79h-3.16v-9.66h4.83v7.91l-3.41-3.08h1.33
				c3.16,0,5.72,0.65,7.66,1.96c1.94,1.3,2.91,3.18,2.91,5.62c0,2.39-0.96,4.41-2.87,6.08C847.25,792.39,844.6,793.22,841.21,793.22
				z"/>
			<path class="st0" d="M885.59,774.24c-3.33,0-6.2-0.57-8.62-1.71s-4.27-2.79-5.58-4.95c-1.31-2.16-1.96-4.77-1.96-7.83
				c0-3.16,0.71-5.8,2.12-7.91c1.42-2.11,3.48-3.7,6.2-4.79c2.72-1.08,5.99-1.62,9.82-1.62h12.07v5.99h-12.41
				c-3.22,0-5.69,0.78-7.41,2.33c-1.72,1.55-2.58,3.55-2.58,5.99c0,2.44,0.86,4.41,2.58,5.91c1.72,1.5,4.19,2.25,7.41,2.25
				c1.89,0,3.69-0.35,5.41-1.04c1.72-0.69,3.15-1.86,4.29-3.5c1.14-1.64,1.76-3.9,1.87-6.79l2.16,3.16
				c-0.28,3.16-1.04,5.81-2.29,7.95c-1.25,2.14-2.97,3.76-5.16,4.87C891.35,773.68,888.7,774.24,885.59,774.24z M900.16,773.07
				v-13.32h-1.33v-15.4c0-3.05-0.79-5.36-2.37-6.91c-1.58-1.55-3.9-2.33-6.95-2.33c-1.72,0-3.5,0.03-5.33,0.08
				c-1.83,0.06-3.58,0.11-5.25,0.17c-1.67,0.06-3.11,0.14-4.33,0.25v-6.99c1.22-0.11,2.51-0.21,3.87-0.29
				c1.36-0.08,2.76-0.14,4.2-0.17c1.44-0.03,2.83-0.04,4.16-0.04c4.55,0,8.27,0.54,11.16,1.62c2.89,1.08,5.02,2.84,6.41,5.29
				c1.39,2.44,2.08,5.74,2.08,9.91v28.14H900.16z M894.5,719.71c-1.39,0-2.58-0.21-3.58-0.62c-1-0.42-1.92-0.9-2.75-1.46
				c-0.83-0.55-1.67-1.04-2.5-1.46c-0.83-0.42-1.78-0.62-2.83-0.62c-1.17,0-2.23,0.29-3.21,0.87c-0.97,0.58-1.85,1.37-2.62,2.37
				l-1.33-5.33c0.83-1.05,1.87-1.94,3.12-2.66c1.25-0.72,2.68-1.08,4.29-1.08c1.39,0,2.58,0.21,3.58,0.62c1,0.42,1.92,0.9,2.75,1.46
				c0.83,0.56,1.67,1.04,2.5,1.46c0.83,0.42,1.78,0.62,2.83,0.62c1.17,0,2.25-0.29,3.25-0.87c1-0.58,1.89-1.37,2.66-2.37l1.33,5.33
				c-0.83,1.05-1.89,1.94-3.16,2.66C897.55,719.35,896.11,719.71,894.5,719.71z"/>
			<path class="st0" d="M941.62,774.57c-3.89,0-7.3-0.67-10.24-2c-2.94-1.33-5.43-3.09-7.45-5.29c-2.03-2.19-3.55-4.65-4.58-7.37
				c-1.03-2.72-1.54-5.5-1.54-8.33v-1.5c0-2.83,0.53-5.62,1.58-8.37c1.05-2.75,2.61-5.22,4.66-7.41c2.05-2.19,4.55-3.94,7.49-5.25
				c2.94-1.3,6.3-1.96,10.07-1.96c3.77,0,7.13,0.65,10.07,1.96c2.94,1.3,5.44,3.05,7.49,5.25c2.05,2.19,3.61,4.66,4.66,7.41
				c1.05,2.75,1.58,5.54,1.58,8.37v1.5c0,2.83-0.51,5.61-1.54,8.33c-1.03,2.72-2.55,5.18-4.58,7.37c-2.03,2.19-4.51,3.95-7.45,5.29
				C948.92,773.91,945.51,774.57,941.62,774.57z M941.62,767.41c3.33,0,6.17-0.73,8.53-2.21c2.36-1.47,4.16-3.46,5.41-5.95
				c1.25-2.5,1.87-5.3,1.87-8.41c0-3.16-0.64-5.99-1.92-8.49c-1.28-2.5-3.09-4.47-5.45-5.91c-2.36-1.44-5.18-2.17-8.45-2.17
				c-3.22,0-6.02,0.72-8.41,2.17c-2.39,1.44-4.22,3.41-5.5,5.91c-1.28,2.5-1.91,5.33-1.91,8.49c0,3.11,0.62,5.91,1.87,8.41
				c1.25,2.5,3.05,4.48,5.41,5.95C935.45,766.68,938.29,767.41,941.62,767.41z"/>
			<path class="st0" d="M1015.3,774.57c-3.89,0-7.24-0.67-10.07-2c-2.83-1.33-5.13-3.09-6.91-5.29c-1.78-2.19-3.09-4.65-3.95-7.37
				c-0.86-2.72-1.29-5.5-1.29-8.33v-1.5c0-2.89,0.43-5.69,1.29-8.41c0.86-2.72,2.18-5.18,3.95-7.37c1.78-2.19,4.04-3.94,6.79-5.25
				c2.75-1.3,5.98-1.96,9.7-1.96c4.83,0,8.81,1.04,11.95,3.12c3.13,2.08,5.47,4.76,6.99,8.03c1.53,3.28,2.29,6.77,2.29,10.49v3.58
				h-39.46v-5.99h33.64l-1.83,3.25c0-3.16-0.5-5.9-1.5-8.2c-1-2.3-2.5-4.09-4.5-5.37c-2-1.28-4.52-1.92-7.58-1.92
				c-3.16,0-5.79,0.72-7.87,2.17c-2.08,1.44-3.64,3.41-4.66,5.91c-1.03,2.5-1.54,5.38-1.54,8.66c0,3.16,0.51,6.01,1.54,8.53
				c1.03,2.53,2.62,4.52,4.79,5.99c2.16,1.47,4.91,2.21,8.24,2.21c3.5,0,6.34-0.78,8.53-2.33c2.19-1.55,3.51-3.36,3.95-5.41h7.49
				c-0.61,3.05-1.83,5.69-3.66,7.91c-1.83,2.22-4.14,3.91-6.91,5.08C1021.94,773.99,1018.8,774.57,1015.3,774.57z"/>
			<path class="st0" d="M1078.66,774.24c-3.33,0-6.2-0.57-8.62-1.71s-4.27-2.79-5.58-4.95c-1.31-2.16-1.96-4.77-1.96-7.83
				c0-3.16,0.71-5.8,2.12-7.91c1.42-2.11,3.48-3.7,6.2-4.79c2.72-1.08,5.99-1.62,9.82-1.62h12.07v5.99h-12.41
				c-3.22,0-5.69,0.78-7.41,2.33c-1.72,1.55-2.58,3.55-2.58,5.99c0,2.44,0.86,4.41,2.58,5.91c1.72,1.5,4.19,2.25,7.41,2.25
				c1.89,0,3.69-0.35,5.41-1.04c1.72-0.69,3.15-1.86,4.29-3.5c1.14-1.64,1.76-3.9,1.87-6.79l2.16,3.16
				c-0.28,3.16-1.04,5.81-2.29,7.95c-1.25,2.14-2.97,3.76-5.16,4.87C1084.42,773.68,1081.77,774.24,1078.66,774.24z M1093.23,773.07
				v-13.32h-1.33v-15.4c0-3.05-0.79-5.36-2.37-6.91c-1.58-1.55-3.9-2.33-6.95-2.33c-1.72,0-3.5,0.03-5.33,0.08
				c-1.83,0.06-3.58,0.11-5.25,0.17c-1.67,0.06-3.11,0.14-4.33,0.25v-6.99c1.22-0.11,2.51-0.21,3.87-0.29
				c1.36-0.08,2.76-0.14,4.2-0.17c1.44-0.03,2.83-0.04,4.16-0.04c4.55,0,8.27,0.54,11.16,1.62c2.89,1.08,5.02,2.84,6.41,5.29
				c1.39,2.44,2.08,5.74,2.08,9.91v28.14H1093.23z"/>
			<path class="st0" d="M1133.2,789.73v-61.11h6.33v19.23l-1.5-0.17c0.28-4.77,1.29-8.67,3.04-11.7c1.75-3.02,4.04-5.26,6.87-6.7
				c2.83-1.44,5.91-2.17,9.24-2.17c3.22,0,6.15,0.61,8.78,1.83c2.64,1.22,4.9,2.89,6.79,5c1.89,2.11,3.33,4.55,4.33,7.33
				c1,2.78,1.5,5.72,1.5,8.83v1.5c0,3.11-0.53,6.05-1.58,8.83c-1.06,2.78-2.54,5.22-4.45,7.33c-1.92,2.11-4.19,3.78-6.83,5
				c-2.64,1.22-5.54,1.83-8.7,1.83c-3.16,0-6.19-0.69-9.07-2.08c-2.89-1.39-5.27-3.63-7.16-6.74c-1.89-3.11-2.97-7.19-3.25-12.24
				l3.66,6.66v29.56H1133.2z M1155.76,767.58c3,0,5.61-0.71,7.83-2.12c2.22-1.42,3.94-3.39,5.16-5.91c1.22-2.53,1.83-5.42,1.83-8.7
				c0-3.33-0.61-6.24-1.83-8.74c-1.22-2.5-2.94-4.45-5.16-5.87c-2.22-1.42-4.83-2.12-7.83-2.12c-2.66,0-5.13,0.6-7.41,1.79
				c-2.28,1.19-4.09,2.91-5.45,5.16c-1.36,2.25-2.04,4.95-2.04,8.12v3.83c0,3.05,0.69,5.66,2.08,7.83c1.39,2.16,3.22,3.83,5.5,5
				C1150.71,767,1153.15,767.58,1155.76,767.58z"/>
			<path class="st0" d="M1202.88,774.24c-3.33,0-6.2-0.57-8.62-1.71s-4.27-2.79-5.58-4.95c-1.31-2.16-1.96-4.77-1.96-7.83
				c0-3.16,0.71-5.8,2.12-7.91c1.42-2.11,3.48-3.7,6.2-4.79c2.72-1.08,5.99-1.62,9.82-1.62h12.07v5.99h-12.41
				c-3.22,0-5.69,0.78-7.41,2.33c-1.72,1.55-2.58,3.55-2.58,5.99c0,2.44,0.86,4.41,2.58,5.91c1.72,1.5,4.19,2.25,7.41,2.25
				c1.89,0,3.69-0.35,5.41-1.04c1.72-0.69,3.15-1.86,4.29-3.5c1.14-1.64,1.76-3.9,1.87-6.79l2.16,3.16
				c-0.28,3.16-1.04,5.81-2.29,7.95c-1.25,2.14-2.97,3.76-5.16,4.87C1208.64,773.68,1205.99,774.24,1202.88,774.24z M1217.45,773.07
				v-13.32h-1.33v-15.4c0-3.05-0.79-5.36-2.37-6.91c-1.58-1.55-3.9-2.33-6.95-2.33c-1.72,0-3.5,0.03-5.33,0.08
				c-1.83,0.06-3.58,0.11-5.25,0.17c-1.67,0.06-3.11,0.14-4.33,0.25v-6.99c1.22-0.11,2.51-0.21,3.87-0.29
				c1.36-0.08,2.76-0.14,4.2-0.17c1.44-0.03,2.83-0.04,4.16-0.04c4.55,0,8.27,0.54,11.16,1.62c2.89,1.08,5.02,2.84,6.41,5.29
				c1.39,2.44,2.08,5.74,2.08,9.91v28.14H1217.45z"/>
			<path class="st0" d="M1238.43,773.07v-44.46h6.33v18.32h-0.33c0-6.49,1.43-11.25,4.29-14.28c2.86-3.02,7.15-4.54,12.86-4.54h1.5
				v7.16h-2.83c-4.44,0-7.85,1.18-10.24,3.54c-2.39,2.36-3.58,5.76-3.58,10.2v24.06H1238.43z"/>
			<path class="st0" d="M1266.07,734.61v-5.99h30.64v5.99H1266.07z M1289.89,773.57c-3.33,0-6.2-0.47-8.62-1.42
				c-2.41-0.94-4.27-2.57-5.58-4.87c-1.3-2.3-1.96-5.42-1.96-9.37v-42.79h7.66v43.79c0,2.39,0.65,4.23,1.96,5.54
				c1.3,1.3,3.15,1.96,5.54,1.96h7.83v7.16H1289.89z"/>
			<path class="st0" d="M1303.37,734.94v-6.33h14.82v6.33H1303.37z M1312.45,721.45c-1.78,0-3.09-0.47-3.95-1.42
				c-0.86-0.94-1.29-2.14-1.29-3.58c0-1.44,0.43-2.64,1.29-3.58c0.86-0.94,2.18-1.42,3.95-1.42c1.78,0,3.09,0.47,3.95,1.42
				c0.86,0.94,1.29,2.14,1.29,3.58c0,1.44-0.43,2.64-1.29,3.58C1315.54,720.98,1314.22,721.45,1312.45,721.45z M1310.2,773.07
				v-44.46h7.99v44.46H1310.2z"/>
			<path class="st0" d="M1352.74,774.57c-3.83,0-7.15-0.67-9.95-2c-2.8-1.33-5.12-3.12-6.95-5.37c-1.83-2.25-3.21-4.73-4.12-7.45
				c-0.92-2.72-1.37-5.44-1.37-8.16v-1.5c0-2.83,0.46-5.61,1.37-8.33c0.92-2.72,2.3-5.18,4.16-7.37c1.86-2.19,4.18-3.95,6.95-5.29
				c2.77-1.33,6.02-2,9.74-2c3.72,0,7.06,0.69,10.03,2.08c2.97,1.39,5.36,3.34,7.16,5.87c1.8,2.53,2.82,5.51,3.04,8.95h-7.66
				c-0.39-2.77-1.67-5.09-3.83-6.95c-2.16-1.86-5.08-2.79-8.74-2.79c-3.16,0-5.8,0.72-7.91,2.17c-2.11,1.44-3.69,3.41-4.75,5.91
				c-1.05,2.5-1.58,5.33-1.58,8.49c0,3.05,0.53,5.84,1.58,8.37c1.05,2.53,2.65,4.52,4.79,5.99c2.14,1.47,4.81,2.21,8.03,2.21
				c2.5,0,4.66-0.44,6.49-1.33c1.83-0.89,3.3-2.08,4.41-3.58c1.11-1.5,1.78-3.19,2-5.08h7.66c-0.17,3.5-1.18,6.52-3.04,9.07
				c-1.86,2.55-4.3,4.54-7.33,5.95C1359.92,773.87,1356.52,774.57,1352.74,774.57z"/>
			<path class="st0" d="M1379.47,734.94v-6.33h14.82v6.33H1379.47z M1388.54,721.45c-1.78,0-3.09-0.47-3.95-1.42
				c-0.86-0.94-1.29-2.14-1.29-3.58c0-1.44,0.43-2.64,1.29-3.58c0.86-0.94,2.18-1.42,3.95-1.42c1.78,0,3.09,0.47,3.95,1.42
				c0.86,0.94,1.29,2.14,1.29,3.58c0,1.44-0.43,2.64-1.29,3.58C1391.64,720.98,1390.32,721.45,1388.54,721.45z M1386.3,773.07
				v-44.46h7.99v44.46H1386.3z"/>
			<path class="st0" d="M1409.77,789.73v-61.11h6.33v19.23l-1.5-0.17c0.28-4.77,1.29-8.67,3.04-11.7c1.75-3.02,4.04-5.26,6.87-6.7
				c2.83-1.44,5.91-2.17,9.24-2.17c3.22,0,6.15,0.61,8.78,1.83c2.64,1.22,4.9,2.89,6.79,5c1.89,2.11,3.33,4.55,4.33,7.33
				c1,2.78,1.5,5.72,1.5,8.83v1.5c0,3.11-0.53,6.05-1.58,8.83c-1.06,2.78-2.54,5.22-4.45,7.33c-1.92,2.11-4.19,3.78-6.83,5
				c-2.64,1.22-5.54,1.83-8.7,1.83c-3.16,0-6.19-0.69-9.07-2.08c-2.89-1.39-5.27-3.63-7.16-6.74c-1.89-3.11-2.97-7.19-3.25-12.24
				l3.66,6.66v29.56H1409.77z M1432.34,767.58c3,0,5.61-0.71,7.83-2.12c2.22-1.42,3.94-3.39,5.16-5.91c1.22-2.53,1.83-5.42,1.83-8.7
				c0-3.33-0.61-6.24-1.83-8.74c-1.22-2.5-2.94-4.45-5.16-5.87c-2.22-1.42-4.83-2.12-7.83-2.12c-2.66,0-5.13,0.6-7.41,1.79
				c-2.28,1.19-4.09,2.91-5.45,5.16c-1.36,2.25-2.04,4.95-2.04,8.12v3.83c0,3.05,0.69,5.66,2.08,7.83c1.39,2.16,3.22,3.83,5.5,5
				C1427.29,767,1429.73,767.58,1432.34,767.58z"/>
			<path class="st0" d="M1479.46,774.24c-3.33,0-6.2-0.57-8.62-1.71s-4.27-2.79-5.58-4.95c-1.31-2.16-1.96-4.77-1.96-7.83
				c0-3.16,0.71-5.8,2.12-7.91c1.42-2.11,3.48-3.7,6.2-4.79c2.72-1.08,5.99-1.62,9.82-1.62h12.07v5.99h-12.41
				c-3.22,0-5.69,0.78-7.41,2.33c-1.72,1.55-2.58,3.55-2.58,5.99c0,2.44,0.86,4.41,2.58,5.91c1.72,1.5,4.19,2.25,7.41,2.25
				c1.89,0,3.69-0.35,5.41-1.04c1.72-0.69,3.15-1.86,4.29-3.5c1.14-1.64,1.76-3.9,1.87-6.79l2.16,3.16
				c-0.28,3.16-1.04,5.81-2.29,7.95c-1.25,2.14-2.97,3.76-5.16,4.87C1485.22,773.68,1482.57,774.24,1479.46,774.24z M1494.03,773.07
				v-13.32h-1.33v-15.4c0-3.05-0.79-5.36-2.37-6.91c-1.58-1.55-3.9-2.33-6.95-2.33c-1.72,0-3.5,0.03-5.33,0.08
				c-1.83,0.06-3.58,0.11-5.25,0.17c-1.67,0.06-3.11,0.14-4.33,0.25v-6.99c1.22-0.11,2.51-0.21,3.87-0.29
				c1.36-0.08,2.76-0.14,4.2-0.17c1.44-0.03,2.83-0.04,4.16-0.04c4.55,0,8.27,0.54,11.16,1.62c2.89,1.08,5.02,2.84,6.41,5.29
				c1.39,2.44,2.08,5.74,2.08,9.91v28.14H1494.03z"/>
			<path class="st0" d="M1534.08,774.57c-3.83,0-7.15-0.67-9.95-2c-2.8-1.33-5.12-3.12-6.95-5.37c-1.83-2.25-3.21-4.73-4.12-7.45
				c-0.92-2.72-1.37-5.44-1.37-8.16v-1.5c0-2.83,0.46-5.61,1.37-8.33c0.92-2.72,2.3-5.18,4.16-7.37c1.86-2.19,4.18-3.95,6.95-5.29
				c2.77-1.33,6.02-2,9.74-2c3.72,0,7.06,0.69,10.03,2.08c2.97,1.39,5.36,3.34,7.16,5.87c1.8,2.53,2.82,5.51,3.04,8.95h-7.66
				c-0.39-2.77-1.67-5.09-3.83-6.95c-2.16-1.86-5.08-2.79-8.74-2.79c-3.16,0-5.8,0.72-7.91,2.17c-2.11,1.44-3.69,3.41-4.75,5.91
				c-1.05,2.5-1.58,5.33-1.58,8.49c0,3.05,0.53,5.84,1.58,8.37c1.05,2.53,2.65,4.52,4.79,5.99c2.14,1.47,4.81,2.21,8.03,2.21
				c2.5,0,4.66-0.44,6.49-1.33c1.83-0.89,3.3-2.08,4.41-3.58c1.11-1.5,1.78-3.19,2-5.08h7.66c-0.17,3.5-1.18,6.52-3.04,9.07
				c-1.86,2.55-4.3,4.54-7.33,5.95C1541.25,773.87,1537.85,774.57,1534.08,774.57z M1533.41,793.22c-1.06,0-2.07-0.07-3.04-0.21
				c-0.97-0.14-1.85-0.32-2.62-0.54v-5.33c0.78,0.22,1.68,0.4,2.71,0.54c1.03,0.14,2.01,0.21,2.96,0.21c1.78,0,3.08-0.29,3.91-0.87
				s1.25-1.32,1.25-2.21c0-0.89-0.35-1.6-1.04-2.12c-0.69-0.53-1.85-0.79-3.46-0.79h-3.16v-9.66h4.83v7.91l-3.41-3.08h1.33
				c3.16,0,5.72,0.65,7.66,1.96c1.94,1.3,2.91,3.18,2.91,5.62c0,2.39-0.96,4.41-2.87,6.08
				C1539.45,792.39,1536.8,793.22,1533.41,793.22z"/>
			<path class="st0" d="M1577.79,774.24c-3.33,0-6.2-0.57-8.62-1.71s-4.27-2.79-5.58-4.95c-1.31-2.16-1.96-4.77-1.96-7.83
				c0-3.16,0.71-5.8,2.12-7.91c1.42-2.11,3.48-3.7,6.2-4.79c2.72-1.08,5.99-1.62,9.82-1.62h12.07v5.99h-12.41
				c-3.22,0-5.69,0.78-7.41,2.33c-1.72,1.55-2.58,3.55-2.58,5.99c0,2.44,0.86,4.41,2.58,5.91c1.72,1.5,4.19,2.25,7.41,2.25
				c1.89,0,3.69-0.35,5.41-1.04c1.72-0.69,3.15-1.86,4.29-3.5c1.14-1.64,1.76-3.9,1.87-6.79l2.16,3.16
				c-0.28,3.16-1.04,5.81-2.29,7.95c-1.25,2.14-2.97,3.76-5.16,4.87C1583.54,773.68,1580.89,774.24,1577.79,774.24z M1592.36,773.07
				v-13.32h-1.33v-15.4c0-3.05-0.79-5.36-2.37-6.91c-1.58-1.55-3.9-2.33-6.95-2.33c-1.72,0-3.5,0.03-5.33,0.08
				c-1.83,0.06-3.58,0.11-5.25,0.17c-1.67,0.06-3.11,0.14-4.33,0.25v-6.99c1.22-0.11,2.51-0.21,3.87-0.29
				c1.36-0.08,2.76-0.14,4.2-0.17c1.44-0.03,2.83-0.04,4.16-0.04c4.55,0,8.27,0.54,11.16,1.62c2.89,1.08,5.02,2.84,6.41,5.29
				c1.39,2.44,2.08,5.74,2.08,9.91v28.14H1592.36z M1586.7,719.71c-1.39,0-2.58-0.21-3.58-0.62c-1-0.42-1.92-0.9-2.75-1.46
				c-0.83-0.55-1.67-1.04-2.5-1.46c-0.83-0.42-1.78-0.62-2.83-0.62c-1.17,0-2.23,0.29-3.21,0.87c-0.97,0.58-1.85,1.37-2.62,2.37
				l-1.33-5.33c0.83-1.05,1.87-1.94,3.12-2.66c1.25-0.72,2.68-1.08,4.29-1.08c1.39,0,2.58,0.21,3.58,0.62c1,0.42,1.92,0.9,2.75,1.46
				c0.83,0.56,1.67,1.04,2.5,1.46c0.83,0.42,1.78,0.62,2.83,0.62c1.17,0,2.25-0.29,3.25-0.87c1-0.58,1.89-1.37,2.66-2.37l1.33,5.33
				c-0.83,1.05-1.89,1.94-3.16,2.66C1589.75,719.35,1588.3,719.71,1586.7,719.71z"/>
			<path class="st0" d="M1633.82,774.57c-3.89,0-7.3-0.67-10.24-2c-2.94-1.33-5.43-3.09-7.45-5.29c-2.03-2.19-3.55-4.65-4.58-7.37
				c-1.03-2.72-1.54-5.5-1.54-8.33v-1.5c0-2.83,0.53-5.62,1.58-8.37c1.05-2.75,2.61-5.22,4.66-7.41c2.05-2.19,4.55-3.94,7.49-5.25
				c2.94-1.3,6.3-1.96,10.07-1.96c3.77,0,7.13,0.65,10.07,1.96c2.94,1.3,5.44,3.05,7.49,5.25c2.05,2.19,3.61,4.66,4.66,7.41
				c1.05,2.75,1.58,5.54,1.58,8.37v1.5c0,2.83-0.51,5.61-1.54,8.33c-1.03,2.72-2.55,5.18-4.58,7.37c-2.03,2.19-4.51,3.95-7.45,5.29
				C1641.12,773.91,1637.7,774.57,1633.82,774.57z M1633.82,767.41c3.33,0,6.17-0.73,8.53-2.21c2.36-1.47,4.16-3.46,5.41-5.95
				c1.25-2.5,1.87-5.3,1.87-8.41c0-3.16-0.64-5.99-1.92-8.49c-1.28-2.5-3.09-4.47-5.45-5.91c-2.36-1.44-5.18-2.17-8.45-2.17
				c-3.22,0-6.02,0.72-8.41,2.17c-2.39,1.44-4.22,3.41-5.5,5.91c-1.28,2.5-1.91,5.33-1.91,8.49c0,3.11,0.62,5.91,1.87,8.41
				c1.25,2.5,3.05,4.48,5.41,5.95C1627.64,766.68,1630.49,767.41,1633.82,767.41z"/>
			<path class="st0" d="M1668.04,773.07v-10.16h9.66v10.16H1668.04z"/>
		</g>
	</g>
</g>
</svg>
