<?xml version="1.0" encoding="utf-8"?>
<!-- Generator: Adobe Illustrator 27.2.0, SVG Export Plug-In . SVG Version: 6.00 Build 0)  -->
<svg version="1.1" id="Camada_1" xmlns="http://www.w3.org/2000/svg" xmlns:xlink="http://www.w3.org/1999/xlink" x="0px" y="0px"
	 viewBox="0 0 1920 1080" style="enable-background:new 0 0 1920 1080;" xml:space="preserve">
<style type="text/css">
	.st0{fill:#F3EEE2;}
	.st1{fill:#F7BD4B;}
	.st2{fill:#C29DE0;}
	.st3{fill:#BC9ECB;}
	.st4{fill:none;}
	.st5{clip-path:url(#SVGID_00000078025000362616691580000014020985128311173020_);}
	.st6{fill:#87A6D2;}
	.st7{fill:#7CAA92;}
	.st8{fill:#FFFFFF;}
</style>
<rect class="st1" width="1920" height="1080"/>
<g>
	<g>
		<path class="st0" d="M307.81,409.67l21.9-60.78h13.82l22.56,60.78h-8.41l-20.4-55.45l4,2h-9.82l4.25-2l-19.73,55.45H307.81z
			 M320.88,391.52l2.75-7.33h26.23l2.75,7.33H320.88z"/>
		<path class="st0" d="M395.15,411.17c-3.83,0-7.15-0.67-9.95-2c-2.8-1.33-5.12-3.12-6.95-5.37c-1.83-2.25-3.21-4.73-4.12-7.45
			c-0.92-2.72-1.37-5.44-1.37-8.16v-1.5c0-2.83,0.46-5.61,1.37-8.33c0.92-2.72,2.3-5.17,4.16-7.37c1.86-2.19,4.18-3.95,6.95-5.29
			c2.77-1.33,6.02-2,9.74-2c3.72,0,7.06,0.69,10.03,2.08c2.97,1.39,5.36,3.34,7.16,5.87c1.8,2.53,2.82,5.51,3.04,8.95h-7.66
			c-0.39-2.77-1.67-5.09-3.83-6.95c-2.16-1.86-5.08-2.79-8.74-2.79c-3.16,0-5.8,0.72-7.91,2.16c-2.11,1.44-3.69,3.41-4.75,5.91
			c-1.05,2.5-1.58,5.33-1.58,8.49c0,3.05,0.53,5.84,1.58,8.37c1.05,2.53,2.65,4.52,4.79,5.99c2.14,1.47,4.81,2.21,8.03,2.21
			c2.5,0,4.66-0.44,6.49-1.33c1.83-0.89,3.3-2.08,4.41-3.58c1.11-1.5,1.78-3.19,2-5.08h7.66c-0.17,3.5-1.18,6.52-3.04,9.08
			c-1.86,2.55-4.3,4.54-7.33,5.95C402.32,410.46,398.92,411.17,395.15,411.17z"/>
		<path class="st0" d="M426.53,409.67v-44.46h6.33v18.32h-0.33c0-6.49,1.43-11.25,4.29-14.28c2.86-3.02,7.15-4.54,12.86-4.54h1.5
			v7.16h-2.83c-4.44,0-7.85,1.18-10.24,3.54c-2.39,2.36-3.58,5.76-3.58,10.2v24.06H426.53z"/>
		<path class="st0" d="M479.57,411.17c-3.89,0-7.24-0.67-10.07-2c-2.83-1.33-5.13-3.09-6.91-5.29c-1.78-2.19-3.09-4.65-3.95-7.37
			c-0.86-2.72-1.29-5.5-1.29-8.33v-1.5c0-2.89,0.43-5.69,1.29-8.41c0.86-2.72,2.18-5.18,3.95-7.37c1.78-2.19,4.04-3.94,6.79-5.25
			c2.75-1.3,5.98-1.96,9.7-1.96c4.83,0,8.81,1.04,11.95,3.12c3.13,2.08,5.47,4.76,6.99,8.03c1.53,3.28,2.29,6.77,2.29,10.49v3.58
			h-39.46v-5.99h33.64l-1.83,3.25c0-3.16-0.5-5.9-1.5-8.2c-1-2.3-2.5-4.09-4.5-5.37c-2-1.28-4.52-1.92-7.58-1.92
			c-3.16,0-5.79,0.72-7.87,2.17c-2.08,1.44-3.64,3.41-4.66,5.91c-1.03,2.5-1.54,5.38-1.54,8.66c0,3.16,0.51,6.01,1.54,8.53
			c1.03,2.53,2.62,4.52,4.79,5.99c2.16,1.47,4.91,2.21,8.24,2.21c3.5,0,6.34-0.78,8.53-2.33c2.19-1.55,3.51-3.36,3.95-5.41h7.49
			c-0.61,3.05-1.83,5.69-3.66,7.91c-1.83,2.22-4.14,3.91-6.91,5.08C486.2,410.59,483.06,411.17,479.57,411.17z"/>
		<path class="st0" d="M530.19,411.17c-3.16,0-6.08-0.58-8.74-1.75c-2.66-1.17-4.98-2.8-6.95-4.91c-1.97-2.11-3.5-4.55-4.58-7.33
			c-1.08-2.77-1.62-5.77-1.62-8.99v-1.5c0-3.16,0.53-6.13,1.58-8.91c1.05-2.77,2.54-5.22,4.45-7.33c1.91-2.11,4.19-3.76,6.83-4.95
			c2.64-1.19,5.56-1.79,8.78-1.79c3.38,0,6.47,0.71,9.24,2.12c2.77,1.42,5.05,3.62,6.83,6.62c1.78,3,2.77,6.88,3,11.66l-3.33-5.33
			v-29.89h7.99v60.78h-6.33v-19.73h2.33c-0.22,5.05-1.28,9.15-3.16,12.28c-1.89,3.14-4.26,5.41-7.12,6.83
			C536.53,410.46,533.46,411.17,530.19,411.17z M531.27,404.18c2.72,0,5.19-0.61,7.41-1.83c2.22-1.22,4-2.98,5.33-5.29
			c1.33-2.3,2-5.01,2-8.12v-3.83c0-3.05-0.68-5.65-2.04-7.78c-1.36-2.14-3.16-3.77-5.41-4.91c-2.25-1.14-4.7-1.71-7.37-1.71
			c-2.94,0-5.54,0.69-7.78,2.08c-2.25,1.39-4,3.33-5.25,5.83c-1.25,2.5-1.87,5.44-1.87,8.83c0,3.39,0.64,6.34,1.91,8.87
			c1.28,2.53,3.05,4.47,5.33,5.83C525.8,403.5,528.38,404.18,531.27,404.18z"/>
		<path class="st0" d="M564.32,371.54v-6.33h14.82v6.33H564.32z M573.4,358.05c-1.78,0-3.09-0.47-3.95-1.42
			c-0.86-0.94-1.29-2.14-1.29-3.58c0-1.44,0.43-2.64,1.29-3.58c0.86-0.94,2.18-1.42,3.95-1.42c1.78,0,3.09,0.47,3.95,1.42
			c0.86,0.94,1.29,2.14,1.29,3.58c0,1.44-0.43,2.64-1.29,3.58C576.49,357.58,575.17,358.05,573.4,358.05z M571.15,409.67v-44.46
			h7.99v44.46H571.15z"/>
		<path class="st0" d="M588.13,371.21v-5.99h30.64v5.99H588.13z M611.95,410.17c-3.33,0-6.2-0.47-8.62-1.42
			c-2.41-0.94-4.27-2.57-5.58-4.87c-1.3-2.3-1.96-5.42-1.96-9.37v-42.79h7.66v43.79c0,2.39,0.65,4.23,1.96,5.54
			c1.3,1.3,3.15,1.96,5.54,1.96h7.83v7.16H611.95z"/>
		<path class="st0" d="M642.42,410.84c-3.33,0-6.2-0.57-8.62-1.71c-2.41-1.14-4.27-2.79-5.58-4.95c-1.31-2.17-1.96-4.77-1.96-7.83
			c0-3.16,0.71-5.8,2.12-7.91c1.42-2.11,3.48-3.71,6.2-4.79c2.72-1.08,5.99-1.62,9.82-1.62h12.07v5.99h-12.41
			c-3.22,0-5.69,0.78-7.41,2.33c-1.72,1.55-2.58,3.55-2.58,5.99c0,2.44,0.86,4.41,2.58,5.91c1.72,1.5,4.19,2.25,7.41,2.25
			c1.89,0,3.69-0.35,5.41-1.04c1.72-0.69,3.15-1.86,4.29-3.5c1.14-1.64,1.76-3.9,1.87-6.79l2.16,3.16
			c-0.28,3.16-1.04,5.81-2.29,7.95c-1.25,2.14-2.97,3.76-5.16,4.87C648.18,410.28,645.53,410.84,642.42,410.84z M656.99,409.67
			v-13.32h-1.33v-15.4c0-3.05-0.79-5.36-2.37-6.91c-1.58-1.55-3.9-2.33-6.95-2.33c-1.72,0-3.5,0.03-5.33,0.08
			c-1.83,0.06-3.58,0.11-5.25,0.17c-1.67,0.06-3.11,0.14-4.33,0.25v-6.99c1.22-0.11,2.51-0.21,3.87-0.29
			c1.36-0.08,2.76-0.14,4.2-0.17c1.44-0.03,2.83-0.04,4.16-0.04c4.55,0,8.27,0.54,11.16,1.62c2.89,1.08,5.02,2.85,6.41,5.29
			c1.39,2.44,2.08,5.74,2.08,9.91v28.14H656.99z"/>
		<path class="st0" d="M677.97,409.67v-44.46h6.33v19.07h-1c0-4.33,0.57-8.01,1.71-11.03c1.14-3.02,2.84-5.34,5.12-6.95
			c2.28-1.61,5.16-2.41,8.66-2.41h0.33c3.5,0,6.4,0.81,8.7,2.41c2.3,1.61,4.01,3.93,5.12,6.95c1.11,3.03,1.67,6.7,1.67,11.03h-2.33
			c0-4.33,0.58-8.01,1.75-11.03c1.17-3.02,2.9-5.34,5.2-6.95c2.3-1.61,5.2-2.41,8.7-2.41h0.33c3.5,0,6.41,0.81,8.74,2.41
			c2.33,1.61,4.07,3.93,5.2,6.95c1.14,3.03,1.71,6.7,1.71,11.03v25.39h-7.99v-27.14c0-3.61-0.89-6.4-2.66-8.37
			c-1.78-1.97-4.25-2.96-7.41-2.96c-3.28,0-5.91,1.04-7.91,3.12c-2,2.08-3,4.98-3,8.7v26.64h-7.99v-27.14c0-3.61-0.89-6.4-2.66-8.37
			c-1.78-1.97-4.25-2.96-7.41-2.96c-3.28,0-5.91,1.04-7.91,3.12c-2,2.08-3,4.98-3,8.7v26.64H677.97z"/>
		<path class="st0" d="M779.04,411.17c-3.89,0-7.3-0.67-10.24-2c-2.94-1.33-5.43-3.09-7.45-5.29c-2.03-2.19-3.55-4.65-4.58-7.37
			c-1.03-2.72-1.54-5.5-1.54-8.33v-1.5c0-2.83,0.53-5.62,1.58-8.37c1.05-2.75,2.61-5.22,4.66-7.41c2.05-2.19,4.55-3.94,7.49-5.25
			c2.94-1.3,6.3-1.96,10.07-1.96c3.77,0,7.13,0.65,10.07,1.96c2.94,1.3,5.44,3.05,7.49,5.25c2.05,2.19,3.61,4.66,4.66,7.41
			c1.05,2.75,1.58,5.54,1.58,8.37v1.5c0,2.83-0.51,5.61-1.54,8.33c-1.03,2.72-2.55,5.18-4.58,7.37c-2.03,2.19-4.51,3.95-7.45,5.29
			C786.34,410.5,782.93,411.17,779.04,411.17z M779.04,404.01c3.33,0,6.17-0.73,8.53-2.21c2.36-1.47,4.16-3.46,5.41-5.95
			c1.25-2.5,1.87-5.3,1.87-8.41c0-3.16-0.64-5.99-1.92-8.49c-1.28-2.5-3.09-4.47-5.45-5.91c-2.36-1.44-5.18-2.16-8.45-2.16
			c-3.22,0-6.02,0.72-8.41,2.16c-2.39,1.44-4.22,3.41-5.5,5.91c-1.28,2.5-1.91,5.33-1.91,8.49c0,3.11,0.62,5.91,1.87,8.41
			c1.25,2.5,3.05,4.48,5.41,5.95C772.87,403.27,775.71,404.01,779.04,404.01z"/>
		<path class="st0" d="M829.41,411c-5.83,0-10.34-1.25-13.53-3.75c-3.19-2.5-4.84-5.91-4.95-10.24h7.49
			c0.11,1.72,0.98,3.34,2.62,4.87c1.64,1.53,4.43,2.29,8.37,2.29c3.55,0,6.27-0.71,8.16-2.12c1.89-1.42,2.83-3.15,2.83-5.2
			c0-1.83-0.69-3.26-2.08-4.29c-1.39-1.03-3.64-1.71-6.74-2.04l-4.83-0.5c-4.22-0.44-7.66-1.71-10.32-3.79c-2.66-2.08-4-5.01-4-8.78
			c0-2.83,0.72-5.26,2.17-7.29c1.44-2.03,3.44-3.58,5.99-4.66c2.55-1.08,5.5-1.62,8.83-1.62c5,0,9.05,1.11,12.16,3.33
			c3.11,2.22,4.72,5.52,4.83,9.91h-7.49c-0.06-1.78-0.87-3.29-2.46-4.54c-1.58-1.25-3.93-1.87-7.04-1.87
			c-3.11,0-5.47,0.64-7.08,1.92c-1.61,1.28-2.41,2.89-2.41,4.83c0,1.67,0.57,3,1.71,4c1.14,1,3.01,1.64,5.62,1.92l4.83,0.5
			c4.77,0.5,8.6,1.82,11.49,3.95c2.89,2.14,4.33,5.15,4.33,9.03c0,2.78-0.79,5.23-2.37,7.37c-1.58,2.14-3.76,3.8-6.54,5
			C836.21,410.41,833.02,411,829.41,411z"/>
		<path class="st0" d="M912.5,426.32v-29.89l3.16-6.33c-0.17,4.83-1.14,8.8-2.91,11.91c-1.78,3.11-4.07,5.41-6.87,6.91
			c-2.8,1.5-5.87,2.25-9.2,2.25c-3.16,0-6.06-0.61-8.7-1.83c-2.64-1.22-4.91-2.91-6.83-5.08c-1.92-2.16-3.4-4.65-4.45-7.45
			c-1.05-2.8-1.58-5.79-1.58-8.95v-1.5c0-3.16,0.53-6.1,1.58-8.83c1.05-2.72,2.55-5.12,4.5-7.2c1.94-2.08,4.25-3.71,6.91-4.87
			c2.66-1.17,5.63-1.75,8.91-1.75c3.77,0,7.09,0.81,9.95,2.41c2.86,1.61,5.12,3.94,6.79,6.99c1.67,3.05,2.58,6.77,2.75,11.16h-2.33
			v-19.07h6.33v61.11H912.5z M898.1,403.84c2.72,0,5.19-0.61,7.41-1.83c2.22-1.22,4-2.98,5.33-5.29c1.33-2.3,2-5.01,2-8.12v-3.83
			c0-3.05-0.68-5.65-2.04-7.78c-1.36-2.14-3.16-3.77-5.41-4.91c-2.25-1.14-4.68-1.71-7.29-1.71c-3,0-5.62,0.69-7.87,2.08
			c-2.25,1.39-4,3.34-5.25,5.87c-1.25,2.53-1.87,5.45-1.87,8.78c0,3.33,0.64,6.26,1.91,8.78c1.28,2.53,3.05,4.48,5.33,5.87
			C892.63,403.15,895.21,403.84,898.1,403.84z"/>
		<path class="st0" d="M951.22,411c-5.27,0-9.33-1.72-12.16-5.16c-2.83-3.44-4.25-8.41-4.25-14.9v-25.81h7.99v27.39
			c0,3.5,0.94,6.23,2.83,8.2c1.89,1.97,4.44,2.96,7.66,2.96c3.33,0,6.05-1.07,8.16-3.21c2.11-2.14,3.16-5.06,3.16-8.78v-26.56h7.99
			v44.54h-6.33V390.6h1c0,4.39-0.58,8.09-1.75,11.12c-1.17,3.03-2.9,5.33-5.2,6.91c-2.3,1.58-5.23,2.37-8.78,2.37H951.22z"/>
		<path class="st0" d="M1007,411.17c-3.89,0-7.24-0.67-10.07-2c-2.83-1.33-5.13-3.09-6.91-5.29c-1.78-2.19-3.09-4.65-3.95-7.37
			c-0.86-2.72-1.29-5.5-1.29-8.33v-1.5c0-2.89,0.43-5.69,1.29-8.41c0.86-2.72,2.18-5.18,3.95-7.37c1.78-2.19,4.04-3.94,6.79-5.25
			c2.75-1.3,5.98-1.96,9.7-1.96c4.83,0,8.81,1.04,11.95,3.12c3.13,2.08,5.47,4.76,6.99,8.03c1.53,3.28,2.29,6.77,2.29,10.49v3.58
			h-39.46v-5.99h33.64l-1.83,3.25c0-3.16-0.5-5.9-1.5-8.2c-1-2.3-2.5-4.09-4.5-5.37c-2-1.28-4.52-1.92-7.58-1.92
			c-3.16,0-5.79,0.72-7.87,2.17c-2.08,1.44-3.64,3.41-4.66,5.91c-1.03,2.5-1.54,5.38-1.54,8.66c0,3.16,0.51,6.01,1.54,8.53
			c1.03,2.53,2.62,4.52,4.79,5.99c2.16,1.47,4.91,2.21,8.24,2.21c3.5,0,6.34-0.78,8.53-2.33c2.19-1.55,3.51-3.36,3.95-5.41h7.49
			c-0.61,3.05-1.83,5.69-3.66,7.91c-1.83,2.22-4.14,3.91-6.91,5.08C1013.63,410.59,1010.5,411.17,1007,411.17z"/>
		<path class="st0" d="M1076.93,411.17c-3.89,0-7.24-0.67-10.07-2c-2.83-1.33-5.13-3.09-6.91-5.29c-1.78-2.19-3.09-4.65-3.95-7.37
			c-0.86-2.72-1.29-5.5-1.29-8.33v-1.5c0-2.89,0.43-5.69,1.29-8.41c0.86-2.72,2.18-5.18,3.95-7.37c1.78-2.19,4.04-3.94,6.79-5.25
			c2.75-1.3,5.98-1.96,9.7-1.96c4.83,0,8.81,1.04,11.95,3.12c3.13,2.08,5.47,4.76,6.99,8.03c1.53,3.28,2.29,6.77,2.29,10.49v3.58
			h-39.46v-5.99h33.64l-1.83,3.25c0-3.16-0.5-5.9-1.5-8.2c-1-2.3-2.5-4.09-4.5-5.37c-2-1.28-4.52-1.92-7.58-1.92
			c-3.16,0-5.79,0.72-7.87,2.17c-2.08,1.44-3.64,3.41-4.66,5.91c-1.03,2.5-1.54,5.38-1.54,8.66c0,3.16,0.51,6.01,1.54,8.53
			c1.03,2.53,2.62,4.52,4.79,5.99c2.16,1.47,4.91,2.21,8.24,2.21c3.5,0,6.34-0.78,8.53-2.33c2.19-1.55,3.51-3.36,3.95-5.41h7.49
			c-0.61,3.05-1.83,5.69-3.66,7.91c-1.83,2.22-4.14,3.91-6.91,5.08C1083.57,410.59,1080.43,411.17,1076.93,411.17z"/>
		<path class="st0" d="M1123.56,411c-5.83,0-10.34-1.25-13.53-3.75c-3.19-2.5-4.84-5.91-4.95-10.24h7.49
			c0.11,1.72,0.98,3.34,2.62,4.87c1.64,1.53,4.43,2.29,8.37,2.29c3.55,0,6.27-0.71,8.16-2.12c1.89-1.42,2.83-3.15,2.83-5.2
			c0-1.83-0.69-3.26-2.08-4.29c-1.39-1.03-3.64-1.71-6.74-2.04l-4.83-0.5c-4.22-0.44-7.66-1.71-10.32-3.79c-2.66-2.08-4-5.01-4-8.78
			c0-2.83,0.72-5.26,2.17-7.29c1.44-2.03,3.44-3.58,5.99-4.66c2.55-1.08,5.5-1.62,8.83-1.62c5,0,9.05,1.11,12.16,3.33
			c3.11,2.22,4.72,5.52,4.83,9.91h-7.49c-0.06-1.78-0.87-3.29-2.46-4.54c-1.58-1.25-3.93-1.87-7.04-1.87
			c-3.11,0-5.47,0.64-7.08,1.92c-1.61,1.28-2.41,2.89-2.41,4.83c0,1.67,0.57,3,1.71,4c1.14,1,3.01,1.64,5.62,1.92l4.83,0.5
			c4.77,0.5,8.6,1.82,11.49,3.95c2.89,2.14,4.33,5.15,4.33,9.03c0,2.78-0.79,5.23-2.37,7.37c-1.58,2.14-3.76,3.8-6.54,5
			C1130.36,410.41,1127.17,411,1123.56,411z"/>
		<path class="st0" d="M1153.61,426.32v-61.11h6.33v19.23l-1.5-0.17c0.28-4.77,1.29-8.67,3.04-11.7c1.75-3.02,4.04-5.26,6.87-6.7
			c2.83-1.44,5.91-2.16,9.24-2.16c3.22,0,6.15,0.61,8.78,1.83c2.64,1.22,4.9,2.89,6.79,5c1.89,2.11,3.33,4.55,4.33,7.33
			c1,2.78,1.5,5.72,1.5,8.83v1.5c0,3.11-0.53,6.05-1.58,8.83c-1.06,2.78-2.54,5.22-4.45,7.33c-1.92,2.11-4.19,3.77-6.83,5
			c-2.64,1.22-5.54,1.83-8.7,1.83c-3.16,0-6.19-0.69-9.07-2.08c-2.89-1.39-5.27-3.63-7.16-6.74c-1.89-3.11-2.97-7.19-3.25-12.24
			l3.66,6.66v29.56H1153.61z M1176.18,404.18c3,0,5.61-0.71,7.83-2.12c2.22-1.42,3.94-3.39,5.16-5.91c1.22-2.52,1.83-5.42,1.83-8.7
			c0-3.33-0.61-6.24-1.83-8.74c-1.22-2.5-2.94-4.45-5.16-5.87c-2.22-1.42-4.83-2.12-7.83-2.12c-2.66,0-5.13,0.6-7.41,1.79
			c-2.28,1.19-4.09,2.91-5.45,5.16c-1.36,2.25-2.04,4.95-2.04,8.12v3.83c0,3.05,0.69,5.66,2.08,7.83c1.39,2.17,3.22,3.83,5.5,5
			C1171.13,403.59,1173.57,404.18,1176.18,404.18z"/>
		<path class="st0" d="M1223.3,410.84c-3.33,0-6.2-0.57-8.62-1.71c-2.41-1.14-4.27-2.79-5.58-4.95c-1.31-2.17-1.96-4.77-1.96-7.83
			c0-3.16,0.71-5.8,2.12-7.91c1.42-2.11,3.48-3.71,6.2-4.79c2.72-1.08,5.99-1.62,9.82-1.62h12.07v5.99h-12.41
			c-3.22,0-5.69,0.78-7.41,2.33c-1.72,1.55-2.58,3.55-2.58,5.99c0,2.44,0.86,4.41,2.58,5.91c1.72,1.5,4.19,2.25,7.41,2.25
			c1.89,0,3.69-0.35,5.41-1.04c1.72-0.69,3.15-1.86,4.29-3.5c1.14-1.64,1.76-3.9,1.87-6.79l2.16,3.16
			c-0.28,3.16-1.04,5.81-2.29,7.95c-1.25,2.14-2.97,3.76-5.16,4.87C1229.06,410.28,1226.41,410.84,1223.3,410.84z M1237.87,409.67
			v-13.32h-1.33v-15.4c0-3.05-0.79-5.36-2.37-6.91c-1.58-1.55-3.9-2.33-6.95-2.33c-1.72,0-3.5,0.03-5.33,0.08
			c-1.83,0.06-3.58,0.11-5.25,0.17c-1.67,0.06-3.11,0.14-4.33,0.25v-6.99c1.22-0.11,2.51-0.21,3.87-0.29
			c1.36-0.08,2.76-0.14,4.2-0.17c1.44-0.03,2.83-0.04,4.16-0.04c4.55,0,8.27,0.54,11.16,1.62c2.89,1.08,5.02,2.85,6.41,5.29
			c1.39,2.44,2.08,5.74,2.08,9.91v28.14H1237.87z"/>
		<path class="st0" d="M1277.92,411.17c-3.83,0-7.15-0.67-9.95-2c-2.8-1.33-5.12-3.12-6.95-5.37c-1.83-2.25-3.21-4.73-4.12-7.45
			c-0.92-2.72-1.37-5.44-1.37-8.16v-1.5c0-2.83,0.46-5.61,1.37-8.33c0.92-2.72,2.3-5.17,4.16-7.37c1.86-2.19,4.18-3.95,6.95-5.29
			c2.77-1.33,6.02-2,9.74-2c3.72,0,7.06,0.69,10.03,2.08c2.97,1.39,5.36,3.34,7.16,5.87c1.8,2.53,2.82,5.51,3.04,8.95h-7.66
			c-0.39-2.77-1.67-5.09-3.83-6.95c-2.16-1.86-5.08-2.79-8.74-2.79c-3.16,0-5.8,0.72-7.91,2.16c-2.11,1.44-3.69,3.41-4.75,5.91
			c-1.05,2.5-1.58,5.33-1.58,8.49c0,3.05,0.53,5.84,1.58,8.37c1.05,2.53,2.65,4.52,4.79,5.99c2.14,1.47,4.81,2.21,8.03,2.21
			c2.5,0,4.66-0.44,6.49-1.33c1.83-0.89,3.3-2.08,4.41-3.58c1.11-1.5,1.78-3.19,2-5.08h7.66c-0.17,3.5-1.18,6.52-3.04,9.08
			c-1.86,2.55-4.3,4.54-7.33,5.95C1285.09,410.46,1281.69,411.17,1277.92,411.17z M1277.25,429.82c-1.06,0-2.07-0.07-3.04-0.21
			c-0.97-0.14-1.85-0.32-2.62-0.54v-5.33c0.78,0.22,1.68,0.4,2.71,0.54c1.03,0.14,2.01,0.21,2.96,0.21c1.78,0,3.08-0.29,3.91-0.87
			s1.25-1.32,1.25-2.21c0-0.89-0.35-1.6-1.04-2.12c-0.69-0.53-1.85-0.79-3.46-0.79h-3.16v-9.66h4.83v7.91l-3.41-3.08h1.33
			c3.16,0,5.72,0.65,7.66,1.96c1.94,1.3,2.91,3.18,2.91,5.62c0,2.39-0.96,4.41-2.87,6.08S1280.64,429.82,1277.25,429.82z"/>
		<path class="st0" d="M1329.79,411.17c-3.89,0-7.3-0.67-10.24-2c-2.94-1.33-5.43-3.09-7.45-5.29c-2.03-2.19-3.55-4.65-4.58-7.37
			c-1.03-2.72-1.54-5.5-1.54-8.33v-1.5c0-2.83,0.53-5.62,1.58-8.37c1.05-2.75,2.61-5.22,4.66-7.41c2.05-2.19,4.55-3.94,7.49-5.25
			c2.94-1.3,6.3-1.96,10.07-1.96c3.77,0,7.13,0.65,10.07,1.96c2.94,1.3,5.44,3.05,7.49,5.25c2.05,2.19,3.61,4.66,4.66,7.41
			c1.05,2.75,1.58,5.54,1.58,8.37v1.5c0,2.83-0.51,5.61-1.54,8.33c-1.03,2.72-2.55,5.18-4.58,7.37c-2.03,2.19-4.51,3.95-7.45,5.29
			C1337.08,410.5,1333.67,411.17,1329.79,411.17z M1329.79,404.01c3.33,0,6.17-0.73,8.53-2.21c2.36-1.47,4.16-3.46,5.41-5.95
			c1.25-2.5,1.87-5.3,1.87-8.41c0-3.16-0.64-5.99-1.92-8.49c-1.28-2.5-3.09-4.47-5.45-5.91c-2.36-1.44-5.18-2.16-8.45-2.16
			c-3.22,0-6.02,0.72-8.41,2.16c-2.39,1.44-4.22,3.41-5.5,5.91c-1.28,2.5-1.91,5.33-1.91,8.49c0,3.11,0.62,5.91,1.87,8.41
			c1.25,2.5,3.05,4.48,5.41,5.95C1323.61,403.27,1326.46,404.01,1329.79,404.01z"/>
		<path class="st0" d="M1380.16,411c-5.83,0-10.34-1.25-13.53-3.75c-3.19-2.5-4.84-5.91-4.95-10.24h7.49
			c0.11,1.72,0.98,3.34,2.62,4.87c1.64,1.53,4.43,2.29,8.37,2.29c3.55,0,6.27-0.71,8.16-2.12c1.89-1.42,2.83-3.15,2.83-5.2
			c0-1.83-0.69-3.26-2.08-4.29c-1.39-1.03-3.64-1.71-6.74-2.04l-4.83-0.5c-4.22-0.44-7.66-1.71-10.32-3.79c-2.66-2.08-4-5.01-4-8.78
			c0-2.83,0.72-5.26,2.17-7.29c1.44-2.03,3.44-3.58,5.99-4.66c2.55-1.08,5.5-1.62,8.83-1.62c5,0,9.05,1.11,12.16,3.33
			c3.11,2.22,4.72,5.52,4.83,9.91h-7.49c-0.06-1.78-0.87-3.29-2.46-4.54c-1.58-1.25-3.93-1.87-7.04-1.87
			c-3.11,0-5.47,0.64-7.08,1.92c-1.61,1.28-2.41,2.89-2.41,4.83c0,1.67,0.57,3,1.71,4c1.14,1,3.01,1.64,5.62,1.92l4.83,0.5
			c4.77,0.5,8.6,1.82,11.49,3.95c2.89,2.14,4.33,5.15,4.33,9.03c0,2.78-0.79,5.23-2.37,7.37c-1.58,2.14-3.76,3.8-6.54,5
			C1386.96,410.41,1383.76,411,1380.16,411z"/>
		<path class="st0" d="M327.71,522.01c-5.83,0-10.34-1.25-13.53-3.75c-3.19-2.5-4.84-5.91-4.95-10.24h7.49
			c0.11,1.72,0.98,3.34,2.62,4.87c1.64,1.53,4.43,2.29,8.37,2.29c3.55,0,6.27-0.71,8.16-2.12c1.89-1.42,2.83-3.15,2.83-5.2
			c0-1.83-0.69-3.26-2.08-4.29c-1.39-1.03-3.64-1.71-6.74-2.04l-4.83-0.5c-4.22-0.44-7.66-1.71-10.32-3.79c-2.66-2.08-4-5.01-4-8.78
			c0-2.83,0.72-5.26,2.17-7.29c1.44-2.03,3.44-3.58,5.99-4.66c2.55-1.08,5.5-1.62,8.83-1.62c5,0,9.05,1.11,12.16,3.33
			c3.11,2.22,4.72,5.52,4.83,9.91h-7.49c-0.06-1.78-0.87-3.29-2.46-4.54c-1.58-1.25-3.93-1.87-7.04-1.87
			c-3.11,0-5.47,0.64-7.08,1.91c-1.61,1.28-2.41,2.89-2.41,4.83c0,1.67,0.57,3,1.71,4c1.14,1,3.01,1.64,5.62,1.91l4.83,0.5
			c4.77,0.5,8.6,1.82,11.49,3.95c2.89,2.14,4.33,5.15,4.33,9.03c0,2.78-0.79,5.23-2.37,7.37c-1.58,2.14-3.76,3.8-6.54,5
			C334.51,521.42,331.31,522.01,327.71,522.01z"/>
		<path class="st0" d="M370.08,521.85c-3.33,0-6.2-0.57-8.62-1.71s-4.27-2.79-5.58-4.95c-1.31-2.16-1.96-4.77-1.96-7.83
			c0-3.16,0.71-5.8,2.12-7.91c1.42-2.11,3.48-3.71,6.2-4.79c2.72-1.08,5.99-1.62,9.82-1.62h12.07v5.99h-12.41
			c-3.22,0-5.69,0.78-7.41,2.33c-1.72,1.55-2.58,3.55-2.58,5.99c0,2.44,0.86,4.41,2.58,5.91c1.72,1.5,4.19,2.25,7.41,2.25
			c1.89,0,3.69-0.35,5.41-1.04c1.72-0.69,3.15-1.86,4.29-3.5c1.14-1.64,1.76-3.9,1.87-6.79l2.16,3.16
			c-0.28,3.16-1.04,5.82-2.29,7.95c-1.25,2.14-2.97,3.76-5.16,4.87C375.84,521.29,373.19,521.85,370.08,521.85z M384.65,520.68
			v-13.32h-1.33v-15.4c0-3.05-0.79-5.36-2.37-6.91c-1.58-1.55-3.9-2.33-6.95-2.33c-1.72,0-3.5,0.03-5.33,0.08
			c-1.83,0.06-3.58,0.11-5.25,0.17c-1.67,0.06-3.11,0.14-4.33,0.25v-6.99c1.22-0.11,2.51-0.21,3.87-0.29
			c1.36-0.08,2.76-0.14,4.2-0.17c1.44-0.03,2.83-0.04,4.16-0.04c4.55,0,8.27,0.54,11.16,1.62c2.89,1.08,5.02,2.85,6.41,5.29
			c1.39,2.44,2.08,5.75,2.08,9.91v28.14H384.65z M378.99,467.31c-1.39,0-2.58-0.21-3.58-0.62c-1-0.42-1.92-0.9-2.75-1.46
			c-0.83-0.55-1.67-1.04-2.5-1.46c-0.83-0.42-1.78-0.62-2.83-0.62c-1.17,0-2.23,0.29-3.21,0.87c-0.97,0.58-1.85,1.37-2.62,2.37
			l-1.33-5.33c0.83-1.05,1.87-1.94,3.12-2.66c1.25-0.72,2.68-1.08,4.29-1.08c1.39,0,2.58,0.21,3.58,0.62c1,0.42,1.92,0.9,2.75,1.46
			c0.83,0.56,1.67,1.04,2.5,1.46c0.83,0.42,1.78,0.62,2.83,0.62c1.17,0,2.25-0.29,3.25-0.87s1.89-1.37,2.66-2.37l1.33,5.33
			c-0.83,1.06-1.89,1.94-3.16,2.66C382.05,466.95,380.6,467.31,378.99,467.31z"/>
		<path class="st0" d="M426.12,522.18c-3.89,0-7.3-0.67-10.24-2c-2.94-1.33-5.43-3.09-7.45-5.29c-2.03-2.19-3.55-4.65-4.58-7.37
			c-1.03-2.72-1.54-5.5-1.54-8.33v-1.5c0-2.83,0.53-5.62,1.58-8.37c1.05-2.75,2.61-5.22,4.66-7.41c2.05-2.19,4.55-3.94,7.49-5.25
			c2.94-1.3,6.3-1.96,10.07-1.96c3.77,0,7.13,0.65,10.07,1.96c2.94,1.3,5.44,3.05,7.49,5.25c2.05,2.19,3.61,4.66,4.66,7.41
			c1.05,2.75,1.58,5.54,1.58,8.37v1.5c0,2.83-0.51,5.61-1.54,8.33c-1.03,2.72-2.55,5.18-4.58,7.37c-2.03,2.19-4.51,3.95-7.45,5.29
			C433.41,521.51,430,522.18,426.12,522.18z M426.12,515.02c3.33,0,6.17-0.74,8.53-2.21c2.36-1.47,4.16-3.46,5.41-5.95
			c1.25-2.5,1.87-5.3,1.87-8.41c0-3.16-0.64-5.99-1.92-8.49c-1.28-2.5-3.09-4.47-5.45-5.91c-2.36-1.44-5.18-2.16-8.45-2.16
			c-3.22,0-6.02,0.72-8.41,2.16c-2.39,1.44-4.22,3.41-5.5,5.91c-1.28,2.5-1.91,5.33-1.91,8.49c0,3.11,0.62,5.91,1.87,8.41
			c1.25,2.5,3.05,4.48,5.41,5.95C419.94,514.28,422.79,515.02,426.12,515.02z"/>
		<path class="st0" d="M501.38,522.18c-3.89,0-7.3-0.67-10.24-2c-2.94-1.33-5.43-3.09-7.45-5.29c-2.03-2.19-3.55-4.65-4.58-7.37
			c-1.03-2.72-1.54-5.5-1.54-8.33v-1.5c0-2.83,0.53-5.62,1.58-8.37c1.05-2.75,2.61-5.22,4.66-7.41c2.05-2.19,4.55-3.94,7.49-5.25
			c2.94-1.3,6.3-1.96,10.07-1.96c3.77,0,7.13,0.65,10.07,1.96c2.94,1.3,5.44,3.05,7.49,5.25c2.05,2.19,3.61,4.66,4.66,7.41
			c1.05,2.75,1.58,5.54,1.58,8.37v1.5c0,2.83-0.51,5.61-1.54,8.33c-1.03,2.72-2.55,5.18-4.58,7.37c-2.03,2.19-4.51,3.95-7.45,5.29
			C508.68,521.51,505.27,522.18,501.38,522.18z M501.38,515.02c3.33,0,6.17-0.74,8.53-2.21c2.36-1.47,4.16-3.46,5.41-5.95
			c1.25-2.5,1.87-5.3,1.87-8.41c0-3.16-0.64-5.99-1.92-8.49c-1.28-2.5-3.09-4.47-5.45-5.91c-2.36-1.44-5.18-2.16-8.45-2.16
			c-3.22,0-6.02,0.72-8.41,2.16c-2.39,1.44-4.22,3.41-5.5,5.91c-1.28,2.5-1.91,5.33-1.91,8.49c0,3.11,0.62,5.91,1.87,8.41
			c1.25,2.5,3.05,4.48,5.41,5.95C495.21,514.28,498.05,515.02,501.38,515.02z"/>
		<path class="st0" d="M537.18,520.68v-44.46h6.33v18.32h-0.33c0-6.49,1.43-11.25,4.29-14.28c2.86-3.02,7.15-4.54,12.86-4.54h1.5
			v7.16h-2.83c-4.44,0-7.85,1.18-10.24,3.54c-2.39,2.36-3.58,5.76-3.58,10.2v24.06H537.18z"/>
		<path class="st0" d="M588.13,538c-2.05,0-4.12-0.08-6.2-0.25s-4.07-0.39-5.95-0.67v-6.74c2,0.28,4.09,0.51,6.29,0.71
			c2.19,0.19,4.26,0.29,6.2,0.29c4.05,0,7.29-0.54,9.7-1.62s4.16-2.78,5.25-5.08c1.08-2.3,1.62-5.26,1.62-8.87v-8.49l2.66-6.33
			c-0.17,4.5-1.11,8.23-2.83,11.2c-1.72,2.97-3.95,5.19-6.7,6.66c-2.75,1.47-5.79,2.21-9.12,2.21c-3.11,0-5.95-0.6-8.53-1.79
			c-2.58-1.19-4.8-2.84-6.66-4.95c-1.86-2.11-3.3-4.54-4.33-7.29c-1.03-2.75-1.54-5.65-1.54-8.7v-1.5c0-3.11,0.53-6.01,1.58-8.7
			c1.05-2.69,2.53-5.04,4.41-7.04c1.89-2,4.15-3.55,6.79-4.66c2.64-1.11,5.54-1.67,8.7-1.67c3.72,0,6.99,0.79,9.82,2.37
			c2.83,1.58,5.06,3.89,6.7,6.91c1.64,3.03,2.54,6.73,2.71,11.11l-2.33,0.08v-18.98h6.33v39.21c0,5.33-0.82,9.64-2.46,12.95
			c-1.64,3.3-4.25,5.73-7.83,7.29C598.83,537.22,594.07,538,588.13,538z M590.55,513.69c2.66,0,5.09-0.58,7.29-1.75
			c2.19-1.17,3.94-2.84,5.25-5.04c1.3-2.19,1.96-4.81,1.96-7.87v-3.83c0-3-0.68-5.52-2.04-7.58c-1.36-2.05-3.12-3.61-5.29-4.66
			c-2.16-1.05-4.52-1.58-7.08-1.58c-2.89,0-5.44,0.67-7.66,2c-2.22,1.33-3.94,3.21-5.16,5.62c-1.22,2.42-1.83,5.26-1.83,8.53
			c0,3.28,0.62,6.13,1.87,8.58c1.25,2.44,2.97,4.32,5.16,5.62C585.21,513.04,587.72,513.69,590.55,513.69z"/>
		<path class="st0" d="M639.84,521.85c-3.33,0-6.2-0.57-8.62-1.71s-4.27-2.79-5.58-4.95c-1.31-2.16-1.96-4.77-1.96-7.83
			c0-3.16,0.71-5.8,2.12-7.91c1.42-2.11,3.48-3.71,6.2-4.79c2.72-1.08,5.99-1.62,9.82-1.62h12.07v5.99H641.5
			c-3.22,0-5.69,0.78-7.41,2.33c-1.72,1.55-2.58,3.55-2.58,5.99c0,2.44,0.86,4.41,2.58,5.91c1.72,1.5,4.19,2.25,7.41,2.25
			c1.89,0,3.69-0.35,5.41-1.04c1.72-0.69,3.15-1.86,4.29-3.5c1.14-1.64,1.76-3.9,1.87-6.79l2.16,3.16
			c-0.28,3.16-1.04,5.82-2.29,7.95c-1.25,2.14-2.97,3.76-5.16,4.87C645.59,521.29,642.94,521.85,639.84,521.85z M654.41,520.68
			v-13.32h-1.33v-15.4c0-3.05-0.79-5.36-2.37-6.91c-1.58-1.55-3.9-2.33-6.95-2.33c-1.72,0-3.5,0.03-5.33,0.08
			c-1.83,0.06-3.58,0.11-5.25,0.17c-1.67,0.06-3.11,0.14-4.33,0.25v-6.99c1.22-0.11,2.51-0.21,3.87-0.29
			c1.36-0.08,2.76-0.14,4.2-0.17c1.44-0.03,2.83-0.04,4.16-0.04c4.55,0,8.27,0.54,11.16,1.62c2.89,1.08,5.02,2.85,6.41,5.29
			c1.39,2.44,2.08,5.75,2.08,9.91v28.14H654.41z"/>
		<path class="st0" d="M675.39,520.68v-44.46h6.33v19.07h-1c0-4.38,0.6-8.09,1.79-11.11c1.19-3.02,3.01-5.33,5.45-6.91
			c2.44-1.58,5.52-2.37,9.24-2.37h0.33c5.61,0,9.75,1.75,12.45,5.25c2.69,3.5,4.04,8.55,4.04,15.15v25.39h-7.99v-27.06
			c0-3.44-0.97-6.2-2.91-8.28c-1.94-2.08-4.61-3.12-7.99-3.12c-3.5,0-6.33,1.08-8.49,3.25c-2.16,2.16-3.25,5.05-3.25,8.66v26.56
			H675.39z"/>
		<path class="st0" d="M724.01,482.55v-6.33h14.82v6.33H724.01z M733.08,469.06c-1.78,0-3.09-0.47-3.95-1.42
			c-0.86-0.94-1.29-2.14-1.29-3.58c0-1.44,0.43-2.64,1.29-3.58c0.86-0.94,2.18-1.42,3.95-1.42c1.78,0,3.09,0.47,3.95,1.42
			c0.86,0.94,1.29,2.14,1.29,3.58c0,1.44-0.43,2.64-1.29,3.58C736.18,468.59,734.86,469.06,733.08,469.06z M730.84,520.68v-44.46
			h7.99v44.46H730.84z"/>
		<path class="st0" d="M768.89,522.01c-5.83,0-10.34-1.25-13.53-3.75c-3.19-2.5-4.84-5.91-4.95-10.24h7.49
			c0.11,1.72,0.98,3.34,2.62,4.87c1.64,1.53,4.43,2.29,8.37,2.29c3.55,0,6.27-0.71,8.16-2.12c1.89-1.42,2.83-3.15,2.83-5.2
			c0-1.83-0.69-3.26-2.08-4.29c-1.39-1.03-3.64-1.71-6.74-2.04l-4.83-0.5c-4.22-0.44-7.66-1.71-10.32-3.79c-2.66-2.08-4-5.01-4-8.78
			c0-2.83,0.72-5.26,2.17-7.29c1.44-2.03,3.44-3.58,5.99-4.66c2.55-1.08,5.5-1.62,8.83-1.62c5,0,9.05,1.11,12.16,3.33
			c3.11,2.22,4.72,5.52,4.83,9.91h-7.49c-0.06-1.78-0.87-3.29-2.46-4.54c-1.58-1.25-3.93-1.87-7.04-1.87
			c-3.11,0-5.47,0.64-7.08,1.91c-1.61,1.28-2.41,2.89-2.41,4.83c0,1.67,0.57,3,1.71,4c1.14,1,3.01,1.64,5.62,1.91l4.83,0.5
			c4.77,0.5,8.6,1.82,11.49,3.95c2.89,2.14,4.33,5.15,4.33,9.03c0,2.78-0.79,5.23-2.37,7.37c-1.58,2.14-3.76,3.8-6.54,5
			C775.68,521.42,772.49,522.01,768.89,522.01z"/>
		<path class="st0" d="M798.94,520.68v-44.46h6.33v19.07h-1c0-4.33,0.57-8.01,1.71-11.03c1.14-3.02,2.84-5.34,5.12-6.95
			c2.28-1.61,5.16-2.41,8.66-2.41h0.33c3.5,0,6.4,0.81,8.7,2.41c2.3,1.61,4.01,3.93,5.12,6.95c1.11,3.03,1.67,6.7,1.67,11.03h-2.33
			c0-4.33,0.58-8.01,1.75-11.03c1.17-3.02,2.9-5.34,5.2-6.95c2.3-1.61,5.2-2.41,8.7-2.41h0.33c3.5,0,6.41,0.81,8.74,2.41
			c2.33,1.61,4.07,3.93,5.2,6.95c1.14,3.03,1.71,6.7,1.71,11.03v25.39h-7.99v-27.14c0-3.61-0.89-6.4-2.66-8.37
			c-1.78-1.97-4.25-2.96-7.41-2.96c-3.28,0-5.91,1.04-7.91,3.12c-2,2.08-3,4.98-3,8.7v26.64h-7.99v-27.14c0-3.61-0.89-6.4-2.66-8.37
			c-1.78-1.97-4.25-2.96-7.41-2.96c-3.28,0-5.91,1.04-7.91,3.12c-2,2.08-3,4.98-3,8.7v26.64H798.94z"/>
		<path class="st0" d="M900.01,522.18c-3.89,0-7.3-0.67-10.24-2c-2.94-1.33-5.43-3.09-7.45-5.29c-2.03-2.19-3.55-4.65-4.58-7.37
			c-1.03-2.72-1.54-5.5-1.54-8.33v-1.5c0-2.83,0.53-5.62,1.58-8.37c1.05-2.75,2.61-5.22,4.66-7.41c2.05-2.19,4.55-3.94,7.49-5.25
			c2.94-1.3,6.3-1.96,10.07-1.96c3.77,0,7.13,0.65,10.07,1.96c2.94,1.3,5.44,3.05,7.49,5.25c2.05,2.19,3.61,4.66,4.66,7.41
			c1.05,2.75,1.58,5.54,1.58,8.37v1.5c0,2.83-0.51,5.61-1.54,8.33c-1.03,2.72-2.55,5.18-4.58,7.37c-2.03,2.19-4.51,3.95-7.45,5.29
			C907.31,521.51,903.9,522.18,900.01,522.18z M900.01,515.02c3.33,0,6.17-0.74,8.53-2.21c2.36-1.47,4.16-3.46,5.41-5.95
			c1.25-2.5,1.87-5.3,1.87-8.41c0-3.16-0.64-5.99-1.92-8.49c-1.28-2.5-3.09-4.47-5.45-5.91c-2.36-1.44-5.18-2.16-8.45-2.16
			c-3.22,0-6.02,0.72-8.41,2.16c-2.39,1.44-4.22,3.41-5.5,5.91c-1.28,2.5-1.91,5.33-1.91,8.49c0,3.11,0.62,5.91,1.87,8.41
			c1.25,2.5,3.05,4.48,5.41,5.95C893.84,514.28,896.68,515.02,900.01,515.02z"/>
		<path class="st0" d="M950.38,522.01c-5.83,0-10.34-1.25-13.53-3.75c-3.19-2.5-4.84-5.91-4.95-10.24h7.49
			c0.11,1.72,0.98,3.34,2.62,4.87c1.64,1.53,4.43,2.29,8.37,2.29c3.55,0,6.27-0.71,8.16-2.12c1.89-1.42,2.83-3.15,2.83-5.2
			c0-1.83-0.69-3.26-2.08-4.29c-1.39-1.03-3.64-1.71-6.74-2.04l-4.83-0.5c-4.22-0.44-7.66-1.71-10.32-3.79c-2.66-2.08-4-5.01-4-8.78
			c0-2.83,0.72-5.26,2.17-7.29c1.44-2.03,3.44-3.58,5.99-4.66c2.55-1.08,5.5-1.62,8.83-1.62c5,0,9.05,1.11,12.16,3.33
			c3.11,2.22,4.72,5.52,4.83,9.91h-7.49c-0.06-1.78-0.87-3.29-2.46-4.54c-1.58-1.25-3.93-1.87-7.04-1.87
			c-3.11,0-5.47,0.64-7.08,1.91c-1.61,1.28-2.41,2.89-2.41,4.83c0,1.67,0.57,3,1.71,4c1.14,1,3.01,1.64,5.62,1.91l4.83,0.5
			c4.77,0.5,8.6,1.82,11.49,3.95c2.89,2.14,4.33,5.15,4.33,9.03c0,2.78-0.79,5.23-2.37,7.37c-1.58,2.14-3.76,3.8-6.54,5
			C957.18,521.42,953.99,522.01,950.38,522.01z"/>
		<path class="st0" d="M1008.91,520.68l-15.15-44.46h8.33l14.82,44.46H1008.91z M1010.91,520.68v-6.33h9.66v6.33H1010.91z
			 M1014.74,520.68l12.9-44.46h7.83l-13.15,44.46H1014.74z"/>
		<path class="st0" d="M1041.3,482.55v-6.33h14.82v6.33H1041.3z M1050.38,469.06c-1.78,0-3.09-0.47-3.95-1.42
			c-0.86-0.94-1.29-2.14-1.29-3.58c0-1.44,0.43-2.64,1.29-3.58c0.86-0.94,2.18-1.42,3.95-1.42c1.78,0,3.09,0.47,3.95,1.42
			c0.86,0.94,1.29,2.14,1.29,3.58c0,1.44-0.43,2.64-1.29,3.58C1053.47,468.59,1052.15,469.06,1050.38,469.06z M1048.13,520.68
			v-44.46h7.99v44.46H1048.13z"/>
		<path class="st0" d="M1081.1,520.68l-15.15-44.46h8.33l14.82,44.46H1081.1z M1083.1,520.68v-6.33h9.66v6.33H1083.1z
			 M1086.93,520.68l12.9-44.46h7.83l-13.15,44.46H1086.93z"/>
		<path class="st0" d="M1138.63,522.18c-3.89,0-7.3-0.67-10.24-2c-2.94-1.33-5.43-3.09-7.45-5.29c-2.03-2.19-3.55-4.65-4.58-7.37
			c-1.03-2.72-1.54-5.5-1.54-8.33v-1.5c0-2.83,0.53-5.62,1.58-8.37c1.05-2.75,2.61-5.22,4.66-7.41c2.05-2.19,4.55-3.94,7.49-5.25
			c2.94-1.3,6.3-1.96,10.07-1.96c3.77,0,7.13,0.65,10.07,1.96c2.94,1.3,5.44,3.05,7.49,5.25c2.05,2.19,3.61,4.66,4.66,7.41
			c1.05,2.75,1.58,5.54,1.58,8.37v1.5c0,2.83-0.51,5.61-1.54,8.33c-1.03,2.72-2.55,5.18-4.58,7.37c-2.03,2.19-4.51,3.95-7.45,5.29
			C1145.93,521.51,1142.51,522.18,1138.63,522.18z M1138.63,515.02c3.33,0,6.17-0.74,8.53-2.21c2.36-1.47,4.16-3.46,5.41-5.95
			c1.25-2.5,1.87-5.3,1.87-8.41c0-3.16-0.64-5.99-1.92-8.49c-1.28-2.5-3.09-4.47-5.45-5.91c-2.36-1.44-5.18-2.16-8.45-2.16
			c-3.22,0-6.02,0.72-8.41,2.16c-2.39,1.44-4.22,3.41-5.5,5.91c-1.28,2.5-1.91,5.33-1.91,8.49c0,3.11,0.62,5.91,1.87,8.41
			c1.25,2.5,3.05,4.48,5.41,5.95C1132.45,514.28,1135.3,515.02,1138.63,515.02z"/>
		<path class="st0" d="M1189,522.01c-5.83,0-10.34-1.25-13.53-3.75c-3.19-2.5-4.84-5.91-4.95-10.24h7.49
			c0.11,1.72,0.98,3.34,2.62,4.87c1.64,1.53,4.43,2.29,8.37,2.29c3.55,0,6.27-0.71,8.16-2.12c1.89-1.42,2.83-3.15,2.83-5.2
			c0-1.83-0.69-3.26-2.08-4.29c-1.39-1.03-3.64-1.71-6.74-2.04l-4.83-0.5c-4.22-0.44-7.66-1.71-10.32-3.79c-2.66-2.08-4-5.01-4-8.78
			c0-2.83,0.72-5.26,2.17-7.29c1.44-2.03,3.44-3.58,5.99-4.66c2.55-1.08,5.5-1.62,8.83-1.62c5,0,9.05,1.11,12.16,3.33
			c3.11,2.22,4.72,5.52,4.83,9.91h-7.49c-0.06-1.78-0.87-3.29-2.46-4.54c-1.58-1.25-3.93-1.87-7.04-1.87
			c-3.11,0-5.47,0.64-7.08,1.91c-1.61,1.28-2.41,2.89-2.41,4.83c0,1.67,0.57,3,1.71,4c1.14,1,3.01,1.64,5.62,1.91l4.83,0.5
			c4.77,0.5,8.6,1.82,11.49,3.95c2.89,2.14,4.33,5.15,4.33,9.03c0,2.78-0.79,5.23-2.37,7.37c-1.58,2.14-3.76,3.8-6.54,5
			C1195.8,521.42,1192.61,522.01,1189,522.01z"/>
		<path class="st0" d="M347.19,648.34v-29.89l3.16-6.33c-0.17,4.83-1.14,8.8-2.91,11.91c-1.78,3.11-4.07,5.41-6.87,6.91
			c-2.8,1.5-5.87,2.25-9.2,2.25c-3.16,0-6.06-0.61-8.7-1.83c-2.64-1.22-4.91-2.91-6.83-5.08c-1.92-2.17-3.4-4.65-4.45-7.45
			c-1.05-2.8-1.58-5.79-1.58-8.95v-1.5c0-3.16,0.53-6.11,1.58-8.83c1.05-2.72,2.55-5.12,4.5-7.2c1.94-2.08,4.25-3.71,6.91-4.87
			c2.66-1.17,5.63-1.75,8.91-1.75c3.77,0,7.09,0.81,9.95,2.42c2.86,1.61,5.12,3.94,6.79,6.99c1.67,3.05,2.58,6.77,2.75,11.16h-2.33
			v-19.07h6.33v61.11H347.19z M332.79,625.86c2.72,0,5.19-0.61,7.41-1.83c2.22-1.22,4-2.98,5.33-5.29c1.33-2.3,2-5.01,2-8.12v-3.83
			c0-3.05-0.68-5.65-2.04-7.78c-1.36-2.14-3.16-3.77-5.41-4.91c-2.25-1.14-4.68-1.71-7.29-1.71c-3,0-5.62,0.69-7.87,2.08
			c-2.25,1.39-4,3.34-5.25,5.87c-1.25,2.53-1.87,5.45-1.87,8.78c0,3.33,0.64,6.26,1.91,8.78c1.28,2.53,3.05,4.48,5.33,5.87
			C327.32,625.17,329.9,625.86,332.79,625.86z"/>
		<path class="st0" d="M385.9,633.02c-5.27,0-9.33-1.72-12.16-5.16c-2.83-3.44-4.25-8.41-4.25-14.9v-25.81h7.99v27.39
			c0,3.5,0.94,6.23,2.83,8.2c1.89,1.97,4.44,2.96,7.66,2.96c3.33,0,6.05-1.07,8.16-3.21c2.11-2.14,3.16-5.06,3.16-8.78v-26.56h7.99
			v44.54h-6.33v-19.07h1c0,4.39-0.58,8.09-1.75,11.11c-1.17,3.03-2.9,5.33-5.2,6.91c-2.3,1.58-5.23,2.37-8.78,2.37H385.9z"/>
		<path class="st0" d="M441.69,633.19c-3.89,0-7.24-0.67-10.07-2c-2.83-1.33-5.13-3.09-6.91-5.29c-1.78-2.19-3.09-4.65-3.95-7.37
			c-0.86-2.72-1.29-5.5-1.29-8.33v-1.5c0-2.89,0.43-5.69,1.29-8.41c0.86-2.72,2.18-5.17,3.95-7.37c1.78-2.19,4.04-3.94,6.79-5.25
			c2.75-1.3,5.98-1.96,9.7-1.96c4.83,0,8.81,1.04,11.95,3.12c3.13,2.08,5.47,4.76,6.99,8.03c1.53,3.28,2.29,6.77,2.29,10.49v3.58
			h-39.46v-5.99h33.64l-1.83,3.25c0-3.16-0.5-5.9-1.5-8.2c-1-2.3-2.5-4.09-4.5-5.37c-2-1.28-4.52-1.91-7.58-1.91
			c-3.16,0-5.79,0.72-7.87,2.16c-2.08,1.44-3.64,3.41-4.66,5.91c-1.03,2.5-1.54,5.38-1.54,8.66c0,3.16,0.51,6.01,1.54,8.53
			c1.03,2.53,2.62,4.52,4.79,5.99c2.16,1.47,4.91,2.21,8.24,2.21c3.5,0,6.34-0.78,8.53-2.33c2.19-1.55,3.51-3.36,3.95-5.41h7.49
			c-0.61,3.05-1.83,5.69-3.66,7.91c-1.83,2.22-4.14,3.91-6.91,5.08C448.32,632.61,445.18,633.19,441.69,633.19z"/>
		<path class="st0" d="M492.72,648.34v-61.11h6.33v19.23l-1.5-0.17c0.28-4.77,1.29-8.67,3.04-11.7c1.75-3.02,4.04-5.26,6.87-6.7
			c2.83-1.44,5.91-2.17,9.24-2.17c3.22,0,6.15,0.61,8.78,1.83c2.64,1.22,4.9,2.89,6.79,5c1.89,2.11,3.33,4.55,4.33,7.33
			c1,2.78,1.5,5.72,1.5,8.83v1.5c0,3.11-0.53,6.05-1.58,8.83c-1.06,2.78-2.54,5.22-4.45,7.33c-1.92,2.11-4.19,3.78-6.83,5
			c-2.64,1.22-5.54,1.83-8.7,1.83c-3.16,0-6.19-0.69-9.07-2.08c-2.89-1.39-5.27-3.63-7.16-6.74c-1.89-3.11-2.97-7.19-3.25-12.24
			l3.66,6.66v29.56H492.72z M515.28,626.2c3,0,5.61-0.71,7.83-2.12c2.22-1.42,3.94-3.38,5.16-5.91c1.22-2.52,1.83-5.42,1.83-8.7
			c0-3.33-0.61-6.24-1.83-8.74c-1.22-2.5-2.94-4.45-5.16-5.87c-2.22-1.42-4.83-2.12-7.83-2.12c-2.66,0-5.13,0.6-7.41,1.79
			c-2.28,1.19-4.09,2.91-5.45,5.16c-1.36,2.25-2.04,4.95-2.04,8.12v3.83c0,3.05,0.69,5.66,2.08,7.83c1.39,2.16,3.22,3.83,5.5,5
			C510.23,625.61,512.68,626.2,515.28,626.2z"/>
		<path class="st0" d="M550.09,631.69v-44.46h6.33v18.32h-0.33c0-6.49,1.43-11.25,4.29-14.28c2.86-3.02,7.15-4.54,12.86-4.54h1.5
			v7.16h-2.83c-4.44,0-7.85,1.18-10.24,3.54c-2.39,2.36-3.58,5.76-3.58,10.2v24.06H550.09z"/>
		<path class="st0" d="M604.7,633.19c-3.89,0-7.3-0.67-10.24-2c-2.94-1.33-5.43-3.09-7.45-5.29c-2.03-2.19-3.55-4.65-4.58-7.37
			c-1.03-2.72-1.54-5.5-1.54-8.33v-1.5c0-2.83,0.53-5.62,1.58-8.37c1.05-2.75,2.61-5.22,4.66-7.41c2.05-2.19,4.55-3.94,7.49-5.25
			c2.94-1.3,6.3-1.96,10.07-1.96c3.77,0,7.13,0.65,10.07,1.96c2.94,1.3,5.44,3.05,7.49,5.25c2.05,2.19,3.61,4.66,4.66,7.41
			c1.05,2.75,1.58,5.54,1.58,8.37v1.5c0,2.83-0.51,5.61-1.54,8.33c-1.03,2.72-2.55,5.18-4.58,7.37c-2.03,2.19-4.51,3.96-7.45,5.29
			C612,632.52,608.59,633.19,604.7,633.19z M604.7,626.03c3.33,0,6.17-0.73,8.53-2.21c2.36-1.47,4.16-3.46,5.41-5.95
			c1.25-2.5,1.87-5.3,1.87-8.41c0-3.16-0.64-5.99-1.92-8.49c-1.28-2.5-3.09-4.47-5.45-5.91c-2.36-1.44-5.18-2.17-8.45-2.17
			c-3.22,0-6.02,0.72-8.41,2.17c-2.39,1.44-4.22,3.41-5.5,5.91c-1.28,2.5-1.91,5.33-1.91,8.49c0,3.11,0.62,5.91,1.87,8.41
			c1.25,2.5,3.05,4.48,5.41,5.95C598.53,625.29,601.37,626.03,604.7,626.03z"/>
		<path class="st0" d="M640.5,631.69v-44.46h6.33v19.07h-1c0-4.33,0.57-8.01,1.71-11.03c1.14-3.02,2.84-5.34,5.12-6.95
			c2.28-1.61,5.16-2.41,8.66-2.41h0.33c3.5,0,6.4,0.81,8.7,2.41c2.3,1.61,4.01,3.93,5.12,6.95c1.11,3.03,1.67,6.7,1.67,11.03h-2.33
			c0-4.33,0.58-8.01,1.75-11.03c1.17-3.02,2.9-5.34,5.2-6.95c2.3-1.61,5.2-2.41,8.7-2.41h0.33c3.5,0,6.41,0.81,8.74,2.41
			c2.33,1.61,4.07,3.93,5.2,6.95c1.14,3.03,1.71,6.7,1.71,11.03v25.39h-7.99v-27.14c0-3.61-0.89-6.4-2.66-8.37
			c-1.78-1.97-4.25-2.96-7.41-2.96c-3.28,0-5.91,1.04-7.91,3.12c-2,2.08-3,4.98-3,8.7v26.64h-7.99v-27.14c0-3.61-0.89-6.4-2.66-8.37
			c-1.78-1.97-4.25-2.96-7.41-2.96c-3.28,0-5.91,1.04-7.91,3.12c-2,2.08-3,4.98-3,8.7v26.64H640.5z"/>
		<path class="st0" d="M741.58,633.19c-3.89,0-7.3-0.67-10.24-2c-2.94-1.33-5.43-3.09-7.45-5.29c-2.03-2.19-3.55-4.65-4.58-7.37
			c-1.03-2.72-1.54-5.5-1.54-8.33v-1.5c0-2.83,0.53-5.62,1.58-8.37c1.05-2.75,2.61-5.22,4.66-7.41c2.05-2.19,4.55-3.94,7.49-5.25
			c2.94-1.3,6.3-1.96,10.07-1.96c3.77,0,7.13,0.65,10.07,1.96c2.94,1.3,5.44,3.05,7.49,5.25c2.05,2.19,3.61,4.66,4.66,7.41
			c1.05,2.75,1.58,5.54,1.58,8.37v1.5c0,2.83-0.51,5.61-1.54,8.33c-1.03,2.72-2.55,5.18-4.58,7.37c-2.03,2.19-4.51,3.96-7.45,5.29
			C748.87,632.52,745.46,633.19,741.58,633.19z M741.58,626.03c3.33,0,6.17-0.73,8.53-2.21c2.36-1.47,4.16-3.46,5.41-5.95
			c1.25-2.5,1.87-5.3,1.87-8.41c0-3.16-0.64-5.99-1.92-8.49c-1.28-2.5-3.09-4.47-5.45-5.91c-2.36-1.44-5.18-2.17-8.45-2.17
			c-3.22,0-6.02,0.72-8.41,2.17c-2.39,1.44-4.22,3.41-5.5,5.91c-1.28,2.5-1.91,5.33-1.91,8.49c0,3.11,0.62,5.91,1.87,8.41
			c1.25,2.5,3.05,4.48,5.41,5.95C735.4,625.29,738.25,626.03,741.58,626.03z"/>
		<path class="st0" d="M786.87,631.69l-15.15-44.46h8.33l14.82,44.46H786.87z M788.87,631.69v-6.33h9.66v6.33H788.87z M792.7,631.69
			l12.9-44.46h7.83l-13.15,44.46H792.7z"/>
		<path class="st0" d="M842.82,633.19c-3.89,0-7.24-0.67-10.07-2c-2.83-1.33-5.13-3.09-6.91-5.29c-1.78-2.19-3.09-4.65-3.95-7.37
			c-0.86-2.72-1.29-5.5-1.29-8.33v-1.5c0-2.89,0.43-5.69,1.29-8.41c0.86-2.72,2.18-5.17,3.95-7.37c1.78-2.19,4.04-3.94,6.79-5.25
			c2.75-1.3,5.98-1.96,9.7-1.96c4.83,0,8.81,1.04,11.95,3.12c3.13,2.08,5.47,4.76,6.99,8.03c1.53,3.28,2.29,6.77,2.29,10.49v3.58
			h-39.46v-5.99h33.64l-1.83,3.25c0-3.16-0.5-5.9-1.5-8.2c-1-2.3-2.5-4.09-4.5-5.37c-2-1.28-4.52-1.91-7.58-1.91
			c-3.16,0-5.79,0.72-7.87,2.16c-2.08,1.44-3.64,3.41-4.66,5.91c-1.03,2.5-1.54,5.38-1.54,8.66c0,3.16,0.51,6.01,1.54,8.53
			c1.03,2.53,2.62,4.52,4.79,5.99c2.16,1.47,4.91,2.21,8.24,2.21c3.5,0,6.34-0.78,8.53-2.33c2.19-1.55,3.51-3.36,3.95-5.41h7.49
			c-0.61,3.05-1.83,5.69-3.66,7.91c-1.83,2.22-4.14,3.91-6.91,5.08C849.45,632.61,846.31,633.19,842.82,633.19z"/>
		<path class="st0" d="M874.87,631.69v-44.46h6.33v19.07h-1c0-4.33,0.57-8.01,1.71-11.03c1.14-3.02,2.84-5.34,5.12-6.95
			c2.28-1.61,5.16-2.41,8.66-2.41h0.33c3.5,0,6.4,0.81,8.7,2.41c2.3,1.61,4.01,3.93,5.12,6.95c1.11,3.03,1.67,6.7,1.67,11.03h-2.33
			c0-4.33,0.58-8.01,1.75-11.03c1.17-3.02,2.9-5.34,5.2-6.95c2.3-1.61,5.2-2.41,8.7-2.41h0.33c3.5,0,6.41,0.81,8.74,2.41
			c2.33,1.61,4.07,3.93,5.2,6.95c1.14,3.03,1.71,6.7,1.71,11.03v25.39h-7.99v-27.14c0-3.61-0.89-6.4-2.66-8.37
			c-1.78-1.97-4.25-2.96-7.41-2.96c-3.28,0-5.91,1.04-7.91,3.12c-2,2.08-3,4.98-3,8.7v26.64h-7.99v-27.14c0-3.61-0.89-6.4-2.66-8.37
			c-1.78-1.97-4.25-2.96-7.41-2.96c-3.28,0-5.91,1.04-7.91,3.12c-2,2.08-3,4.98-3,8.7v26.64H874.87z"/>
		<path class="st0" d="M986.77,632.86c-3.33,0-6.2-0.57-8.62-1.71c-2.41-1.14-4.27-2.79-5.58-4.95c-1.31-2.16-1.96-4.77-1.96-7.83
			c0-3.16,0.71-5.8,2.12-7.91c1.42-2.11,3.48-3.7,6.2-4.79c2.72-1.08,5.99-1.62,9.82-1.62h12.07v5.99h-12.41
			c-3.22,0-5.69,0.78-7.41,2.33c-1.72,1.55-2.58,3.55-2.58,5.99c0,2.44,0.86,4.41,2.58,5.91c1.72,1.5,4.19,2.25,7.41,2.25
			c1.89,0,3.69-0.35,5.41-1.04c1.72-0.69,3.15-1.86,4.29-3.5c1.14-1.64,1.76-3.9,1.87-6.79l2.16,3.16
			c-0.28,3.16-1.04,5.81-2.29,7.95c-1.25,2.14-2.97,3.76-5.16,4.87C992.53,632.3,989.88,632.86,986.77,632.86z M1001.34,631.69
			v-13.32h-1.33v-15.4c0-3.05-0.79-5.36-2.37-6.91c-1.58-1.55-3.9-2.33-6.95-2.33c-1.72,0-3.5,0.03-5.33,0.08
			c-1.83,0.06-3.58,0.11-5.25,0.17c-1.67,0.06-3.11,0.14-4.33,0.25v-6.99c1.22-0.11,2.51-0.21,3.87-0.29
			c1.36-0.08,2.76-0.14,4.2-0.17c1.44-0.03,2.83-0.04,4.16-0.04c4.55,0,8.27,0.54,11.16,1.62c2.89,1.08,5.02,2.84,6.41,5.29
			c1.39,2.44,2.08,5.74,2.08,9.91v28.14H1001.34z"/>
		<path class="st0" d="M1041.3,648.34v-61.11h6.33v19.23l-1.5-0.17c0.28-4.77,1.29-8.67,3.04-11.7c1.75-3.02,4.04-5.26,6.87-6.7
			c2.83-1.44,5.91-2.17,9.24-2.17c3.22,0,6.15,0.61,8.78,1.83c2.64,1.22,4.9,2.89,6.79,5c1.89,2.11,3.33,4.55,4.33,7.33
			c1,2.78,1.5,5.72,1.5,8.83v1.5c0,3.11-0.53,6.05-1.58,8.83c-1.06,2.78-2.54,5.22-4.45,7.33c-1.92,2.11-4.19,3.78-6.83,5
			c-2.64,1.22-5.54,1.83-8.7,1.83c-3.16,0-6.19-0.69-9.07-2.08c-2.89-1.39-5.27-3.63-7.16-6.74c-1.89-3.11-2.97-7.19-3.25-12.24
			l3.66,6.66v29.56H1041.3z M1063.86,626.2c3,0,5.61-0.71,7.83-2.12c2.22-1.42,3.94-3.38,5.16-5.91c1.22-2.52,1.83-5.42,1.83-8.7
			c0-3.33-0.61-6.24-1.83-8.74c-1.22-2.5-2.94-4.45-5.16-5.87c-2.22-1.42-4.83-2.12-7.83-2.12c-2.66,0-5.13,0.6-7.41,1.79
			c-2.28,1.19-4.09,2.91-5.45,5.16c-1.36,2.25-2.04,4.95-2.04,8.12v3.83c0,3.05,0.69,5.66,2.08,7.83c1.39,2.16,3.22,3.83,5.5,5
			C1058.81,625.61,1061.25,626.2,1063.86,626.2z"/>
		<path class="st0" d="M1110.99,632.86c-3.33,0-6.2-0.57-8.62-1.71c-2.41-1.14-4.27-2.79-5.58-4.95c-1.31-2.16-1.96-4.77-1.96-7.83
			c0-3.16,0.71-5.8,2.12-7.91c1.42-2.11,3.48-3.7,6.2-4.79c2.72-1.08,5.99-1.62,9.82-1.62h12.07v5.99h-12.41
			c-3.22,0-5.69,0.78-7.41,2.33c-1.72,1.55-2.58,3.55-2.58,5.99c0,2.44,0.86,4.41,2.58,5.91c1.72,1.5,4.19,2.25,7.41,2.25
			c1.89,0,3.69-0.35,5.41-1.04c1.72-0.69,3.15-1.86,4.29-3.5c1.14-1.64,1.76-3.9,1.87-6.79l2.16,3.16
			c-0.28,3.16-1.04,5.81-2.29,7.95c-1.25,2.14-2.97,3.76-5.16,4.87C1116.74,632.3,1114.09,632.86,1110.99,632.86z M1125.56,631.69
			v-13.32h-1.33v-15.4c0-3.05-0.79-5.36-2.37-6.91c-1.58-1.55-3.9-2.33-6.95-2.33c-1.72,0-3.5,0.03-5.33,0.08
			c-1.83,0.06-3.58,0.11-5.25,0.17c-1.67,0.06-3.11,0.14-4.33,0.25v-6.99c1.22-0.11,2.51-0.21,3.87-0.29
			c1.36-0.08,2.76-0.14,4.2-0.17c1.44-0.03,2.83-0.04,4.16-0.04c4.55,0,8.27,0.54,11.16,1.62c2.89,1.08,5.02,2.84,6.41,5.29
			c1.39,2.44,2.08,5.74,2.08,9.91v28.14H1125.56z"/>
		<path class="st0" d="M1146.54,631.69v-44.46h6.33v18.32h-0.33c0-6.49,1.43-11.25,4.29-14.28c2.86-3.02,7.15-4.54,12.86-4.54h1.5
			v7.16h-2.83c-4.44,0-7.85,1.18-10.24,3.54c-2.39,2.36-3.58,5.76-3.58,10.2v24.06H1146.54z"/>
		<path class="st0" d="M1174.18,593.23v-5.99h30.64v5.99H1174.18z M1197.99,632.19c-3.33,0-6.2-0.47-8.62-1.42
			c-2.41-0.94-4.27-2.57-5.58-4.87c-1.3-2.3-1.96-5.42-1.96-9.37v-42.79h7.66v43.79c0,2.39,0.65,4.23,1.96,5.54
			c1.3,1.3,3.15,1.96,5.54,1.96h7.83v7.16H1197.99z"/>
		<path class="st0" d="M1211.48,593.56v-6.33h14.82v6.33H1211.48z M1220.55,580.07c-1.78,0-3.09-0.47-3.95-1.42
			c-0.86-0.94-1.29-2.14-1.29-3.58c0-1.44,0.43-2.64,1.29-3.58c0.86-0.94,2.18-1.42,3.95-1.42c1.78,0,3.09,0.47,3.95,1.42
			c0.86,0.94,1.29,2.14,1.29,3.58c0,1.44-0.43,2.64-1.29,3.58C1223.65,579.6,1222.33,580.07,1220.55,580.07z M1218.3,631.69v-44.46
			h7.99v44.46H1218.3z"/>
		<path class="st0" d="M1236.12,577.24v-6.33h14.15v6.33H1236.12z M1242.28,631.69v-60.78h7.99v60.78H1242.28z"/>
		<path class="st0" d="M1265.59,631.69v-60.78h7.99v36.3h-2c0-4.38,0.57-8.17,1.71-11.36c1.14-3.19,2.9-5.65,5.29-7.37
			c2.39-1.72,5.44-2.58,9.16-2.58h0.33c5.33,0,9.35,1.76,12.07,5.29c2.72,3.53,4.08,8.56,4.08,15.11v25.39h-7.99v-27.06
			c0-3.61-1.01-6.41-3.04-8.41c-2.03-2-4.65-3-7.87-3c-3.55,0-6.4,1.18-8.53,3.54c-2.14,2.36-3.21,5.45-3.21,9.28v25.64H1265.59z"/>
		<path class="st0" d="M1331.2,632.86c-3.33,0-6.2-0.57-8.62-1.71c-2.41-1.14-4.27-2.79-5.58-4.95c-1.31-2.16-1.96-4.77-1.96-7.83
			c0-3.16,0.71-5.8,2.12-7.91c1.42-2.11,3.48-3.7,6.2-4.79c2.72-1.08,5.99-1.62,9.82-1.62h12.07v5.99h-12.41
			c-3.22,0-5.69,0.78-7.41,2.33c-1.72,1.55-2.58,3.55-2.58,5.99c0,2.44,0.86,4.41,2.58,5.91c1.72,1.5,4.19,2.25,7.41,2.25
			c1.89,0,3.69-0.35,5.41-1.04c1.72-0.69,3.15-1.86,4.29-3.5c1.14-1.64,1.76-3.9,1.87-6.79l2.16,3.16
			c-0.28,3.16-1.04,5.81-2.29,7.95c-1.25,2.14-2.97,3.76-5.16,4.87C1336.96,632.3,1334.31,632.86,1331.2,632.86z M1345.77,631.69
			v-13.32h-1.33v-15.4c0-3.05-0.79-5.36-2.37-6.91c-1.58-1.55-3.9-2.33-6.95-2.33c-1.72,0-3.5,0.03-5.33,0.08
			c-1.83,0.06-3.58,0.11-5.25,0.17c-1.67,0.06-3.11,0.14-4.33,0.25v-6.99c1.22-0.11,2.51-0.21,3.87-0.29
			c1.36-0.08,2.76-0.14,4.2-0.17c1.44-0.03,2.83-0.04,4.16-0.04c4.55,0,8.27,0.54,11.16,1.62c2.89,1.08,5.02,2.84,6.41,5.29
			c1.39,2.44,2.08,5.74,2.08,9.91v28.14H1345.77z"/>
		<path class="st0" d="M1367.67,644.76l-6.41-2.41l7.74-21.48l6.58,2.5L1367.67,644.76z"/>
		<path class="st0" d="M325.46,743.87c-3.33,0-6.2-0.57-8.62-1.71c-2.41-1.14-4.27-2.79-5.58-4.95c-1.31-2.16-1.96-4.77-1.96-7.83
			c0-3.16,0.71-5.8,2.12-7.91c1.42-2.11,3.48-3.7,6.2-4.79c2.72-1.08,5.99-1.62,9.82-1.62h12.07v5.99h-12.41
			c-3.22,0-5.69,0.78-7.41,2.33c-1.72,1.55-2.58,3.55-2.58,5.99c0,2.44,0.86,4.41,2.58,5.91c1.72,1.5,4.19,2.25,7.41,2.25
			c1.89,0,3.69-0.35,5.41-1.04c1.72-0.69,3.15-1.86,4.29-3.5c1.14-1.64,1.76-3.9,1.87-6.79l2.16,3.16
			c-0.28,3.16-1.04,5.81-2.29,7.95c-1.25,2.14-2.97,3.76-5.16,4.87C331.22,743.31,328.57,743.87,325.46,743.87z M340.03,742.7
			v-13.32h-1.33v-15.4c0-3.05-0.79-5.36-2.37-6.91c-1.58-1.55-3.9-2.33-6.95-2.33c-1.72,0-3.5,0.03-5.33,0.08
			c-1.83,0.06-3.58,0.11-5.25,0.17c-1.67,0.06-3.11,0.14-4.33,0.25v-6.99c1.22-0.11,2.51-0.21,3.87-0.29
			c1.36-0.08,2.76-0.14,4.2-0.17c1.44-0.03,2.83-0.04,4.16-0.04c4.55,0,8.27,0.54,11.16,1.62c2.89,1.08,5.02,2.85,6.41,5.29
			c1.39,2.44,2.08,5.74,2.08,9.91v28.14H340.03z"/>
		<path class="st0" d="M399.06,744.2c-3.83,0-7.15-0.67-9.95-2c-2.8-1.33-5.12-3.12-6.95-5.37c-1.83-2.25-3.21-4.73-4.12-7.45
			c-0.92-2.72-1.37-5.44-1.37-8.16v-1.5c0-2.83,0.46-5.61,1.37-8.33c0.92-2.72,2.3-5.18,4.16-7.37c1.86-2.19,4.18-3.95,6.95-5.29
			c2.77-1.33,6.02-2,9.74-2c3.72,0,7.06,0.69,10.03,2.08c2.97,1.39,5.36,3.34,7.16,5.87c1.8,2.53,2.82,5.51,3.04,8.95h-7.66
			c-0.39-2.77-1.67-5.09-3.83-6.95c-2.16-1.86-5.08-2.79-8.74-2.79c-3.16,0-5.8,0.72-7.91,2.17c-2.11,1.44-3.69,3.41-4.75,5.91
			c-1.05,2.5-1.58,5.33-1.58,8.49c0,3.05,0.53,5.84,1.58,8.37c1.05,2.53,2.65,4.52,4.79,5.99c2.14,1.47,4.81,2.21,8.03,2.21
			c2.5,0,4.66-0.44,6.49-1.33c1.83-0.89,3.3-2.08,4.41-3.58c1.11-1.5,1.78-3.19,2-5.08h7.66c-0.17,3.5-1.18,6.52-3.04,9.07
			c-1.86,2.55-4.3,4.54-7.33,5.95C406.23,743.49,402.83,744.2,399.06,744.2z"/>
		<path class="st0" d="M450.93,744.2c-3.89,0-7.3-0.67-10.24-2c-2.94-1.33-5.43-3.09-7.45-5.29c-2.03-2.19-3.55-4.65-4.58-7.37
			c-1.03-2.72-1.54-5.5-1.54-8.33v-1.5c0-2.83,0.53-5.62,1.58-8.37c1.05-2.75,2.61-5.22,4.66-7.41c2.05-2.19,4.55-3.94,7.49-5.25
			c2.94-1.3,6.3-1.96,10.07-1.96c3.77,0,7.13,0.65,10.07,1.96c2.94,1.31,5.44,3.05,7.49,5.25c2.05,2.19,3.61,4.66,4.66,7.41
			c1.05,2.75,1.58,5.54,1.58,8.37v1.5c0,2.83-0.51,5.61-1.54,8.33c-1.03,2.72-2.55,5.18-4.58,7.37c-2.03,2.19-4.51,3.95-7.45,5.29
			C458.22,743.53,454.81,744.2,450.93,744.2z M450.93,737.04c3.33,0,6.17-0.73,8.53-2.21c2.36-1.47,4.16-3.46,5.41-5.95
			c1.25-2.5,1.87-5.3,1.87-8.41c0-3.16-0.64-5.99-1.92-8.49c-1.28-2.5-3.09-4.47-5.45-5.91c-2.36-1.44-5.18-2.17-8.45-2.17
			c-3.22,0-6.02,0.72-8.41,2.17c-2.39,1.44-4.22,3.41-5.5,5.91c-1.28,2.5-1.91,5.33-1.91,8.49c0,3.11,0.62,5.91,1.87,8.41
			c1.25,2.5,3.05,4.48,5.41,5.95C444.75,736.31,447.6,737.04,450.93,737.04z"/>
		<path class="st0" d="M481.07,688.25v-6.33h14.15v6.33H481.07z M487.23,742.7v-60.78h7.99v60.78H487.23z"/>
		<path class="st0" d="M522.86,743.87c-3.33,0-6.2-0.57-8.62-1.71c-2.41-1.14-4.27-2.79-5.58-4.95c-1.31-2.16-1.96-4.77-1.96-7.83
			c0-3.16,0.71-5.8,2.12-7.91c1.42-2.11,3.48-3.7,6.2-4.79c2.72-1.08,5.99-1.62,9.82-1.62h12.07v5.99h-12.41
			c-3.22,0-5.69,0.78-7.41,2.33c-1.72,1.55-2.58,3.55-2.58,5.99c0,2.44,0.86,4.41,2.58,5.91c1.72,1.5,4.19,2.25,7.41,2.25
			c1.89,0,3.69-0.35,5.41-1.04c1.72-0.69,3.15-1.86,4.29-3.5c1.14-1.64,1.76-3.9,1.87-6.79l2.16,3.16
			c-0.28,3.16-1.04,5.81-2.29,7.95c-1.25,2.14-2.97,3.76-5.16,4.87C528.62,743.31,525.97,743.87,522.86,743.87z M537.43,742.7
			v-13.32h-1.33v-15.4c0-3.05-0.79-5.36-2.37-6.91c-1.58-1.55-3.9-2.33-6.95-2.33c-1.72,0-3.5,0.03-5.33,0.08
			c-1.83,0.06-3.58,0.11-5.25,0.17c-1.67,0.06-3.11,0.14-4.33,0.25v-6.99c1.22-0.11,2.51-0.21,3.87-0.29
			c1.36-0.08,2.76-0.14,4.2-0.17c1.44-0.03,2.83-0.04,4.16-0.04c4.55,0,8.27,0.54,11.16,1.62c2.89,1.08,5.02,2.85,6.41,5.29
			c1.39,2.44,2.08,5.74,2.08,9.91v28.14H537.43z"/>
		<path class="st0" d="M581.89,744.2c-3.66,0-6.92-0.81-9.78-2.41c-2.86-1.61-5.12-3.95-6.79-7.04c-1.67-3.08-2.58-6.79-2.75-11.12
			h2.16v19.07h-6.33v-60.78h7.99v29.56l-2.83,6.08c0.22-4.83,1.19-8.77,2.91-11.82c1.72-3.05,3.98-5.31,6.79-6.79
			c2.8-1.47,5.9-2.21,9.28-2.21c3.16,0,6.05,0.6,8.66,1.79c2.61,1.19,4.86,2.83,6.74,4.91c1.89,2.08,3.33,4.5,4.33,7.24
			s1.5,5.7,1.5,8.87v1.5c0,3.16-0.51,6.13-1.54,8.91c-1.03,2.78-2.51,5.23-4.45,7.37c-1.94,2.14-4.26,3.82-6.95,5.04
			C588.15,743.59,585.16,744.2,581.89,744.2z M580.97,737.21c3,0,5.61-0.72,7.83-2.16c2.22-1.44,3.94-3.43,5.16-5.95
			c1.22-2.52,1.83-5.45,1.83-8.78s-0.62-6.24-1.87-8.74c-1.25-2.5-2.98-4.43-5.2-5.79c-2.22-1.36-4.8-2.04-7.74-2.04
			c-2.66,0-5.13,0.6-7.41,1.79c-2.28,1.19-4.09,2.91-5.45,5.16c-1.36,2.25-2.04,4.95-2.04,8.12v3.83c0,3.05,0.69,5.66,2.08,7.83
			c1.39,2.17,3.22,3.83,5.5,5C575.92,736.62,578.36,737.21,580.97,737.21z"/>
		<path class="st0" d="M636.26,744.2c-3.89,0-7.3-0.67-10.24-2c-2.94-1.33-5.43-3.09-7.45-5.29c-2.03-2.19-3.55-4.65-4.58-7.37
			c-1.03-2.72-1.54-5.5-1.54-8.33v-1.5c0-2.83,0.53-5.62,1.58-8.37c1.05-2.75,2.61-5.22,4.66-7.41c2.05-2.19,4.55-3.94,7.49-5.25
			c2.94-1.3,6.3-1.96,10.07-1.96c3.77,0,7.13,0.65,10.07,1.96c2.94,1.31,5.44,3.05,7.49,5.25c2.05,2.19,3.61,4.66,4.66,7.41
			c1.05,2.75,1.58,5.54,1.58,8.37v1.5c0,2.83-0.51,5.61-1.54,8.33c-1.03,2.72-2.55,5.18-4.58,7.37c-2.03,2.19-4.51,3.95-7.45,5.29
			C643.55,743.53,640.14,744.2,636.26,744.2z M636.26,737.04c3.33,0,6.17-0.73,8.53-2.21c2.36-1.47,4.16-3.46,5.41-5.95
			c1.25-2.5,1.87-5.3,1.87-8.41c0-3.16-0.64-5.99-1.92-8.49c-1.28-2.5-3.09-4.47-5.45-5.91c-2.36-1.44-5.18-2.17-8.45-2.17
			c-3.22,0-6.02,0.72-8.41,2.17c-2.39,1.44-4.22,3.41-5.5,5.91c-1.28,2.5-1.91,5.33-1.91,8.49c0,3.11,0.62,5.91,1.87,8.41
			c1.25,2.5,3.05,4.48,5.41,5.95C630.08,736.31,632.93,737.04,636.26,737.04z"/>
		<path class="st0" d="M672.06,742.7v-44.46h6.33v18.32h-0.33c0-6.49,1.43-11.25,4.29-14.28c2.86-3.02,7.15-4.54,12.86-4.54h1.5
			v7.16h-2.83c-4.44,0-7.85,1.18-10.24,3.54c-2.39,2.36-3.58,5.76-3.58,10.2v24.06H672.06z"/>
		<path class="st0" d="M718.51,743.87c-3.33,0-6.2-0.57-8.62-1.71c-2.41-1.14-4.27-2.79-5.58-4.95c-1.31-2.16-1.96-4.77-1.96-7.83
			c0-3.16,0.71-5.8,2.12-7.91c1.42-2.11,3.48-3.7,6.2-4.79c2.72-1.08,5.99-1.62,9.82-1.62h12.07v5.99h-12.41
			c-3.22,0-5.69,0.78-7.41,2.33c-1.72,1.55-2.58,3.55-2.58,5.99c0,2.44,0.86,4.41,2.58,5.91c1.72,1.5,4.19,2.25,7.41,2.25
			c1.89,0,3.69-0.35,5.41-1.04c1.72-0.69,3.15-1.86,4.29-3.5c1.14-1.64,1.76-3.9,1.87-6.79l2.16,3.16
			c-0.28,3.16-1.04,5.81-2.29,7.95c-1.25,2.14-2.97,3.76-5.16,4.87C724.27,743.31,721.62,743.87,718.51,743.87z M733.08,742.7
			v-13.32h-1.33v-15.4c0-3.05-0.79-5.36-2.37-6.91c-1.58-1.55-3.9-2.33-6.95-2.33c-1.72,0-3.5,0.03-5.33,0.08
			c-1.83,0.06-3.58,0.11-5.25,0.17c-1.67,0.06-3.11,0.14-4.33,0.25v-6.99c1.22-0.11,2.51-0.21,3.87-0.29
			c1.36-0.08,2.76-0.14,4.2-0.17c1.44-0.03,2.83-0.04,4.16-0.04c4.55,0,8.27,0.54,11.16,1.62c2.89,1.08,5.02,2.85,6.41,5.29
			c1.39,2.44,2.08,5.74,2.08,9.91v28.14H733.08z"/>
		<path class="st0" d="M773.13,744.2c-3.83,0-7.15-0.67-9.95-2c-2.8-1.33-5.12-3.12-6.95-5.37c-1.83-2.25-3.21-4.73-4.12-7.45
			c-0.92-2.72-1.37-5.44-1.37-8.16v-1.5c0-2.83,0.46-5.61,1.37-8.33c0.92-2.72,2.3-5.18,4.16-7.37c1.86-2.19,4.18-3.95,6.95-5.29
			c2.77-1.33,6.02-2,9.74-2c3.72,0,7.06,0.69,10.03,2.08c2.97,1.39,5.36,3.34,7.16,5.87c1.8,2.53,2.82,5.51,3.04,8.95h-7.66
			c-0.39-2.77-1.67-5.09-3.83-6.95c-2.16-1.86-5.08-2.79-8.74-2.79c-3.16,0-5.8,0.72-7.91,2.17c-2.11,1.44-3.69,3.41-4.75,5.91
			c-1.05,2.5-1.58,5.33-1.58,8.49c0,3.05,0.53,5.84,1.58,8.37c1.05,2.53,2.65,4.52,4.79,5.99c2.14,1.47,4.81,2.21,8.03,2.21
			c2.5,0,4.66-0.44,6.49-1.33c1.83-0.89,3.3-2.08,4.41-3.58c1.11-1.5,1.78-3.19,2-5.08h7.66c-0.17,3.5-1.18,6.52-3.04,9.07
			c-1.86,2.55-4.3,4.54-7.33,5.95C780.3,743.49,776.9,744.2,773.13,744.2z M772.46,762.85c-1.06,0-2.07-0.07-3.04-0.21
			c-0.97-0.14-1.85-0.32-2.62-0.54v-5.33c0.78,0.22,1.68,0.4,2.71,0.54c1.03,0.14,2.01,0.21,2.96,0.21c1.78,0,3.08-0.29,3.91-0.87
			c0.83-0.58,1.25-1.32,1.25-2.21c0-0.89-0.35-1.6-1.04-2.12c-0.69-0.53-1.85-0.79-3.46-0.79h-3.16v-9.66h4.83v7.91l-3.41-3.08h1.33
			c3.16,0,5.72,0.65,7.66,1.96c1.94,1.3,2.91,3.18,2.91,5.62c0,2.39-0.96,4.41-2.87,6.08S775.85,762.85,772.46,762.85z"/>
		<path class="st0" d="M816.84,743.87c-3.33,0-6.2-0.57-8.62-1.71c-2.41-1.14-4.27-2.79-5.58-4.95c-1.31-2.16-1.96-4.77-1.96-7.83
			c0-3.16,0.71-5.8,2.12-7.91c1.42-2.11,3.48-3.7,6.2-4.79c2.72-1.08,5.99-1.62,9.82-1.62h12.07v5.99h-12.41
			c-3.22,0-5.69,0.78-7.41,2.33c-1.72,1.55-2.58,3.55-2.58,5.99c0,2.44,0.86,4.41,2.58,5.91c1.72,1.5,4.19,2.25,7.41,2.25
			c1.89,0,3.69-0.35,5.41-1.04c1.72-0.69,3.15-1.86,4.29-3.5c1.14-1.64,1.76-3.9,1.87-6.79l2.16,3.16
			c-0.28,3.16-1.04,5.81-2.29,7.95c-1.25,2.14-2.97,3.76-5.16,4.87C822.6,743.31,819.95,743.87,816.84,743.87z M831.41,742.7v-13.32
			h-1.33v-15.4c0-3.05-0.79-5.36-2.37-6.91c-1.58-1.55-3.9-2.33-6.95-2.33c-1.72,0-3.5,0.03-5.33,0.08
			c-1.83,0.06-3.58,0.11-5.25,0.17c-1.67,0.06-3.11,0.14-4.33,0.25v-6.99c1.22-0.11,2.51-0.21,3.87-0.29
			c1.36-0.08,2.76-0.14,4.2-0.17c1.44-0.03,2.83-0.04,4.16-0.04c4.55,0,8.27,0.54,11.16,1.62c2.89,1.08,5.02,2.85,6.41,5.29
			c1.39,2.44,2.08,5.74,2.08,9.91v28.14H831.41z M825.75,689.33c-1.39,0-2.58-0.21-3.58-0.62c-1-0.42-1.92-0.9-2.75-1.46
			c-0.83-0.55-1.67-1.04-2.5-1.46s-1.78-0.62-2.83-0.62c-1.17,0-2.23,0.29-3.21,0.87c-0.97,0.58-1.85,1.37-2.62,2.37l-1.33-5.33
			c0.83-1.05,1.87-1.94,3.12-2.66c1.25-0.72,2.68-1.08,4.29-1.08c1.39,0,2.58,0.21,3.58,0.62c1,0.42,1.92,0.9,2.75,1.46
			c0.83,0.56,1.67,1.04,2.5,1.46c0.83,0.42,1.78,0.62,2.83,0.62c1.17,0,2.25-0.29,3.25-0.87c1-0.58,1.89-1.37,2.66-2.37l1.33,5.33
			c-0.83,1.06-1.89,1.94-3.16,2.66C828.8,688.97,827.36,689.33,825.75,689.33z"/>
		<path class="st0" d="M872.87,744.2c-3.89,0-7.3-0.67-10.24-2c-2.94-1.33-5.43-3.09-7.45-5.29c-2.03-2.19-3.55-4.65-4.58-7.37
			c-1.03-2.72-1.54-5.5-1.54-8.33v-1.5c0-2.83,0.53-5.62,1.58-8.37c1.05-2.75,2.61-5.22,4.66-7.41c2.05-2.19,4.55-3.94,7.49-5.25
			c2.94-1.3,6.3-1.96,10.07-1.96c3.77,0,7.13,0.65,10.07,1.96c2.94,1.31,5.44,3.05,7.49,5.25c2.05,2.19,3.61,4.66,4.66,7.41
			c1.05,2.75,1.58,5.54,1.58,8.37v1.5c0,2.83-0.51,5.61-1.54,8.33c-1.03,2.72-2.55,5.18-4.58,7.37c-2.03,2.19-4.51,3.95-7.45,5.29
			C880.17,743.53,876.76,744.2,872.87,744.2z M872.87,737.04c3.33,0,6.17-0.73,8.53-2.21c2.36-1.47,4.16-3.46,5.41-5.95
			c1.25-2.5,1.87-5.3,1.87-8.41c0-3.16-0.64-5.99-1.92-8.49c-1.28-2.5-3.09-4.47-5.45-5.91c-2.36-1.44-5.18-2.17-8.45-2.17
			c-3.22,0-6.02,0.72-8.41,2.17c-2.39,1.44-4.22,3.41-5.5,5.91c-1.28,2.5-1.91,5.33-1.91,8.49c0,3.11,0.62,5.91,1.87,8.41
			c1.25,2.5,3.05,4.48,5.41,5.95C866.7,736.31,869.54,737.04,872.87,737.04z"/>
		<path class="st0" d="M946.55,744.2c-3.89,0-7.24-0.67-10.07-2c-2.83-1.33-5.13-3.09-6.91-5.29c-1.78-2.19-3.09-4.65-3.95-7.37
			c-0.86-2.72-1.29-5.5-1.29-8.33v-1.5c0-2.89,0.43-5.69,1.29-8.41c0.86-2.72,2.18-5.18,3.95-7.37c1.78-2.19,4.04-3.94,6.79-5.25
			c2.75-1.3,5.98-1.96,9.7-1.96c4.83,0,8.81,1.04,11.95,3.12c3.13,2.08,5.47,4.76,6.99,8.03c1.53,3.28,2.29,6.77,2.29,10.49v3.58
			h-39.46v-5.99h33.64l-1.83,3.25c0-3.16-0.5-5.9-1.5-8.2c-1-2.3-2.5-4.09-4.5-5.37c-2-1.28-4.52-1.92-7.58-1.92
			c-3.16,0-5.79,0.72-7.87,2.17c-2.08,1.44-3.64,3.41-4.66,5.91c-1.03,2.5-1.54,5.38-1.54,8.66c0,3.16,0.51,6.01,1.54,8.53
			c1.03,2.53,2.62,4.52,4.79,6c2.16,1.47,4.91,2.21,8.24,2.21c3.5,0,6.34-0.78,8.53-2.33c2.19-1.55,3.51-3.36,3.95-5.41h7.49
			c-0.61,3.05-1.83,5.69-3.66,7.91c-1.83,2.22-4.14,3.91-6.91,5.08C953.19,743.62,950.05,744.2,946.55,744.2z"/>
		<path class="st0" d="M1009.91,743.87c-3.33,0-6.2-0.57-8.62-1.71c-2.41-1.14-4.27-2.79-5.58-4.95c-1.31-2.16-1.96-4.77-1.96-7.83
			c0-3.16,0.71-5.8,2.12-7.91c1.42-2.11,3.48-3.7,6.2-4.79c2.72-1.08,5.99-1.62,9.82-1.62h12.07v5.99h-12.41
			c-3.22,0-5.69,0.78-7.41,2.33c-1.72,1.55-2.58,3.55-2.58,5.99c0,2.44,0.86,4.41,2.58,5.91c1.72,1.5,4.19,2.25,7.41,2.25
			c1.89,0,3.69-0.35,5.41-1.04c1.72-0.69,3.15-1.86,4.29-3.5c1.14-1.64,1.76-3.9,1.87-6.79l2.16,3.16
			c-0.28,3.16-1.04,5.81-2.29,7.95c-1.25,2.14-2.97,3.76-5.16,4.87C1015.67,743.31,1013.02,743.87,1009.91,743.87z M1024.48,742.7
			v-13.32h-1.33v-15.4c0-3.05-0.79-5.36-2.37-6.91c-1.58-1.55-3.9-2.33-6.95-2.33c-1.72,0-3.5,0.03-5.33,0.08
			c-1.83,0.06-3.58,0.11-5.25,0.17c-1.67,0.06-3.11,0.14-4.33,0.25v-6.99c1.22-0.11,2.51-0.21,3.87-0.29
			c1.36-0.08,2.76-0.14,4.2-0.17c1.44-0.03,2.83-0.04,4.16-0.04c4.55,0,8.27,0.54,11.16,1.62c2.89,1.08,5.02,2.85,6.41,5.29
			c1.39,2.44,2.08,5.74,2.08,9.91v28.14H1024.48z"/>
		<path class="st0" d="M1064.45,759.35v-61.11h6.33v19.23l-1.5-0.17c0.28-4.77,1.29-8.67,3.04-11.7c1.75-3.02,4.04-5.26,6.87-6.7
			c2.83-1.44,5.91-2.17,9.24-2.17c3.22,0,6.15,0.61,8.78,1.83c2.64,1.22,4.9,2.89,6.79,5c1.89,2.11,3.33,4.55,4.33,7.33
			c1,2.78,1.5,5.72,1.5,8.83v1.5c0,3.11-0.53,6.05-1.58,8.83c-1.06,2.78-2.54,5.22-4.45,7.33c-1.92,2.11-4.19,3.78-6.83,5
			c-2.64,1.22-5.54,1.83-8.7,1.83c-3.16,0-6.19-0.69-9.07-2.08c-2.89-1.39-5.27-3.63-7.16-6.74c-1.89-3.11-2.97-7.19-3.25-12.24
			l3.66,6.66v29.56H1064.45z M1087.01,737.21c3,0,5.61-0.71,7.83-2.12c2.22-1.42,3.94-3.38,5.16-5.91c1.22-2.53,1.83-5.42,1.83-8.7
			c0-3.33-0.61-6.24-1.83-8.74c-1.22-2.5-2.94-4.45-5.16-5.87c-2.22-1.42-4.83-2.12-7.83-2.12c-2.66,0-5.13,0.6-7.41,1.79
			c-2.28,1.19-4.09,2.91-5.45,5.16c-1.36,2.25-2.04,4.95-2.04,8.12v3.83c0,3.05,0.69,5.66,2.08,7.83c1.39,2.17,3.22,3.83,5.5,5
			C1081.96,736.62,1084.4,737.21,1087.01,737.21z"/>
		<path class="st0" d="M1134.13,743.87c-3.33,0-6.2-0.57-8.62-1.71c-2.41-1.14-4.27-2.79-5.58-4.95c-1.31-2.16-1.96-4.77-1.96-7.83
			c0-3.16,0.71-5.8,2.12-7.91c1.42-2.11,3.48-3.7,6.2-4.79c2.72-1.08,5.99-1.62,9.82-1.62h12.07v5.99h-12.41
			c-3.22,0-5.69,0.78-7.41,2.33c-1.72,1.55-2.58,3.55-2.58,5.99c0,2.44,0.86,4.41,2.58,5.91c1.72,1.5,4.19,2.25,7.41,2.25
			c1.89,0,3.69-0.35,5.41-1.04c1.72-0.69,3.15-1.86,4.29-3.5c1.14-1.64,1.76-3.9,1.87-6.79l2.16,3.16
			c-0.28,3.16-1.04,5.81-2.29,7.95c-1.25,2.14-2.97,3.76-5.16,4.87C1139.89,743.31,1137.24,743.87,1134.13,743.87z M1148.7,742.7
			v-13.32h-1.33v-15.4c0-3.05-0.79-5.36-2.37-6.91c-1.58-1.55-3.9-2.33-6.95-2.33c-1.72,0-3.5,0.03-5.33,0.08
			c-1.83,0.06-3.58,0.11-5.25,0.17c-1.67,0.06-3.11,0.14-4.33,0.25v-6.99c1.22-0.11,2.51-0.21,3.87-0.29
			c1.36-0.08,2.76-0.14,4.2-0.17c1.44-0.03,2.83-0.04,4.16-0.04c4.55,0,8.27,0.54,11.16,1.62c2.89,1.08,5.02,2.85,6.41,5.29
			c1.39,2.44,2.08,5.74,2.08,9.91v28.14H1148.7z"/>
		<path class="st0" d="M1169.68,742.7v-44.46h6.33v18.32h-0.33c0-6.49,1.43-11.25,4.29-14.28c2.86-3.02,7.15-4.54,12.86-4.54h1.5
			v7.16h-2.83c-4.44,0-7.85,1.18-10.24,3.54c-2.39,2.36-3.58,5.76-3.58,10.2v24.06H1169.68z"/>
		<path class="st0" d="M1197.32,704.24v-6h30.64v6H1197.32z M1221.14,743.2c-3.33,0-6.2-0.47-8.62-1.42
			c-2.41-0.94-4.27-2.57-5.58-4.87c-1.3-2.3-1.96-5.42-1.96-9.37v-42.79h7.66v43.79c0,2.39,0.65,4.23,1.96,5.54
			c1.3,1.3,3.15,1.96,5.54,1.96h7.83v7.16H1221.14z"/>
		<path class="st0" d="M1234.62,704.57v-6.33h14.82v6.33H1234.62z M1243.7,691.08c-1.78,0-3.09-0.47-3.95-1.42
			c-0.86-0.94-1.29-2.14-1.29-3.58c0-1.44,0.43-2.64,1.29-3.58c0.86-0.94,2.18-1.42,3.95-1.42c1.78,0,3.09,0.47,3.95,1.42
			c0.86,0.94,1.29,2.14,1.29,3.58c0,1.44-0.43,2.64-1.29,3.58C1246.79,690.61,1245.47,691.08,1243.7,691.08z M1241.45,742.7v-44.46
			h7.99v44.46H1241.45z"/>
		<path class="st0" d="M1283.99,744.2c-3.83,0-7.15-0.67-9.95-2c-2.8-1.33-5.12-3.12-6.95-5.37c-1.83-2.25-3.21-4.73-4.12-7.45
			c-0.92-2.72-1.37-5.44-1.37-8.16v-1.5c0-2.83,0.46-5.61,1.37-8.33c0.92-2.72,2.3-5.18,4.16-7.37c1.86-2.19,4.18-3.95,6.95-5.29
			c2.77-1.33,6.02-2,9.74-2c3.72,0,7.06,0.69,10.03,2.08c2.97,1.39,5.36,3.34,7.16,5.87c1.8,2.53,2.82,5.51,3.04,8.95h-7.66
			c-0.39-2.77-1.67-5.09-3.83-6.95c-2.16-1.86-5.08-2.79-8.74-2.79c-3.16,0-5.8,0.72-7.91,2.17c-2.11,1.44-3.69,3.41-4.75,5.91
			c-1.05,2.5-1.58,5.33-1.58,8.49c0,3.05,0.53,5.84,1.58,8.37c1.05,2.53,2.65,4.52,4.79,5.99c2.14,1.47,4.81,2.21,8.03,2.21
			c2.5,0,4.66-0.44,6.49-1.33c1.83-0.89,3.3-2.08,4.41-3.58c1.11-1.5,1.78-3.19,2-5.08h7.66c-0.17,3.5-1.18,6.52-3.04,9.07
			c-1.86,2.55-4.3,4.54-7.33,5.95C1291.17,743.49,1287.77,744.2,1283.99,744.2z"/>
		<path class="st0" d="M1310.72,704.57v-6.33h14.82v6.33H1310.72z M1319.79,691.08c-1.78,0-3.09-0.47-3.95-1.42
			c-0.86-0.94-1.29-2.14-1.29-3.58c0-1.44,0.43-2.64,1.29-3.58c0.86-0.94,2.18-1.42,3.95-1.42c1.78,0,3.09,0.47,3.95,1.42
			c0.86,0.94,1.29,2.14,1.29,3.58c0,1.44-0.43,2.64-1.29,3.58C1322.89,690.61,1321.57,691.08,1319.79,691.08z M1317.55,742.7v-44.46
			h7.99v44.46H1317.55z"/>
		<path class="st0" d="M1341.02,759.35v-61.11h6.33v19.23l-1.5-0.17c0.28-4.77,1.29-8.67,3.04-11.7c1.75-3.02,4.04-5.26,6.87-6.7
			c2.83-1.44,5.91-2.17,9.24-2.17c3.22,0,6.15,0.61,8.78,1.83c2.64,1.22,4.9,2.89,6.79,5c1.89,2.11,3.33,4.55,4.33,7.33
			c1,2.78,1.5,5.72,1.5,8.83v1.5c0,3.11-0.53,6.05-1.58,8.83c-1.06,2.78-2.54,5.22-4.45,7.33c-1.92,2.11-4.19,3.78-6.83,5
			c-2.64,1.22-5.54,1.83-8.7,1.83c-3.16,0-6.19-0.69-9.07-2.08c-2.89-1.39-5.27-3.63-7.16-6.74c-1.89-3.11-2.97-7.19-3.25-12.24
			l3.66,6.66v29.56H1341.02z M1363.59,737.21c3,0,5.61-0.71,7.83-2.12c2.22-1.42,3.94-3.38,5.16-5.91c1.22-2.53,1.83-5.42,1.83-8.7
			c0-3.33-0.61-6.24-1.83-8.74c-1.22-2.5-2.94-4.45-5.16-5.87c-2.22-1.42-4.83-2.12-7.83-2.12c-2.66,0-5.13,0.6-7.41,1.79
			c-2.28,1.19-4.09,2.91-5.45,5.16c-1.36,2.25-2.04,4.95-2.04,8.12v3.83c0,3.05,0.69,5.66,2.08,7.83c1.39,2.17,3.22,3.83,5.5,5
			C1358.54,736.62,1360.98,737.21,1363.59,737.21z"/>
		<path class="st0" d="M1410.71,743.87c-3.33,0-6.2-0.57-8.62-1.71c-2.41-1.14-4.27-2.79-5.58-4.95c-1.31-2.16-1.96-4.77-1.96-7.83
			c0-3.16,0.71-5.8,2.12-7.91c1.42-2.11,3.48-3.7,6.2-4.79c2.72-1.08,5.99-1.62,9.82-1.62h12.07v5.99h-12.41
			c-3.22,0-5.69,0.78-7.41,2.33c-1.72,1.55-2.58,3.55-2.58,5.99c0,2.44,0.86,4.41,2.58,5.91c1.72,1.5,4.19,2.25,7.41,2.25
			c1.89,0,3.69-0.35,5.41-1.04c1.72-0.69,3.15-1.86,4.29-3.5c1.14-1.64,1.76-3.9,1.87-6.79l2.16,3.16
			c-0.28,3.16-1.04,5.81-2.29,7.95c-1.25,2.14-2.97,3.76-5.16,4.87C1416.47,743.31,1413.82,743.87,1410.71,743.87z M1425.28,742.7
			v-13.32h-1.33v-15.4c0-3.05-0.79-5.36-2.37-6.91c-1.58-1.55-3.9-2.33-6.95-2.33c-1.72,0-3.5,0.03-5.33,0.08
			c-1.83,0.06-3.58,0.11-5.25,0.17c-1.67,0.06-3.11,0.14-4.33,0.25v-6.99c1.22-0.11,2.51-0.21,3.87-0.29
			c1.36-0.08,2.76-0.14,4.2-0.17c1.44-0.03,2.83-0.04,4.16-0.04c4.55,0,8.27,0.54,11.16,1.62c2.89,1.08,5.02,2.85,6.41,5.29
			c1.39,2.44,2.08,5.74,2.08,9.91v28.14H1425.28z"/>
		<path class="st0" d="M1465.33,744.2c-3.83,0-7.15-0.67-9.95-2c-2.8-1.33-5.12-3.12-6.95-5.37c-1.83-2.25-3.21-4.73-4.12-7.45
			c-0.92-2.72-1.37-5.44-1.37-8.16v-1.5c0-2.83,0.46-5.61,1.37-8.33c0.92-2.72,2.3-5.18,4.16-7.37c1.86-2.19,4.18-3.95,6.95-5.29
			c2.77-1.33,6.02-2,9.74-2c3.72,0,7.06,0.69,10.03,2.08c2.97,1.39,5.36,3.34,7.16,5.87c1.8,2.53,2.82,5.51,3.04,8.95h-7.66
			c-0.39-2.77-1.67-5.09-3.83-6.95c-2.16-1.86-5.08-2.79-8.74-2.79c-3.16,0-5.8,0.72-7.91,2.17c-2.11,1.44-3.69,3.41-4.75,5.91
			c-1.05,2.5-1.58,5.33-1.58,8.49c0,3.05,0.53,5.84,1.58,8.37c1.05,2.53,2.65,4.52,4.79,5.99c2.14,1.47,4.81,2.21,8.03,2.21
			c2.5,0,4.66-0.44,6.49-1.33c1.83-0.89,3.3-2.08,4.41-3.58c1.11-1.5,1.78-3.19,2-5.08h7.66c-0.17,3.5-1.18,6.52-3.04,9.07
			c-1.86,2.55-4.3,4.54-7.33,5.95C1472.5,743.49,1469.1,744.2,1465.33,744.2z M1464.66,762.85c-1.06,0-2.07-0.07-3.04-0.21
			c-0.97-0.14-1.85-0.32-2.62-0.54v-5.33c0.78,0.22,1.68,0.4,2.71,0.54c1.03,0.14,2.01,0.21,2.96,0.21c1.78,0,3.08-0.29,3.91-0.87
			c0.83-0.58,1.25-1.32,1.25-2.21c0-0.89-0.35-1.6-1.04-2.12c-0.69-0.53-1.85-0.79-3.46-0.79h-3.16v-9.66h4.83v7.91l-3.41-3.08h1.33
			c3.16,0,5.72,0.65,7.66,1.96c1.94,1.3,2.91,3.18,2.91,5.62c0,2.39-0.96,4.41-2.87,6.08S1468.05,762.85,1464.66,762.85z"/>
		<path class="st0" d="M1509.04,743.87c-3.33,0-6.2-0.57-8.62-1.71c-2.41-1.14-4.27-2.79-5.58-4.95c-1.31-2.16-1.96-4.77-1.96-7.83
			c0-3.16,0.71-5.8,2.12-7.91c1.42-2.11,3.48-3.7,6.2-4.79c2.72-1.08,5.99-1.62,9.82-1.62h12.07v5.99h-12.41
			c-3.22,0-5.69,0.78-7.41,2.33c-1.72,1.55-2.58,3.55-2.58,5.99c0,2.44,0.86,4.41,2.58,5.91c1.72,1.5,4.19,2.25,7.41,2.25
			c1.89,0,3.69-0.35,5.41-1.04c1.72-0.69,3.15-1.86,4.29-3.5c1.14-1.64,1.76-3.9,1.87-6.79l2.16,3.16
			c-0.28,3.16-1.04,5.81-2.29,7.95c-1.25,2.14-2.97,3.76-5.16,4.87C1514.79,743.31,1512.14,743.87,1509.04,743.87z M1523.61,742.7
			v-13.32h-1.33v-15.4c0-3.05-0.79-5.36-2.37-6.91c-1.58-1.55-3.9-2.33-6.95-2.33c-1.72,0-3.5,0.03-5.33,0.08
			c-1.83,0.06-3.58,0.11-5.25,0.17c-1.67,0.06-3.11,0.14-4.33,0.25v-6.99c1.22-0.11,2.51-0.21,3.87-0.29
			c1.36-0.08,2.76-0.14,4.2-0.17c1.44-0.03,2.83-0.04,4.16-0.04c4.55,0,8.27,0.54,11.16,1.62c2.89,1.08,5.02,2.85,6.41,5.29
			c1.39,2.44,2.08,5.74,2.08,9.91v28.14H1523.61z M1517.95,689.33c-1.39,0-2.58-0.21-3.58-0.62c-1-0.42-1.92-0.9-2.75-1.46
			c-0.83-0.55-1.67-1.04-2.5-1.46s-1.78-0.62-2.83-0.62c-1.17,0-2.23,0.29-3.21,0.87c-0.97,0.58-1.85,1.37-2.62,2.37l-1.33-5.33
			c0.83-1.05,1.87-1.94,3.12-2.66c1.25-0.72,2.68-1.08,4.29-1.08c1.39,0,2.58,0.21,3.58,0.62c1,0.42,1.92,0.9,2.75,1.46
			c0.83,0.56,1.67,1.04,2.5,1.46c0.83,0.42,1.78,0.62,2.83,0.62c1.17,0,2.25-0.29,3.25-0.87c1-0.58,1.89-1.37,2.66-2.37l1.33,5.33
			c-0.83,1.06-1.89,1.94-3.16,2.66C1521,688.97,1519.55,689.33,1517.95,689.33z"/>
		<path class="st0" d="M1565.07,744.2c-3.89,0-7.3-0.67-10.24-2c-2.94-1.33-5.43-3.09-7.45-5.29c-2.03-2.19-3.55-4.65-4.58-7.37
			c-1.03-2.72-1.54-5.5-1.54-8.33v-1.5c0-2.83,0.53-5.62,1.58-8.37c1.05-2.75,2.61-5.22,4.66-7.41c2.05-2.19,4.55-3.94,7.49-5.25
			c2.94-1.3,6.3-1.96,10.07-1.96c3.77,0,7.13,0.65,10.07,1.96c2.94,1.31,5.44,3.05,7.49,5.25c2.05,2.19,3.61,4.66,4.66,7.41
			c1.05,2.75,1.58,5.54,1.58,8.37v1.5c0,2.83-0.51,5.61-1.54,8.33c-1.03,2.72-2.55,5.18-4.58,7.37c-2.03,2.19-4.51,3.95-7.45,5.29
			C1572.37,743.53,1568.95,744.2,1565.07,744.2z M1565.07,737.04c3.33,0,6.17-0.73,8.53-2.21c2.36-1.47,4.16-3.46,5.41-5.95
			c1.25-2.5,1.87-5.3,1.87-8.41c0-3.16-0.64-5.99-1.92-8.49c-1.28-2.5-3.09-4.47-5.45-5.91c-2.36-1.44-5.18-2.17-8.45-2.17
			c-3.22,0-6.02,0.72-8.41,2.17c-2.39,1.44-4.22,3.41-5.5,5.91c-1.28,2.5-1.91,5.33-1.91,8.49c0,3.11,0.62,5.91,1.87,8.41
			c1.25,2.5,3.05,4.48,5.41,5.95C1558.89,736.31,1561.74,737.04,1565.07,737.04z"/>
		<path class="st0" d="M1599.29,742.7v-10.16h9.66v10.16H1599.29z"/>
	</g>
</g>
</svg>
