<?xml version="1.0" encoding="utf-8"?>
<!-- Generator: Adobe Illustrator 27.3.1, SVG Export Plug-In . SVG Version: 6.00 Build 0)  -->
<svg version="1.1" id="Camada_1" xmlns="http://www.w3.org/2000/svg" xmlns:xlink="http://www.w3.org/1999/xlink" x="0px" y="0px"
	 viewBox="0 0 1920 1080" style="enable-background:new 0 0 1920 1080;" xml:space="preserve">
<style type="text/css">
	.st0{fill:#C29DE0;}
	.st1{fill:#F7BD4B;}
	.st2{fill:none;}
	.st3{fill:#BC9ECB;}
	.st4{fill:#F3EEE2;}
	.st5{fill:#87A6D2;}
	.st6{fill:#7CAA92;}
	.st7{fill:#FFFFFF;}
</style>
<path class="st5" d="M610.47,450.92c-0.11-0.26-0.21-0.53-0.31-0.79c0,0.01-0.01,0.01-0.01,0.02
	C610.25,450.41,610.36,450.66,610.47,450.92z M1070.21,387.94c0.06,38.09-7.98,76.67-25,113.35c-19.49,42-56.37,79.81-103.85,106.46
	c-46.44,26.07-98.88,39.85-151.65,39.85c-43.17,0-84.19-9.24-121.99-27.41v150.74c37.8,18.18,78.83,27.41,121.99,27.41
	c52.76,0,105.2-13.78,151.65-39.85c47.48-26.65,84.36-64.46,103.85-106.46c17.42-37.54,25.45-77.06,25.01-116.02h0.02
	C1070.24,536.02,1070.19,401.66,1070.21,387.94z M879.99,360.48c40.85,20.89,71.99,52.8,91.27,89.91c0,0-31.17-126.92-96.55-245.36
	c-85.94-39.59-222.99-1.36-265.55,94.36c-20.84,46.88-18.55,102.47,1,150.74C654.72,354.04,795.12,317.09,879.99,360.48z"/>
</svg>
